%
M48
M72
T01C0.0197
T02C0.0217
T03C0.0394
T04C0.0630
T05C0.0866
T06C0.1260
%
T01
X7155Y3155
X7155Y4155
X8155Y4155
X8155Y3155
X9155Y4155
X10155Y4155
X10155Y3155
X14655Y1655
X15655Y1655
X15655Y3155
X15155Y3155
X14655Y8655
X14155Y8655
X13655Y8655
X15155Y9905
X13655Y12155
X14655Y15655
X15155Y15655
X17655Y15155
X14155Y18155
X14655Y18655
X13155Y18655
X11155Y18655
X9155Y18655
X7155Y18655
X5155Y18655
T02
X5368Y2502
X6943Y2502
T03
X5043Y1655
X7267Y1655
X18655Y5655
X18655Y6655
X18655Y7655
X18655Y8655
X18655Y9655
X18655Y10655
X18655Y11655
X18655Y12655
X18655Y13655
X18655Y14655
T04
X2605Y5555
T05
X2605Y15055
T06
X2655Y2655
X17655Y2655
X17655Y17655
X2655Y17655
M30
