G75*
G70*
%OFA0B0*%
%FSLAX24Y24*%
%IPPOS*%
%LPD*%
%AMOC8*
5,1,8,0,0,1.08239X$1,22.5*
%
%ADD10C,0.0000*%
%ADD11C,0.0945*%
%ADD12C,0.0594*%
%ADD13C,0.0660*%
%ADD14C,0.0120*%
%ADD15C,0.0100*%
%ADD16C,0.0357*%
%ADD17C,0.0160*%
D10*
X000655Y002655D02*
X000655Y017655D01*
X002025Y017655D02*
X002027Y017705D01*
X002033Y017755D01*
X002043Y017804D01*
X002057Y017852D01*
X002074Y017899D01*
X002095Y017944D01*
X002120Y017988D01*
X002148Y018029D01*
X002180Y018068D01*
X002214Y018105D01*
X002251Y018139D01*
X002291Y018169D01*
X002333Y018196D01*
X002377Y018220D01*
X002423Y018241D01*
X002470Y018257D01*
X002518Y018270D01*
X002568Y018279D01*
X002617Y018284D01*
X002668Y018285D01*
X002718Y018282D01*
X002767Y018275D01*
X002816Y018264D01*
X002864Y018249D01*
X002910Y018231D01*
X002955Y018209D01*
X002998Y018183D01*
X003039Y018154D01*
X003078Y018122D01*
X003114Y018087D01*
X003146Y018049D01*
X003176Y018009D01*
X003203Y017966D01*
X003226Y017922D01*
X003245Y017876D01*
X003261Y017828D01*
X003273Y017779D01*
X003281Y017730D01*
X003285Y017680D01*
X003285Y017630D01*
X003281Y017580D01*
X003273Y017531D01*
X003261Y017482D01*
X003245Y017434D01*
X003226Y017388D01*
X003203Y017344D01*
X003176Y017301D01*
X003146Y017261D01*
X003114Y017223D01*
X003078Y017188D01*
X003039Y017156D01*
X002998Y017127D01*
X002955Y017101D01*
X002910Y017079D01*
X002864Y017061D01*
X002816Y017046D01*
X002767Y017035D01*
X002718Y017028D01*
X002668Y017025D01*
X002617Y017026D01*
X002568Y017031D01*
X002518Y017040D01*
X002470Y017053D01*
X002423Y017069D01*
X002377Y017090D01*
X002333Y017114D01*
X002291Y017141D01*
X002251Y017171D01*
X002214Y017205D01*
X002180Y017242D01*
X002148Y017281D01*
X002120Y017322D01*
X002095Y017366D01*
X002074Y017411D01*
X002057Y017458D01*
X002043Y017506D01*
X002033Y017555D01*
X002027Y017605D01*
X002025Y017655D01*
X000655Y017655D02*
X000657Y017750D01*
X000664Y017845D01*
X000675Y017940D01*
X000691Y018034D01*
X000711Y018127D01*
X000736Y018218D01*
X000765Y018309D01*
X000798Y018398D01*
X000836Y018486D01*
X000877Y018571D01*
X000923Y018655D01*
X000972Y018736D01*
X001026Y018815D01*
X001083Y018891D01*
X001144Y018965D01*
X001208Y019035D01*
X001275Y019102D01*
X001345Y019166D01*
X001419Y019227D01*
X001495Y019284D01*
X001574Y019338D01*
X001655Y019387D01*
X001739Y019433D01*
X001824Y019474D01*
X001912Y019512D01*
X002001Y019545D01*
X002092Y019574D01*
X002183Y019599D01*
X002276Y019619D01*
X002370Y019635D01*
X002465Y019646D01*
X002560Y019653D01*
X002655Y019655D01*
X017655Y019655D01*
X017025Y017655D02*
X017027Y017705D01*
X017033Y017755D01*
X017043Y017804D01*
X017057Y017852D01*
X017074Y017899D01*
X017095Y017944D01*
X017120Y017988D01*
X017148Y018029D01*
X017180Y018068D01*
X017214Y018105D01*
X017251Y018139D01*
X017291Y018169D01*
X017333Y018196D01*
X017377Y018220D01*
X017423Y018241D01*
X017470Y018257D01*
X017518Y018270D01*
X017568Y018279D01*
X017617Y018284D01*
X017668Y018285D01*
X017718Y018282D01*
X017767Y018275D01*
X017816Y018264D01*
X017864Y018249D01*
X017910Y018231D01*
X017955Y018209D01*
X017998Y018183D01*
X018039Y018154D01*
X018078Y018122D01*
X018114Y018087D01*
X018146Y018049D01*
X018176Y018009D01*
X018203Y017966D01*
X018226Y017922D01*
X018245Y017876D01*
X018261Y017828D01*
X018273Y017779D01*
X018281Y017730D01*
X018285Y017680D01*
X018285Y017630D01*
X018281Y017580D01*
X018273Y017531D01*
X018261Y017482D01*
X018245Y017434D01*
X018226Y017388D01*
X018203Y017344D01*
X018176Y017301D01*
X018146Y017261D01*
X018114Y017223D01*
X018078Y017188D01*
X018039Y017156D01*
X017998Y017127D01*
X017955Y017101D01*
X017910Y017079D01*
X017864Y017061D01*
X017816Y017046D01*
X017767Y017035D01*
X017718Y017028D01*
X017668Y017025D01*
X017617Y017026D01*
X017568Y017031D01*
X017518Y017040D01*
X017470Y017053D01*
X017423Y017069D01*
X017377Y017090D01*
X017333Y017114D01*
X017291Y017141D01*
X017251Y017171D01*
X017214Y017205D01*
X017180Y017242D01*
X017148Y017281D01*
X017120Y017322D01*
X017095Y017366D01*
X017074Y017411D01*
X017057Y017458D01*
X017043Y017506D01*
X017033Y017555D01*
X017027Y017605D01*
X017025Y017655D01*
X017655Y019655D02*
X017750Y019653D01*
X017845Y019646D01*
X017940Y019635D01*
X018034Y019619D01*
X018127Y019599D01*
X018218Y019574D01*
X018309Y019545D01*
X018398Y019512D01*
X018486Y019474D01*
X018571Y019433D01*
X018655Y019387D01*
X018736Y019338D01*
X018815Y019284D01*
X018891Y019227D01*
X018965Y019166D01*
X019035Y019102D01*
X019102Y019035D01*
X019166Y018965D01*
X019227Y018891D01*
X019284Y018815D01*
X019338Y018736D01*
X019387Y018655D01*
X019433Y018571D01*
X019474Y018486D01*
X019512Y018398D01*
X019545Y018309D01*
X019574Y018218D01*
X019599Y018127D01*
X019619Y018034D01*
X019635Y017940D01*
X019646Y017845D01*
X019653Y017750D01*
X019655Y017655D01*
X019655Y002655D01*
X017025Y002655D02*
X017027Y002705D01*
X017033Y002755D01*
X017043Y002804D01*
X017057Y002852D01*
X017074Y002899D01*
X017095Y002944D01*
X017120Y002988D01*
X017148Y003029D01*
X017180Y003068D01*
X017214Y003105D01*
X017251Y003139D01*
X017291Y003169D01*
X017333Y003196D01*
X017377Y003220D01*
X017423Y003241D01*
X017470Y003257D01*
X017518Y003270D01*
X017568Y003279D01*
X017617Y003284D01*
X017668Y003285D01*
X017718Y003282D01*
X017767Y003275D01*
X017816Y003264D01*
X017864Y003249D01*
X017910Y003231D01*
X017955Y003209D01*
X017998Y003183D01*
X018039Y003154D01*
X018078Y003122D01*
X018114Y003087D01*
X018146Y003049D01*
X018176Y003009D01*
X018203Y002966D01*
X018226Y002922D01*
X018245Y002876D01*
X018261Y002828D01*
X018273Y002779D01*
X018281Y002730D01*
X018285Y002680D01*
X018285Y002630D01*
X018281Y002580D01*
X018273Y002531D01*
X018261Y002482D01*
X018245Y002434D01*
X018226Y002388D01*
X018203Y002344D01*
X018176Y002301D01*
X018146Y002261D01*
X018114Y002223D01*
X018078Y002188D01*
X018039Y002156D01*
X017998Y002127D01*
X017955Y002101D01*
X017910Y002079D01*
X017864Y002061D01*
X017816Y002046D01*
X017767Y002035D01*
X017718Y002028D01*
X017668Y002025D01*
X017617Y002026D01*
X017568Y002031D01*
X017518Y002040D01*
X017470Y002053D01*
X017423Y002069D01*
X017377Y002090D01*
X017333Y002114D01*
X017291Y002141D01*
X017251Y002171D01*
X017214Y002205D01*
X017180Y002242D01*
X017148Y002281D01*
X017120Y002322D01*
X017095Y002366D01*
X017074Y002411D01*
X017057Y002458D01*
X017043Y002506D01*
X017033Y002555D01*
X017027Y002605D01*
X017025Y002655D01*
X017655Y000655D02*
X017750Y000657D01*
X017845Y000664D01*
X017940Y000675D01*
X018034Y000691D01*
X018127Y000711D01*
X018218Y000736D01*
X018309Y000765D01*
X018398Y000798D01*
X018486Y000836D01*
X018571Y000877D01*
X018655Y000923D01*
X018736Y000972D01*
X018815Y001026D01*
X018891Y001083D01*
X018965Y001144D01*
X019035Y001208D01*
X019102Y001275D01*
X019166Y001345D01*
X019227Y001419D01*
X019284Y001495D01*
X019338Y001574D01*
X019387Y001655D01*
X019433Y001739D01*
X019474Y001824D01*
X019512Y001912D01*
X019545Y002001D01*
X019574Y002092D01*
X019599Y002183D01*
X019619Y002276D01*
X019635Y002370D01*
X019646Y002465D01*
X019653Y002560D01*
X019655Y002655D01*
X017655Y000655D02*
X002655Y000655D01*
X002025Y002655D02*
X002027Y002705D01*
X002033Y002755D01*
X002043Y002804D01*
X002057Y002852D01*
X002074Y002899D01*
X002095Y002944D01*
X002120Y002988D01*
X002148Y003029D01*
X002180Y003068D01*
X002214Y003105D01*
X002251Y003139D01*
X002291Y003169D01*
X002333Y003196D01*
X002377Y003220D01*
X002423Y003241D01*
X002470Y003257D01*
X002518Y003270D01*
X002568Y003279D01*
X002617Y003284D01*
X002668Y003285D01*
X002718Y003282D01*
X002767Y003275D01*
X002816Y003264D01*
X002864Y003249D01*
X002910Y003231D01*
X002955Y003209D01*
X002998Y003183D01*
X003039Y003154D01*
X003078Y003122D01*
X003114Y003087D01*
X003146Y003049D01*
X003176Y003009D01*
X003203Y002966D01*
X003226Y002922D01*
X003245Y002876D01*
X003261Y002828D01*
X003273Y002779D01*
X003281Y002730D01*
X003285Y002680D01*
X003285Y002630D01*
X003281Y002580D01*
X003273Y002531D01*
X003261Y002482D01*
X003245Y002434D01*
X003226Y002388D01*
X003203Y002344D01*
X003176Y002301D01*
X003146Y002261D01*
X003114Y002223D01*
X003078Y002188D01*
X003039Y002156D01*
X002998Y002127D01*
X002955Y002101D01*
X002910Y002079D01*
X002864Y002061D01*
X002816Y002046D01*
X002767Y002035D01*
X002718Y002028D01*
X002668Y002025D01*
X002617Y002026D01*
X002568Y002031D01*
X002518Y002040D01*
X002470Y002053D01*
X002423Y002069D01*
X002377Y002090D01*
X002333Y002114D01*
X002291Y002141D01*
X002251Y002171D01*
X002214Y002205D01*
X002180Y002242D01*
X002148Y002281D01*
X002120Y002322D01*
X002095Y002366D01*
X002074Y002411D01*
X002057Y002458D01*
X002043Y002506D01*
X002033Y002555D01*
X002027Y002605D01*
X002025Y002655D01*
X000655Y002655D02*
X000657Y002560D01*
X000664Y002465D01*
X000675Y002370D01*
X000691Y002276D01*
X000711Y002183D01*
X000736Y002092D01*
X000765Y002001D01*
X000798Y001912D01*
X000836Y001824D01*
X000877Y001739D01*
X000923Y001655D01*
X000972Y001574D01*
X001026Y001495D01*
X001083Y001419D01*
X001144Y001345D01*
X001208Y001275D01*
X001275Y001208D01*
X001345Y001144D01*
X001419Y001083D01*
X001495Y001026D01*
X001574Y000972D01*
X001655Y000923D01*
X001739Y000877D01*
X001824Y000836D01*
X001912Y000798D01*
X002001Y000765D01*
X002092Y000736D01*
X002183Y000711D01*
X002276Y000691D01*
X002370Y000675D01*
X002465Y000664D01*
X002560Y000657D01*
X002655Y000655D01*
X005260Y002502D02*
X005262Y002522D01*
X005268Y002542D01*
X005277Y002560D01*
X005290Y002577D01*
X005305Y002590D01*
X005323Y002600D01*
X005343Y002607D01*
X005363Y002610D01*
X005383Y002609D01*
X005403Y002604D01*
X005422Y002596D01*
X005439Y002584D01*
X005453Y002569D01*
X005464Y002551D01*
X005472Y002532D01*
X005476Y002512D01*
X005476Y002492D01*
X005472Y002472D01*
X005464Y002453D01*
X005453Y002435D01*
X005439Y002420D01*
X005422Y002408D01*
X005403Y002400D01*
X005383Y002395D01*
X005363Y002394D01*
X005343Y002397D01*
X005323Y002404D01*
X005305Y002414D01*
X005290Y002427D01*
X005277Y002444D01*
X005268Y002462D01*
X005262Y002482D01*
X005260Y002502D01*
X006835Y002502D02*
X006837Y002522D01*
X006843Y002542D01*
X006852Y002560D01*
X006865Y002577D01*
X006880Y002590D01*
X006898Y002600D01*
X006918Y002607D01*
X006938Y002610D01*
X006958Y002609D01*
X006978Y002604D01*
X006997Y002596D01*
X007014Y002584D01*
X007028Y002569D01*
X007039Y002551D01*
X007047Y002532D01*
X007051Y002512D01*
X007051Y002492D01*
X007047Y002472D01*
X007039Y002453D01*
X007028Y002435D01*
X007014Y002420D01*
X006997Y002408D01*
X006978Y002400D01*
X006958Y002395D01*
X006938Y002394D01*
X006918Y002397D01*
X006898Y002404D01*
X006880Y002414D01*
X006865Y002427D01*
X006852Y002444D01*
X006843Y002462D01*
X006837Y002482D01*
X006835Y002502D01*
X002172Y015055D02*
X002174Y015096D01*
X002180Y015137D01*
X002190Y015177D01*
X002203Y015216D01*
X002220Y015253D01*
X002241Y015289D01*
X002265Y015323D01*
X002292Y015354D01*
X002321Y015382D01*
X002354Y015408D01*
X002388Y015430D01*
X002425Y015449D01*
X002463Y015464D01*
X002503Y015476D01*
X002543Y015484D01*
X002584Y015488D01*
X002626Y015488D01*
X002667Y015484D01*
X002707Y015476D01*
X002747Y015464D01*
X002785Y015449D01*
X002821Y015430D01*
X002856Y015408D01*
X002889Y015382D01*
X002918Y015354D01*
X002945Y015323D01*
X002969Y015289D01*
X002990Y015253D01*
X003007Y015216D01*
X003020Y015177D01*
X003030Y015137D01*
X003036Y015096D01*
X003038Y015055D01*
X003036Y015014D01*
X003030Y014973D01*
X003020Y014933D01*
X003007Y014894D01*
X002990Y014857D01*
X002969Y014821D01*
X002945Y014787D01*
X002918Y014756D01*
X002889Y014728D01*
X002856Y014702D01*
X002822Y014680D01*
X002785Y014661D01*
X002747Y014646D01*
X002707Y014634D01*
X002667Y014626D01*
X002626Y014622D01*
X002584Y014622D01*
X002543Y014626D01*
X002503Y014634D01*
X002463Y014646D01*
X002425Y014661D01*
X002389Y014680D01*
X002354Y014702D01*
X002321Y014728D01*
X002292Y014756D01*
X002265Y014787D01*
X002241Y014821D01*
X002220Y014857D01*
X002203Y014894D01*
X002190Y014933D01*
X002180Y014973D01*
X002174Y015014D01*
X002172Y015055D01*
D11*
X002605Y005555D03*
D12*
X005043Y001655D03*
X007267Y001655D03*
D13*
X018655Y005655D03*
X018655Y006655D03*
X018655Y007655D03*
X018655Y008655D03*
X018655Y009655D03*
X018655Y010655D03*
X018655Y011655D03*
X018655Y012655D03*
X018655Y013655D03*
X018655Y014655D03*
D14*
X010205Y017215D02*
X009965Y017465D01*
X009715Y017465D01*
X009715Y017835D01*
X009715Y017955D01*
X010085Y017955D01*
X010205Y017835D01*
X010205Y017585D01*
X010085Y017465D01*
X009965Y017465D01*
X009715Y017465D02*
X009715Y017335D01*
X009715Y017215D01*
X009595Y017215D02*
X009715Y017335D01*
X009595Y017215D02*
X009345Y017215D01*
X009225Y017345D01*
X009225Y017585D01*
X009475Y017585D01*
X009235Y017835D02*
X009355Y017955D01*
X009595Y017955D01*
X009715Y017835D01*
X008855Y017815D02*
X008725Y017945D01*
X008485Y017945D01*
X008365Y017825D01*
X008365Y017815D02*
X008365Y017695D01*
X008855Y017215D01*
X008365Y017215D01*
X008055Y017335D02*
X007935Y017215D01*
X007695Y017215D01*
X007575Y017335D01*
X007575Y017815D01*
X007695Y017935D01*
X007935Y017935D01*
X008055Y017815D01*
X008055Y017335D01*
X007585Y017815D01*
X007265Y017693D02*
X007023Y017935D01*
X007023Y017928D02*
X007023Y017223D01*
X006783Y017215D02*
X007268Y017215D01*
X006473Y017585D02*
X006115Y017960D01*
X006115Y017215D01*
X005983Y017585D02*
X006473Y017585D01*
D15*
X001089Y001671D02*
X001347Y001347D01*
X001671Y001089D01*
X002044Y000909D01*
X002448Y000817D01*
X002655Y000805D01*
X017655Y000805D01*
X017862Y000817D01*
X018266Y000909D01*
X018639Y001089D01*
X018963Y001347D01*
X019222Y001671D01*
X019401Y002044D01*
X019494Y002448D01*
X019505Y002655D01*
X019505Y017593D01*
X019505Y017623D01*
X019505Y017655D01*
X019494Y017862D01*
X019401Y018266D01*
X019222Y018639D01*
X018963Y018963D01*
X018639Y019222D01*
X018266Y019401D01*
X017862Y019494D01*
X017655Y019505D01*
X002717Y019505D01*
X002702Y019505D01*
X002655Y019505D01*
X002448Y019494D01*
X002044Y019401D01*
X001671Y019222D01*
X001347Y018963D01*
X001089Y018639D01*
X000909Y018266D01*
X000817Y017862D01*
X000805Y017655D01*
X000805Y015155D01*
X002022Y015155D01*
X002022Y015171D01*
X002111Y015385D01*
X002275Y015549D01*
X002489Y015638D01*
X002721Y015638D01*
X002935Y015549D01*
X003099Y015385D01*
X003188Y015171D01*
X003188Y015155D01*
X005155Y015155D01*
X005155Y005155D01*
X003085Y005155D01*
X002958Y005027D01*
X002729Y004933D01*
X002481Y004933D01*
X002253Y005027D01*
X002125Y005155D01*
X000805Y005155D01*
X000805Y002717D01*
X000805Y002707D01*
X000805Y002655D01*
X000817Y002448D01*
X000909Y002044D01*
X001089Y001671D01*
X001113Y001641D02*
X001242Y001641D01*
X001183Y001709D02*
X001509Y001333D01*
X001928Y001063D01*
X001928Y001063D01*
X002406Y000923D01*
X002904Y000923D01*
X002904Y000923D01*
X003382Y001063D01*
X003801Y001333D01*
X004127Y001709D01*
X004334Y002162D01*
X004405Y002655D01*
X004334Y003148D01*
X004334Y003148D01*
X004127Y003601D01*
X004127Y003601D01*
X003801Y003978D01*
X003382Y004247D01*
X002904Y004387D01*
X002406Y004387D01*
X001928Y004247D01*
X001509Y003978D01*
X001509Y003978D01*
X001509Y003978D01*
X001183Y003601D01*
X000976Y003148D01*
X000905Y002655D01*
X000976Y002162D01*
X001183Y001709D01*
X001183Y001709D01*
X001169Y001739D02*
X001056Y001739D01*
X001008Y001838D02*
X001124Y001838D01*
X001079Y001936D02*
X000961Y001936D01*
X000913Y002035D02*
X001034Y002035D01*
X000989Y002133D02*
X000889Y002133D01*
X000976Y002162D02*
X000976Y002162D01*
X000966Y002232D02*
X000866Y002232D01*
X000844Y002330D02*
X000952Y002330D01*
X000938Y002429D02*
X000821Y002429D01*
X000812Y002527D02*
X000923Y002527D01*
X000909Y002626D02*
X000807Y002626D01*
X000805Y002725D02*
X000915Y002725D01*
X000905Y002655D02*
X000905Y002655D01*
X000929Y002823D02*
X000805Y002823D01*
X000805Y002922D02*
X000943Y002922D01*
X000958Y003020D02*
X000805Y003020D01*
X000805Y003119D02*
X000972Y003119D01*
X000976Y003148D02*
X000976Y003148D01*
X001008Y003217D02*
X000805Y003217D01*
X000805Y003316D02*
X001053Y003316D01*
X001098Y003414D02*
X000805Y003414D01*
X000805Y003513D02*
X001143Y003513D01*
X001183Y003601D02*
X001183Y003601D01*
X001192Y003611D02*
X000805Y003611D01*
X000805Y003710D02*
X001277Y003710D01*
X001363Y003809D02*
X000805Y003809D01*
X000805Y003907D02*
X001448Y003907D01*
X001553Y004006D02*
X000805Y004006D01*
X000805Y004104D02*
X001706Y004104D01*
X001859Y004203D02*
X000805Y004203D01*
X000805Y004301D02*
X002113Y004301D01*
X001928Y004247D02*
X001928Y004247D01*
X002406Y004387D02*
X002406Y004387D01*
X002904Y004387D02*
X002904Y004387D01*
X003197Y004301D02*
X014925Y004301D01*
X014925Y004203D02*
X003451Y004203D01*
X003382Y004247D02*
X003382Y004247D01*
X003604Y004104D02*
X014925Y004104D01*
X014925Y004006D02*
X003758Y004006D01*
X003801Y003978D02*
X003801Y003978D01*
X003862Y003907D02*
X014925Y003907D01*
X014925Y003809D02*
X003948Y003809D01*
X004033Y003710D02*
X014925Y003710D01*
X014925Y003611D02*
X004118Y003611D01*
X004168Y003513D02*
X014925Y003513D01*
X014925Y003414D02*
X004213Y003414D01*
X004258Y003316D02*
X014866Y003316D01*
X014877Y003341D02*
X014827Y003220D01*
X014827Y003090D01*
X014877Y002969D01*
X014969Y002877D01*
X015090Y002827D01*
X015220Y002827D01*
X015341Y002877D01*
X015405Y002941D01*
X015469Y002877D01*
X015590Y002827D01*
X015720Y002827D01*
X015841Y002877D01*
X015934Y002969D01*
X015959Y003031D01*
X015905Y002655D01*
X015976Y002162D01*
X016183Y001709D01*
X016509Y001333D01*
X016928Y001063D01*
X016928Y001063D01*
X017406Y000923D01*
X017904Y000923D01*
X017904Y000923D01*
X018382Y001063D01*
X018801Y001333D01*
X019127Y001709D01*
X019334Y002162D01*
X019405Y002655D01*
X019334Y003148D01*
X019334Y003148D01*
X019127Y003601D01*
X018801Y003978D01*
X018382Y004247D01*
X017904Y004387D01*
X017904Y004387D01*
X017406Y004387D01*
X016928Y004247D01*
X016509Y003978D01*
X016509Y003978D01*
X016509Y003978D01*
X016183Y003601D01*
X015984Y003165D01*
X015984Y003220D01*
X015934Y003341D01*
X015885Y003390D01*
X015885Y013060D01*
X017652Y014827D01*
X017720Y014827D01*
X017841Y014877D01*
X017934Y014969D01*
X017984Y015090D01*
X017984Y015220D01*
X017934Y015341D01*
X017841Y015434D01*
X017720Y015484D01*
X017590Y015484D01*
X017469Y015434D01*
X017377Y015341D01*
X017327Y015220D01*
X017327Y015152D01*
X015425Y013250D01*
X015425Y013060D01*
X015425Y010099D01*
X015385Y010140D01*
X015385Y015421D01*
X015434Y015469D01*
X015484Y015590D01*
X015484Y015720D01*
X015434Y015841D01*
X015385Y015890D01*
X015385Y017560D01*
X015385Y017750D01*
X014885Y018250D01*
X014750Y018385D01*
X014390Y018385D01*
X014341Y018434D01*
X014220Y018484D01*
X014090Y018484D01*
X013969Y018434D01*
X013877Y018341D01*
X013827Y018220D01*
X013827Y018090D01*
X013877Y017969D01*
X013969Y017877D01*
X014090Y017827D01*
X014220Y017827D01*
X014341Y017877D01*
X014390Y017925D01*
X014560Y017925D01*
X014925Y017560D01*
X014925Y015890D01*
X014905Y015870D01*
X014841Y015934D01*
X014720Y015984D01*
X014590Y015984D01*
X014469Y015934D01*
X014377Y015841D01*
X014327Y015720D01*
X014327Y015590D01*
X014377Y015469D01*
X014425Y015421D01*
X014425Y013250D01*
X013658Y012484D01*
X013590Y012484D01*
X013469Y012434D01*
X013377Y012341D01*
X013327Y012220D01*
X013327Y012090D01*
X013377Y011969D01*
X013469Y011877D01*
X013590Y011827D01*
X013720Y011827D01*
X013841Y011877D01*
X013934Y011969D01*
X013984Y012090D01*
X013984Y012158D01*
X014885Y013060D01*
X014885Y013250D01*
X014885Y015421D01*
X014905Y015441D01*
X014925Y015421D01*
X014925Y010140D01*
X014877Y010091D01*
X014827Y009970D01*
X014827Y009840D01*
X014877Y009719D01*
X014925Y009671D01*
X014925Y003390D01*
X014877Y003341D01*
X014827Y003217D02*
X004303Y003217D01*
X004338Y003119D02*
X014827Y003119D01*
X014856Y003020D02*
X004353Y003020D01*
X004367Y002922D02*
X014924Y002922D01*
X015386Y002922D02*
X015424Y002922D01*
X015886Y002922D02*
X015943Y002922D01*
X015955Y003020D02*
X015958Y003020D01*
X015984Y003217D02*
X016008Y003217D01*
X016053Y003316D02*
X015944Y003316D01*
X015885Y003414D02*
X016098Y003414D01*
X016143Y003513D02*
X015885Y003513D01*
X015885Y003611D02*
X016192Y003611D01*
X016183Y003601D02*
X016183Y003601D01*
X016277Y003710D02*
X015885Y003710D01*
X015885Y003809D02*
X016363Y003809D01*
X016448Y003907D02*
X015885Y003907D01*
X015885Y004006D02*
X016553Y004006D01*
X016706Y004104D02*
X015885Y004104D01*
X015885Y004203D02*
X016859Y004203D01*
X016928Y004247D02*
X016928Y004247D01*
X017113Y004301D02*
X015885Y004301D01*
X015885Y004400D02*
X019505Y004400D01*
X019505Y004498D02*
X015885Y004498D01*
X015885Y004597D02*
X019505Y004597D01*
X019505Y004695D02*
X015885Y004695D01*
X015885Y004794D02*
X019505Y004794D01*
X019505Y004892D02*
X015885Y004892D01*
X015885Y004991D02*
X019505Y004991D01*
X019505Y005090D02*
X015885Y005090D01*
X015885Y005188D02*
X018528Y005188D01*
X018560Y005175D02*
X018751Y005175D01*
X018927Y005248D01*
X019062Y005383D01*
X019135Y005560D01*
X019135Y005751D01*
X019062Y005927D01*
X018927Y006062D01*
X018751Y006135D01*
X018560Y006135D01*
X018383Y006062D01*
X018248Y005927D01*
X018175Y005751D01*
X018175Y005560D01*
X018248Y005383D01*
X018383Y005248D01*
X018560Y005175D01*
X018782Y005188D02*
X019505Y005188D01*
X019505Y005287D02*
X018965Y005287D01*
X019063Y005385D02*
X019505Y005385D01*
X019505Y005484D02*
X019104Y005484D01*
X019135Y005582D02*
X019505Y005582D01*
X019505Y005681D02*
X019135Y005681D01*
X019123Y005779D02*
X019505Y005779D01*
X019505Y005878D02*
X019082Y005878D01*
X019013Y005976D02*
X019505Y005976D01*
X019505Y006075D02*
X018896Y006075D01*
X018927Y006248D02*
X018751Y006175D01*
X018560Y006175D01*
X018383Y006248D01*
X018248Y006383D01*
X018175Y006560D01*
X018175Y006751D01*
X018248Y006927D01*
X018383Y007062D01*
X018560Y007135D01*
X018751Y007135D01*
X018927Y007062D01*
X019062Y006927D01*
X019135Y006751D01*
X019135Y006560D01*
X019062Y006383D01*
X018927Y006248D01*
X018951Y006272D02*
X019505Y006272D01*
X019505Y006174D02*
X015885Y006174D01*
X015885Y006272D02*
X018359Y006272D01*
X018261Y006371D02*
X015885Y006371D01*
X015885Y006469D02*
X018213Y006469D01*
X018175Y006568D02*
X015885Y006568D01*
X015885Y006666D02*
X018175Y006666D01*
X018181Y006765D02*
X015885Y006765D01*
X015885Y006863D02*
X018222Y006863D01*
X018283Y006962D02*
X015885Y006962D01*
X015885Y007060D02*
X018382Y007060D01*
X018383Y007248D02*
X018560Y007175D01*
X018751Y007175D01*
X018927Y007248D01*
X019062Y007383D01*
X019135Y007560D01*
X019135Y007751D01*
X019062Y007927D01*
X018927Y008062D01*
X018751Y008135D01*
X018560Y008135D01*
X018383Y008062D01*
X018248Y007927D01*
X018175Y007751D01*
X018175Y007560D01*
X018248Y007383D01*
X018383Y007248D01*
X018374Y007258D02*
X015885Y007258D01*
X015885Y007356D02*
X018275Y007356D01*
X018219Y007455D02*
X015885Y007455D01*
X015885Y007553D02*
X018178Y007553D01*
X018175Y007652D02*
X015885Y007652D01*
X015885Y007750D02*
X018175Y007750D01*
X018216Y007849D02*
X015885Y007849D01*
X015885Y007947D02*
X018269Y007947D01*
X018367Y008046D02*
X015885Y008046D01*
X015885Y008144D02*
X019505Y008144D01*
X019505Y008046D02*
X018943Y008046D01*
X019042Y007947D02*
X019505Y007947D01*
X019505Y007849D02*
X019094Y007849D01*
X019135Y007750D02*
X019505Y007750D01*
X019505Y007652D02*
X019135Y007652D01*
X019132Y007553D02*
X019505Y007553D01*
X019505Y007455D02*
X019092Y007455D01*
X019035Y007356D02*
X019505Y007356D01*
X019505Y007258D02*
X018936Y007258D01*
X018929Y007060D02*
X019505Y007060D01*
X019505Y006962D02*
X019027Y006962D01*
X019088Y006863D02*
X019505Y006863D01*
X019505Y006765D02*
X019129Y006765D01*
X019135Y006666D02*
X019505Y006666D01*
X019505Y006568D02*
X019135Y006568D01*
X019098Y006469D02*
X019505Y006469D01*
X019505Y006371D02*
X019049Y006371D01*
X018415Y006075D02*
X015885Y006075D01*
X015885Y005976D02*
X018298Y005976D01*
X018228Y005878D02*
X015885Y005878D01*
X015885Y005779D02*
X018187Y005779D01*
X018175Y005681D02*
X015885Y005681D01*
X015885Y005582D02*
X018175Y005582D01*
X018207Y005484D02*
X015885Y005484D01*
X015885Y005385D02*
X018247Y005385D01*
X018345Y005287D02*
X015885Y005287D01*
X014925Y005287D02*
X005155Y005287D01*
X005155Y005385D02*
X014925Y005385D01*
X014925Y005484D02*
X005155Y005484D01*
X005155Y005582D02*
X014925Y005582D01*
X014925Y005681D02*
X005155Y005681D01*
X005155Y005779D02*
X014925Y005779D01*
X014925Y005878D02*
X005155Y005878D01*
X005155Y005976D02*
X014925Y005976D01*
X014925Y006075D02*
X005155Y006075D01*
X005155Y006174D02*
X014925Y006174D01*
X014925Y006272D02*
X005155Y006272D01*
X005155Y006371D02*
X014925Y006371D01*
X014925Y006469D02*
X005155Y006469D01*
X005155Y006568D02*
X014925Y006568D01*
X014925Y006666D02*
X005155Y006666D01*
X005155Y006765D02*
X014925Y006765D01*
X014925Y006863D02*
X005155Y006863D01*
X005155Y006962D02*
X014925Y006962D01*
X014925Y007060D02*
X005155Y007060D01*
X005155Y007159D02*
X014925Y007159D01*
X014925Y007258D02*
X005155Y007258D01*
X005155Y007356D02*
X014925Y007356D01*
X014925Y007455D02*
X005155Y007455D01*
X005155Y007553D02*
X014925Y007553D01*
X014925Y007652D02*
X005155Y007652D01*
X005155Y007750D02*
X014925Y007750D01*
X014925Y007849D02*
X005155Y007849D01*
X005155Y007947D02*
X014925Y007947D01*
X014925Y008046D02*
X005155Y008046D01*
X005155Y008144D02*
X014925Y008144D01*
X014925Y008243D02*
X005155Y008243D01*
X005155Y008341D02*
X014925Y008341D01*
X014925Y008440D02*
X005155Y008440D01*
X005155Y008539D02*
X014925Y008539D01*
X014925Y008637D02*
X005155Y008637D01*
X005155Y008736D02*
X014925Y008736D01*
X014925Y008834D02*
X005155Y008834D01*
X005155Y008933D02*
X014925Y008933D01*
X014925Y009031D02*
X005155Y009031D01*
X005155Y009130D02*
X014925Y009130D01*
X014925Y009228D02*
X005155Y009228D01*
X005155Y009327D02*
X014925Y009327D01*
X014925Y009425D02*
X005155Y009425D01*
X005155Y009524D02*
X014925Y009524D01*
X014925Y009623D02*
X005155Y009623D01*
X005155Y009721D02*
X014876Y009721D01*
X014835Y009820D02*
X005155Y009820D01*
X005155Y009918D02*
X014827Y009918D01*
X014846Y010017D02*
X005155Y010017D01*
X005155Y010115D02*
X014901Y010115D01*
X014925Y010214D02*
X005155Y010214D01*
X005155Y010312D02*
X014925Y010312D01*
X014925Y010411D02*
X005155Y010411D01*
X005155Y010509D02*
X014925Y010509D01*
X014925Y010608D02*
X005155Y010608D01*
X005155Y010707D02*
X014925Y010707D01*
X014925Y010805D02*
X005155Y010805D01*
X005155Y010904D02*
X014925Y010904D01*
X014925Y011002D02*
X005155Y011002D01*
X005155Y011101D02*
X014925Y011101D01*
X014925Y011199D02*
X005155Y011199D01*
X005155Y011298D02*
X014925Y011298D01*
X014925Y011396D02*
X005155Y011396D01*
X005155Y011495D02*
X014925Y011495D01*
X014925Y011593D02*
X005155Y011593D01*
X005155Y011692D02*
X014925Y011692D01*
X014925Y011791D02*
X005155Y011791D01*
X005155Y011889D02*
X013457Y011889D01*
X013369Y011988D02*
X005155Y011988D01*
X005155Y012086D02*
X013328Y012086D01*
X013327Y012185D02*
X005155Y012185D01*
X005155Y012283D02*
X013353Y012283D01*
X013417Y012382D02*
X005155Y012382D01*
X005155Y012480D02*
X013582Y012480D01*
X013754Y012579D02*
X005155Y012579D01*
X005155Y012677D02*
X013852Y012677D01*
X013951Y012776D02*
X005155Y012776D01*
X005155Y012874D02*
X014049Y012874D01*
X014148Y012973D02*
X005155Y012973D01*
X005155Y013072D02*
X014246Y013072D01*
X014345Y013170D02*
X005155Y013170D01*
X005155Y013269D02*
X014425Y013269D01*
X014425Y013367D02*
X005155Y013367D01*
X005155Y013466D02*
X014425Y013466D01*
X014425Y013564D02*
X005155Y013564D01*
X005155Y013663D02*
X014425Y013663D01*
X014425Y013761D02*
X005155Y013761D01*
X005155Y013860D02*
X014425Y013860D01*
X014425Y013958D02*
X005155Y013958D01*
X005155Y014057D02*
X014425Y014057D01*
X014425Y014156D02*
X005155Y014156D01*
X005155Y014254D02*
X014425Y014254D01*
X014425Y014353D02*
X005155Y014353D01*
X005155Y014451D02*
X014425Y014451D01*
X014425Y014550D02*
X005155Y014550D01*
X005155Y014648D02*
X014425Y014648D01*
X014425Y014747D02*
X005155Y014747D01*
X005155Y014845D02*
X014425Y014845D01*
X014425Y014944D02*
X005155Y014944D01*
X005155Y015042D02*
X014425Y015042D01*
X014425Y015141D02*
X005155Y015141D01*
X003879Y016422D02*
X014925Y016422D01*
X014925Y016324D02*
X003787Y016324D01*
X003801Y016333D02*
X003801Y016333D01*
X004127Y016709D01*
X004334Y017162D01*
X004405Y017655D01*
X004334Y018148D01*
X004334Y018148D01*
X004127Y018601D01*
X004127Y018601D01*
X003801Y018978D01*
X003382Y019247D01*
X002904Y019387D01*
X002406Y019387D01*
X001928Y019247D01*
X001509Y018978D01*
X001509Y018978D01*
X001509Y018978D01*
X001183Y018601D01*
X000976Y018148D01*
X000905Y017655D01*
X000976Y017162D01*
X001183Y016709D01*
X001509Y016333D01*
X001928Y016063D01*
X002406Y015923D01*
X002904Y015923D01*
X003382Y016063D01*
X003801Y016333D01*
X003801Y016333D01*
X003634Y016225D02*
X014925Y016225D01*
X014925Y016126D02*
X003480Y016126D01*
X003262Y016028D02*
X014925Y016028D01*
X014925Y015929D02*
X014845Y015929D01*
X014465Y015929D02*
X002926Y015929D01*
X002732Y015634D02*
X014327Y015634D01*
X014332Y015732D02*
X000805Y015732D01*
X000805Y015634D02*
X002478Y015634D01*
X002261Y015535D02*
X000805Y015535D01*
X000805Y015437D02*
X002162Y015437D01*
X002091Y015338D02*
X000805Y015338D01*
X000805Y015240D02*
X002050Y015240D01*
X002384Y015929D02*
X000805Y015929D01*
X000805Y015831D02*
X014372Y015831D01*
X014349Y015535D02*
X002950Y015535D01*
X003048Y015437D02*
X014409Y015437D01*
X014425Y015338D02*
X003119Y015338D01*
X003160Y015240D02*
X014425Y015240D01*
X014885Y015240D02*
X014925Y015240D01*
X014925Y015338D02*
X014885Y015338D01*
X014901Y015437D02*
X014909Y015437D01*
X014885Y015141D02*
X014925Y015141D01*
X014925Y015042D02*
X014885Y015042D01*
X014885Y014944D02*
X014925Y014944D01*
X014925Y014845D02*
X014885Y014845D01*
X014885Y014747D02*
X014925Y014747D01*
X014925Y014648D02*
X014885Y014648D01*
X014885Y014550D02*
X014925Y014550D01*
X014925Y014451D02*
X014885Y014451D01*
X014885Y014353D02*
X014925Y014353D01*
X014925Y014254D02*
X014885Y014254D01*
X014885Y014156D02*
X014925Y014156D01*
X014925Y014057D02*
X014885Y014057D01*
X014885Y013958D02*
X014925Y013958D01*
X014925Y013860D02*
X014885Y013860D01*
X014885Y013761D02*
X014925Y013761D01*
X014925Y013663D02*
X014885Y013663D01*
X014885Y013564D02*
X014925Y013564D01*
X014925Y013466D02*
X014885Y013466D01*
X014885Y013367D02*
X014925Y013367D01*
X014925Y013269D02*
X014885Y013269D01*
X014885Y013170D02*
X014925Y013170D01*
X014925Y013072D02*
X014885Y013072D01*
X014925Y012973D02*
X014798Y012973D01*
X014700Y012874D02*
X014925Y012874D01*
X014925Y012776D02*
X014601Y012776D01*
X014503Y012677D02*
X014925Y012677D01*
X014925Y012579D02*
X014404Y012579D01*
X014306Y012480D02*
X014925Y012480D01*
X014925Y012382D02*
X014207Y012382D01*
X014108Y012283D02*
X014925Y012283D01*
X014925Y012185D02*
X014010Y012185D01*
X013982Y012086D02*
X014925Y012086D01*
X014925Y011988D02*
X013941Y011988D01*
X013854Y011889D02*
X014925Y011889D01*
X015385Y011889D02*
X015425Y011889D01*
X015425Y011791D02*
X015385Y011791D01*
X015385Y011692D02*
X015425Y011692D01*
X015425Y011593D02*
X015385Y011593D01*
X015385Y011495D02*
X015425Y011495D01*
X015425Y011396D02*
X015385Y011396D01*
X015385Y011298D02*
X015425Y011298D01*
X015425Y011199D02*
X015385Y011199D01*
X015385Y011101D02*
X015425Y011101D01*
X015425Y011002D02*
X015385Y011002D01*
X015385Y010904D02*
X015425Y010904D01*
X015425Y010805D02*
X015385Y010805D01*
X015385Y010707D02*
X015425Y010707D01*
X015425Y010608D02*
X015385Y010608D01*
X015385Y010509D02*
X015425Y010509D01*
X015425Y010411D02*
X015385Y010411D01*
X015385Y010312D02*
X015425Y010312D01*
X015425Y010214D02*
X015385Y010214D01*
X015409Y010115D02*
X015425Y010115D01*
X015885Y010115D02*
X018512Y010115D01*
X018560Y010135D02*
X018383Y010062D01*
X018248Y009927D01*
X018175Y009751D01*
X018175Y009560D01*
X018248Y009383D01*
X018383Y009248D01*
X018560Y009175D01*
X018751Y009175D01*
X018927Y009248D01*
X019062Y009383D01*
X019135Y009560D01*
X019135Y009751D01*
X019062Y009927D01*
X018927Y010062D01*
X018751Y010135D01*
X018560Y010135D01*
X018560Y010175D02*
X018383Y010248D01*
X018248Y010383D01*
X018175Y010560D01*
X018175Y010751D01*
X018248Y010927D01*
X018383Y011062D01*
X018560Y011135D01*
X018751Y011135D01*
X018927Y011062D01*
X019062Y010927D01*
X019135Y010751D01*
X019135Y010560D01*
X019062Y010383D01*
X018927Y010248D01*
X018751Y010175D01*
X018560Y010175D01*
X018466Y010214D02*
X015885Y010214D01*
X015885Y010312D02*
X018319Y010312D01*
X018237Y010411D02*
X015885Y010411D01*
X015885Y010509D02*
X018196Y010509D01*
X018175Y010608D02*
X015885Y010608D01*
X015885Y010707D02*
X018175Y010707D01*
X018198Y010805D02*
X015885Y010805D01*
X015885Y010904D02*
X018239Y010904D01*
X018323Y011002D02*
X015885Y011002D01*
X015885Y011101D02*
X018477Y011101D01*
X018501Y011199D02*
X015885Y011199D01*
X015885Y011298D02*
X018334Y011298D01*
X018383Y011248D02*
X018560Y011175D01*
X018751Y011175D01*
X018927Y011248D01*
X019062Y011383D01*
X019135Y011560D01*
X019135Y011751D01*
X019062Y011927D01*
X018927Y012062D01*
X018751Y012135D01*
X018560Y012135D01*
X018383Y012062D01*
X018248Y011927D01*
X018175Y011751D01*
X018175Y011560D01*
X018248Y011383D01*
X018383Y011248D01*
X018243Y011396D02*
X015885Y011396D01*
X015885Y011495D02*
X018202Y011495D01*
X018175Y011593D02*
X015885Y011593D01*
X015885Y011692D02*
X018175Y011692D01*
X018192Y011791D02*
X015885Y011791D01*
X015885Y011889D02*
X018232Y011889D01*
X018309Y011988D02*
X015885Y011988D01*
X015885Y012086D02*
X018441Y012086D01*
X018536Y012185D02*
X015885Y012185D01*
X015885Y012283D02*
X018348Y012283D01*
X018383Y012248D02*
X018560Y012175D01*
X018751Y012175D01*
X018927Y012248D01*
X019062Y012383D01*
X019135Y012560D01*
X019135Y012751D01*
X019062Y012927D01*
X018927Y013062D01*
X018751Y013135D01*
X018560Y013135D01*
X018383Y013062D01*
X018248Y012927D01*
X018175Y012751D01*
X018175Y012560D01*
X018248Y012383D01*
X018383Y012248D01*
X018250Y012382D02*
X015885Y012382D01*
X015885Y012480D02*
X018208Y012480D01*
X018175Y012579D02*
X015885Y012579D01*
X015885Y012677D02*
X018175Y012677D01*
X018186Y012776D02*
X015885Y012776D01*
X015885Y012874D02*
X018226Y012874D01*
X018294Y012973D02*
X015885Y012973D01*
X015897Y013072D02*
X018406Y013072D01*
X018471Y013210D02*
X018543Y013187D01*
X018607Y013177D01*
X018607Y013606D01*
X018704Y013606D01*
X018704Y013177D01*
X018768Y013187D01*
X018839Y013210D01*
X018907Y013245D01*
X018968Y013289D01*
X019021Y013342D01*
X019066Y013404D01*
X019100Y013471D01*
X019123Y013543D01*
X019133Y013607D01*
X018704Y013607D01*
X018704Y013704D01*
X018607Y013704D01*
X018607Y014133D01*
X018543Y014123D01*
X018471Y014100D01*
X018404Y014066D01*
X018342Y014021D01*
X018289Y013968D01*
X018245Y013907D01*
X018210Y013839D01*
X018187Y013768D01*
X018177Y013704D01*
X018606Y013704D01*
X018606Y013607D01*
X018177Y013607D01*
X018187Y013543D01*
X018210Y013471D01*
X018245Y013404D01*
X018289Y013342D01*
X018342Y013289D01*
X018404Y013245D01*
X018471Y013210D01*
X018370Y013269D02*
X016094Y013269D01*
X016192Y013367D02*
X018271Y013367D01*
X018213Y013466D02*
X016291Y013466D01*
X016389Y013564D02*
X018184Y013564D01*
X018186Y013761D02*
X016587Y013761D01*
X016685Y013860D02*
X018221Y013860D01*
X018282Y013958D02*
X016784Y013958D01*
X016882Y014057D02*
X018392Y014057D01*
X018383Y014248D02*
X018248Y014383D01*
X018175Y014560D01*
X018175Y014751D01*
X018248Y014927D01*
X018383Y015062D01*
X018560Y015135D01*
X018751Y015135D01*
X018927Y015062D01*
X019062Y014927D01*
X019135Y014751D01*
X019135Y014560D01*
X019062Y014383D01*
X018927Y014248D01*
X018751Y014175D01*
X018560Y014175D01*
X018383Y014248D01*
X018377Y014254D02*
X017079Y014254D01*
X016981Y014156D02*
X019505Y014156D01*
X019505Y014254D02*
X018933Y014254D01*
X019031Y014353D02*
X019505Y014353D01*
X019505Y014451D02*
X019090Y014451D01*
X019131Y014550D02*
X019505Y014550D01*
X019505Y014648D02*
X019135Y014648D01*
X019135Y014747D02*
X019505Y014747D01*
X019505Y014845D02*
X019096Y014845D01*
X019045Y014944D02*
X019505Y014944D01*
X019505Y015042D02*
X018947Y015042D01*
X019505Y015141D02*
X017984Y015141D01*
X017976Y015240D02*
X019505Y015240D01*
X019505Y015338D02*
X017935Y015338D01*
X017834Y015437D02*
X019505Y015437D01*
X019505Y015535D02*
X015461Y015535D01*
X015484Y015634D02*
X019505Y015634D01*
X019505Y015732D02*
X015479Y015732D01*
X015438Y015831D02*
X019505Y015831D01*
X019505Y015929D02*
X017926Y015929D01*
X017904Y015923D02*
X018382Y016063D01*
X018801Y016333D01*
X019127Y016709D01*
X019334Y017162D01*
X019405Y017655D01*
X019334Y018148D01*
X019334Y018148D01*
X019127Y018601D01*
X019127Y018601D01*
X018801Y018978D01*
X018382Y019247D01*
X017904Y019387D01*
X017406Y019387D01*
X016928Y019247D01*
X016509Y018978D01*
X016509Y018978D01*
X016509Y018978D01*
X016183Y018601D01*
X015976Y018148D01*
X015905Y017655D01*
X015976Y017162D01*
X016183Y016709D01*
X016509Y016333D01*
X016928Y016063D01*
X016928Y016063D01*
X017406Y015923D01*
X017904Y015923D01*
X017904Y015923D01*
X018262Y016028D02*
X019505Y016028D01*
X019505Y016126D02*
X018480Y016126D01*
X018382Y016063D02*
X018382Y016063D01*
X018634Y016225D02*
X019505Y016225D01*
X019505Y016324D02*
X018787Y016324D01*
X018801Y016333D02*
X018801Y016333D01*
X018801Y016333D01*
X018879Y016422D02*
X019505Y016422D01*
X019505Y016521D02*
X018964Y016521D01*
X019049Y016619D02*
X019505Y016619D01*
X019505Y016718D02*
X019131Y016718D01*
X019127Y016709D02*
X019127Y016709D01*
X019176Y016816D02*
X019505Y016816D01*
X019505Y016915D02*
X019221Y016915D01*
X019266Y017013D02*
X019505Y017013D01*
X019505Y017112D02*
X019311Y017112D01*
X019334Y017162D02*
X019334Y017162D01*
X019341Y017210D02*
X019505Y017210D01*
X019505Y017309D02*
X019355Y017309D01*
X019369Y017407D02*
X019505Y017407D01*
X019505Y017506D02*
X019384Y017506D01*
X019398Y017605D02*
X019505Y017605D01*
X019502Y017703D02*
X019398Y017703D01*
X019384Y017802D02*
X019497Y017802D01*
X019485Y017900D02*
X019370Y017900D01*
X019356Y017999D02*
X019462Y017999D01*
X019440Y018097D02*
X019342Y018097D01*
X019312Y018196D02*
X019417Y018196D01*
X019388Y018294D02*
X019267Y018294D01*
X019222Y018393D02*
X019340Y018393D01*
X019293Y018491D02*
X019177Y018491D01*
X019132Y018590D02*
X019245Y018590D01*
X019182Y018689D02*
X019052Y018689D01*
X019104Y018787D02*
X018966Y018787D01*
X019025Y018886D02*
X018881Y018886D01*
X018937Y018984D02*
X018791Y018984D01*
X018801Y018978D02*
X018801Y018978D01*
X018813Y019083D02*
X018638Y019083D01*
X018690Y019181D02*
X018484Y019181D01*
X018518Y019280D02*
X018270Y019280D01*
X018314Y019378D02*
X017935Y019378D01*
X017904Y019387D02*
X017904Y019387D01*
X017935Y019477D02*
X002375Y019477D01*
X002406Y019387D02*
X002406Y019387D01*
X002376Y019378D02*
X001996Y019378D01*
X002040Y019280D02*
X001792Y019280D01*
X001826Y019181D02*
X001620Y019181D01*
X001673Y019083D02*
X001497Y019083D01*
X001519Y018984D02*
X001373Y018984D01*
X001429Y018886D02*
X001285Y018886D01*
X001344Y018787D02*
X001206Y018787D01*
X001259Y018689D02*
X001128Y018689D01*
X001183Y018601D02*
X001183Y018601D01*
X001178Y018590D02*
X001065Y018590D01*
X001017Y018491D02*
X001133Y018491D01*
X001088Y018393D02*
X000970Y018393D01*
X000922Y018294D02*
X001043Y018294D01*
X000998Y018196D02*
X000893Y018196D01*
X000976Y018148D02*
X000976Y018148D01*
X000969Y018097D02*
X000870Y018097D01*
X000848Y017999D02*
X000955Y017999D01*
X000940Y017900D02*
X000825Y017900D01*
X000813Y017802D02*
X000926Y017802D01*
X000912Y017703D02*
X000808Y017703D01*
X000805Y017605D02*
X000912Y017605D01*
X000905Y017655D02*
X000905Y017655D01*
X000927Y017506D02*
X000805Y017506D01*
X000805Y017407D02*
X000941Y017407D01*
X000955Y017309D02*
X000805Y017309D01*
X000805Y017210D02*
X000969Y017210D01*
X000976Y017162D02*
X000976Y017162D01*
X000999Y017112D02*
X000805Y017112D01*
X000805Y017013D02*
X001044Y017013D01*
X001089Y016915D02*
X000805Y016915D01*
X000805Y016816D02*
X001134Y016816D01*
X001179Y016718D02*
X000805Y016718D01*
X000805Y016619D02*
X001261Y016619D01*
X001183Y016709D02*
X001183Y016709D01*
X001346Y016521D02*
X000805Y016521D01*
X000805Y016422D02*
X001432Y016422D01*
X001509Y016333D02*
X001509Y016333D01*
X001523Y016324D02*
X000805Y016324D01*
X000805Y016225D02*
X001677Y016225D01*
X001830Y016126D02*
X000805Y016126D01*
X000805Y016028D02*
X002049Y016028D01*
X003964Y016521D02*
X014925Y016521D01*
X014925Y016619D02*
X004049Y016619D01*
X004127Y016709D02*
X004127Y016709D01*
X004131Y016718D02*
X014925Y016718D01*
X014925Y016816D02*
X004176Y016816D01*
X004221Y016915D02*
X014925Y016915D01*
X014925Y017013D02*
X010298Y017013D01*
X010288Y017003D02*
X010413Y017124D01*
X010417Y017298D01*
X010318Y017401D01*
X010415Y017498D01*
X010415Y017672D01*
X010415Y017922D01*
X010292Y018045D01*
X010172Y018165D01*
X009998Y018165D01*
X009628Y018165D01*
X009442Y018165D01*
X009268Y018165D01*
X009035Y017932D01*
X008935Y018032D01*
X008812Y018155D01*
X008572Y018155D01*
X008398Y018155D01*
X008205Y017962D01*
X008142Y018025D01*
X008022Y018145D01*
X007848Y018145D01*
X007608Y018145D01*
X007485Y018022D01*
X007365Y017902D01*
X007365Y017890D01*
X007110Y018145D01*
X006936Y018145D01*
X006813Y018022D01*
X006813Y018015D01*
X006813Y018015D01*
X006813Y017425D01*
X006696Y017425D01*
X006573Y017302D01*
X006573Y017128D01*
X006696Y017005D01*
X007355Y017005D01*
X007478Y017128D01*
X007478Y017136D01*
X007488Y017125D01*
X007608Y017005D01*
X007782Y017005D01*
X007848Y017005D01*
X008022Y017005D01*
X008155Y017138D01*
X008155Y017128D01*
X008278Y017005D01*
X008769Y017005D01*
X008770Y017004D01*
X008855Y017005D01*
X008942Y017005D01*
X008943Y017006D01*
X008944Y017006D01*
X009004Y017067D01*
X009065Y017128D01*
X009065Y017129D01*
X009066Y017130D01*
X009065Y017208D01*
X009074Y017199D01*
X009135Y017133D01*
X009135Y017128D01*
X009194Y017069D01*
X009250Y017009D01*
X009255Y017009D01*
X009258Y017005D01*
X009341Y017005D01*
X009424Y017002D01*
X009427Y017005D01*
X009508Y017005D01*
X009628Y017005D01*
X009802Y017005D01*
X009925Y017128D01*
X009925Y017204D01*
X010114Y017007D01*
X010288Y017003D01*
X010401Y017112D02*
X014925Y017112D01*
X014925Y017210D02*
X010415Y017210D01*
X010406Y017309D02*
X014925Y017309D01*
X014925Y017407D02*
X010324Y017407D01*
X010415Y017506D02*
X014925Y017506D01*
X014880Y017605D02*
X010415Y017605D01*
X010415Y017703D02*
X014782Y017703D01*
X014683Y017802D02*
X010415Y017802D01*
X010415Y017900D02*
X013946Y017900D01*
X013864Y017999D02*
X010338Y017999D01*
X010240Y018097D02*
X013827Y018097D01*
X013827Y018196D02*
X004312Y018196D01*
X004342Y018097D02*
X005955Y018097D01*
X005969Y018110D02*
X005907Y018052D01*
X005907Y018049D01*
X005905Y018047D01*
X005905Y017963D01*
X005903Y017878D01*
X005905Y017876D01*
X005905Y017795D01*
X005896Y017795D01*
X005773Y017672D01*
X005773Y017498D01*
X005896Y017375D01*
X005905Y017375D01*
X005905Y017128D01*
X006028Y017005D01*
X006202Y017005D01*
X006325Y017128D01*
X006325Y017375D01*
X006470Y017375D01*
X006555Y017373D01*
X006557Y017375D01*
X006560Y017375D01*
X006619Y017435D01*
X006680Y017493D01*
X006681Y017496D01*
X006683Y017498D01*
X006683Y017583D01*
X006685Y017667D01*
X006683Y017669D01*
X006683Y017672D01*
X006623Y017732D01*
X006325Y018044D01*
X006325Y018047D01*
X006266Y018106D01*
X006207Y018168D01*
X006204Y018168D01*
X006202Y018170D01*
X006118Y018170D01*
X006033Y018172D01*
X006031Y018170D01*
X006028Y018170D01*
X005969Y018110D01*
X005905Y017999D02*
X004356Y017999D01*
X004370Y017900D02*
X005904Y017900D01*
X005905Y017802D02*
X004384Y017802D01*
X004398Y017703D02*
X005804Y017703D01*
X005773Y017605D02*
X004398Y017605D01*
X004384Y017506D02*
X005773Y017506D01*
X005863Y017407D02*
X004369Y017407D01*
X004355Y017309D02*
X005905Y017309D01*
X005905Y017210D02*
X004341Y017210D01*
X004334Y017162D02*
X004334Y017162D01*
X004311Y017112D02*
X005921Y017112D01*
X006020Y017013D02*
X004266Y017013D01*
X004267Y018294D02*
X013857Y018294D01*
X013928Y018393D02*
X004222Y018393D01*
X004177Y018491D02*
X016133Y018491D01*
X016088Y018393D02*
X014382Y018393D01*
X014365Y017900D02*
X014585Y017900D01*
X014940Y018196D02*
X015998Y018196D01*
X015976Y018148D02*
X015976Y018148D01*
X015969Y018097D02*
X015038Y018097D01*
X015137Y017999D02*
X015955Y017999D01*
X015940Y017900D02*
X015235Y017900D01*
X015334Y017802D02*
X015926Y017802D01*
X015912Y017703D02*
X015385Y017703D01*
X015385Y017605D02*
X015912Y017605D01*
X015905Y017655D02*
X015905Y017655D01*
X015927Y017506D02*
X015385Y017506D01*
X015385Y017407D02*
X015941Y017407D01*
X015955Y017309D02*
X015385Y017309D01*
X015385Y017210D02*
X015969Y017210D01*
X015976Y017162D02*
X015976Y017162D01*
X015999Y017112D02*
X015385Y017112D01*
X015385Y017013D02*
X016044Y017013D01*
X016089Y016915D02*
X015385Y016915D01*
X015385Y016816D02*
X016134Y016816D01*
X016179Y016718D02*
X015385Y016718D01*
X015385Y016619D02*
X016261Y016619D01*
X016183Y016709D02*
X016183Y016709D01*
X016346Y016521D02*
X015385Y016521D01*
X015385Y016422D02*
X016432Y016422D01*
X016509Y016333D02*
X016509Y016333D01*
X016523Y016324D02*
X015385Y016324D01*
X015385Y016225D02*
X016677Y016225D01*
X016830Y016126D02*
X015385Y016126D01*
X015385Y016028D02*
X017049Y016028D01*
X017384Y015929D02*
X015385Y015929D01*
X015401Y015437D02*
X017477Y015437D01*
X017375Y015338D02*
X015385Y015338D01*
X015385Y015240D02*
X017335Y015240D01*
X017316Y015141D02*
X015385Y015141D01*
X015385Y015042D02*
X017217Y015042D01*
X017119Y014944D02*
X015385Y014944D01*
X015385Y014845D02*
X017020Y014845D01*
X016922Y014747D02*
X015385Y014747D01*
X015385Y014648D02*
X016823Y014648D01*
X016725Y014550D02*
X015385Y014550D01*
X015385Y014451D02*
X016626Y014451D01*
X016527Y014353D02*
X015385Y014353D01*
X015385Y014254D02*
X016429Y014254D01*
X016330Y014156D02*
X015385Y014156D01*
X015385Y014057D02*
X016232Y014057D01*
X016133Y013958D02*
X015385Y013958D01*
X015385Y013860D02*
X016035Y013860D01*
X015936Y013761D02*
X015385Y013761D01*
X015385Y013663D02*
X015838Y013663D01*
X015739Y013564D02*
X015385Y013564D01*
X015385Y013466D02*
X015641Y013466D01*
X015542Y013367D02*
X015385Y013367D01*
X015385Y013269D02*
X015443Y013269D01*
X015425Y013170D02*
X015385Y013170D01*
X015385Y013072D02*
X015425Y013072D01*
X015425Y012973D02*
X015385Y012973D01*
X015385Y012874D02*
X015425Y012874D01*
X015425Y012776D02*
X015385Y012776D01*
X015385Y012677D02*
X015425Y012677D01*
X015425Y012579D02*
X015385Y012579D01*
X015385Y012480D02*
X015425Y012480D01*
X015425Y012382D02*
X015385Y012382D01*
X015385Y012283D02*
X015425Y012283D01*
X015425Y012185D02*
X015385Y012185D01*
X015385Y012086D02*
X015425Y012086D01*
X015425Y011988D02*
X015385Y011988D01*
X015995Y013170D02*
X019505Y013170D01*
X019505Y013072D02*
X018904Y013072D01*
X019016Y012973D02*
X019505Y012973D01*
X019505Y012874D02*
X019084Y012874D01*
X019125Y012776D02*
X019505Y012776D01*
X019505Y012677D02*
X019135Y012677D01*
X019135Y012579D02*
X019505Y012579D01*
X019505Y012480D02*
X019102Y012480D01*
X019061Y012382D02*
X019505Y012382D01*
X019505Y012283D02*
X018962Y012283D01*
X018774Y012185D02*
X019505Y012185D01*
X019505Y012086D02*
X018869Y012086D01*
X019001Y011988D02*
X019505Y011988D01*
X019505Y011889D02*
X019078Y011889D01*
X019119Y011791D02*
X019505Y011791D01*
X019505Y011692D02*
X019135Y011692D01*
X019135Y011593D02*
X019505Y011593D01*
X019505Y011495D02*
X019108Y011495D01*
X019067Y011396D02*
X019505Y011396D01*
X019505Y011298D02*
X018977Y011298D01*
X018809Y011199D02*
X019505Y011199D01*
X019505Y011101D02*
X018834Y011101D01*
X018987Y011002D02*
X019505Y011002D01*
X019505Y010904D02*
X019072Y010904D01*
X019113Y010805D02*
X019505Y010805D01*
X019505Y010707D02*
X019135Y010707D01*
X019135Y010608D02*
X019505Y010608D01*
X019505Y010509D02*
X019114Y010509D01*
X019073Y010411D02*
X019505Y010411D01*
X019505Y010312D02*
X018991Y010312D01*
X018844Y010214D02*
X019505Y010214D01*
X019505Y010115D02*
X018798Y010115D01*
X018972Y010017D02*
X019505Y010017D01*
X019505Y009918D02*
X019066Y009918D01*
X019106Y009820D02*
X019505Y009820D01*
X019505Y009721D02*
X019135Y009721D01*
X019135Y009623D02*
X019505Y009623D01*
X019505Y009524D02*
X019120Y009524D01*
X019079Y009425D02*
X019505Y009425D01*
X019505Y009327D02*
X019006Y009327D01*
X018879Y009228D02*
X019505Y009228D01*
X019505Y009130D02*
X018763Y009130D01*
X018751Y009135D02*
X018560Y009135D01*
X018383Y009062D01*
X018248Y008927D01*
X018175Y008751D01*
X018175Y008560D01*
X018248Y008383D01*
X018383Y008248D01*
X018560Y008175D01*
X018751Y008175D01*
X018927Y008248D01*
X019062Y008383D01*
X019135Y008560D01*
X019135Y008751D01*
X019062Y008927D01*
X018927Y009062D01*
X018751Y009135D01*
X018547Y009130D02*
X015885Y009130D01*
X015885Y009228D02*
X018431Y009228D01*
X018304Y009327D02*
X015885Y009327D01*
X015885Y009425D02*
X018231Y009425D01*
X018190Y009524D02*
X015885Y009524D01*
X015885Y009623D02*
X018175Y009623D01*
X018175Y009721D02*
X015885Y009721D01*
X015885Y009820D02*
X018204Y009820D01*
X018245Y009918D02*
X015885Y009918D01*
X015885Y010017D02*
X018338Y010017D01*
X018352Y009031D02*
X015885Y009031D01*
X015885Y008933D02*
X018254Y008933D01*
X018210Y008834D02*
X015885Y008834D01*
X015885Y008736D02*
X018175Y008736D01*
X018175Y008637D02*
X015885Y008637D01*
X015885Y008539D02*
X018184Y008539D01*
X018225Y008440D02*
X015885Y008440D01*
X015885Y008341D02*
X018290Y008341D01*
X018396Y008243D02*
X015885Y008243D01*
X015885Y007159D02*
X019505Y007159D01*
X019505Y008243D02*
X018914Y008243D01*
X019020Y008341D02*
X019505Y008341D01*
X019505Y008440D02*
X019086Y008440D01*
X019126Y008539D02*
X019505Y008539D01*
X019505Y008637D02*
X019135Y008637D01*
X019135Y008736D02*
X019505Y008736D01*
X019505Y008834D02*
X019100Y008834D01*
X019056Y008933D02*
X019505Y008933D01*
X019505Y009031D02*
X018958Y009031D01*
X014925Y005188D02*
X005155Y005188D01*
X003020Y005090D02*
X014925Y005090D01*
X014925Y004991D02*
X002870Y004991D01*
X002340Y004991D02*
X000805Y004991D01*
X000805Y004892D02*
X014925Y004892D01*
X014925Y004794D02*
X000805Y004794D01*
X000805Y004695D02*
X014925Y004695D01*
X014925Y004597D02*
X000805Y004597D01*
X000805Y004498D02*
X014925Y004498D01*
X014925Y004400D02*
X000805Y004400D01*
X000805Y005090D02*
X002190Y005090D01*
X004381Y002823D02*
X015929Y002823D01*
X015915Y002725D02*
X007079Y002725D01*
X007089Y002720D02*
X006994Y002760D01*
X006891Y002760D01*
X006796Y002720D01*
X006724Y002648D01*
X006684Y002553D01*
X006684Y002450D01*
X006724Y002355D01*
X006796Y002283D01*
X006891Y002243D01*
X006994Y002243D01*
X007089Y002283D01*
X007161Y002355D01*
X007201Y002450D01*
X007201Y002553D01*
X007161Y002648D01*
X007089Y002720D01*
X007171Y002626D02*
X015909Y002626D01*
X015905Y002655D02*
X015905Y002655D01*
X015923Y002527D02*
X007201Y002527D01*
X007192Y002429D02*
X015938Y002429D01*
X015952Y002330D02*
X007136Y002330D01*
X007163Y002091D02*
X007096Y002069D01*
X007033Y002037D01*
X006976Y001996D01*
X006926Y001946D01*
X006885Y001889D01*
X006853Y001827D01*
X006831Y001760D01*
X006823Y001704D01*
X007219Y001704D01*
X007219Y002100D01*
X007163Y002091D01*
X007219Y002035D02*
X007316Y002035D01*
X007316Y002100D02*
X007372Y002091D01*
X007439Y002069D01*
X007501Y002037D01*
X007558Y001996D01*
X007608Y001946D01*
X007649Y001889D01*
X007681Y001827D01*
X007703Y001760D01*
X007712Y001704D01*
X007316Y001704D01*
X007219Y001704D01*
X007219Y001607D01*
X006823Y001607D01*
X006831Y001550D01*
X006853Y001484D01*
X006885Y001421D01*
X006926Y001364D01*
X006976Y001314D01*
X007033Y001273D01*
X007096Y001241D01*
X007163Y001219D01*
X007219Y001210D01*
X007219Y001606D01*
X007316Y001606D01*
X007316Y001210D01*
X007372Y001219D01*
X007439Y001241D01*
X007501Y001273D01*
X007558Y001314D01*
X007608Y001364D01*
X007649Y001421D01*
X007681Y001484D01*
X007703Y001550D01*
X007712Y001607D01*
X007316Y001607D01*
X007316Y001704D01*
X007316Y002100D01*
X007316Y001936D02*
X007219Y001936D01*
X007219Y001838D02*
X007316Y001838D01*
X007316Y001739D02*
X007219Y001739D01*
X007219Y001641D02*
X005092Y001641D01*
X005092Y001607D02*
X005092Y001704D01*
X005488Y001704D01*
X005479Y001760D01*
X005457Y001827D01*
X005425Y001889D01*
X005384Y001946D01*
X005334Y001996D01*
X005277Y002037D01*
X005214Y002069D01*
X005148Y002091D01*
X005091Y002100D01*
X005091Y001704D01*
X004994Y001704D01*
X004994Y002100D01*
X004938Y002091D01*
X004871Y002069D01*
X004809Y002037D01*
X004752Y001996D01*
X004702Y001946D01*
X004661Y001889D01*
X004629Y001827D01*
X004607Y001760D01*
X004598Y001704D01*
X004994Y001704D01*
X004994Y001607D01*
X004598Y001607D01*
X004607Y001550D01*
X004629Y001484D01*
X004661Y001421D01*
X004702Y001364D01*
X004752Y001314D01*
X004809Y001273D01*
X004871Y001241D01*
X004938Y001219D01*
X004994Y001210D01*
X004994Y001606D01*
X005091Y001606D01*
X005091Y001210D01*
X005148Y001219D01*
X005214Y001241D01*
X005277Y001273D01*
X005334Y001314D01*
X005384Y001364D01*
X005425Y001421D01*
X005457Y001484D01*
X005479Y001550D01*
X005488Y001607D01*
X005092Y001607D01*
X005091Y001542D02*
X004994Y001542D01*
X004994Y001443D02*
X005091Y001443D01*
X005091Y001345D02*
X004994Y001345D01*
X004994Y001246D02*
X005091Y001246D01*
X005225Y001246D02*
X007085Y001246D01*
X007219Y001246D02*
X007316Y001246D01*
X007316Y001345D02*
X007219Y001345D01*
X007219Y001443D02*
X007316Y001443D01*
X007316Y001542D02*
X007219Y001542D01*
X007316Y001641D02*
X016242Y001641D01*
X016183Y001709D02*
X016183Y001709D01*
X016169Y001739D02*
X007706Y001739D01*
X007676Y001838D02*
X016124Y001838D01*
X016079Y001936D02*
X007615Y001936D01*
X007505Y002035D02*
X016034Y002035D01*
X015989Y002133D02*
X004321Y002133D01*
X004334Y002162D02*
X004334Y002162D01*
X004344Y002232D02*
X015966Y002232D01*
X015976Y002162D02*
X015976Y002162D01*
X016328Y001542D02*
X007700Y001542D01*
X007661Y001443D02*
X016413Y001443D01*
X016498Y001345D02*
X007589Y001345D01*
X007449Y001246D02*
X016643Y001246D01*
X016509Y001333D02*
X016509Y001333D01*
X016797Y001148D02*
X003514Y001148D01*
X003382Y001063D02*
X003382Y001063D01*
X003334Y001049D02*
X016976Y001049D01*
X017311Y000951D02*
X002999Y000951D01*
X002406Y000923D02*
X002406Y000923D01*
X002311Y000951D02*
X001957Y000951D01*
X001976Y001049D02*
X001753Y001049D01*
X001797Y001148D02*
X001597Y001148D01*
X001643Y001246D02*
X001473Y001246D01*
X001509Y001333D02*
X001509Y001333D01*
X001498Y001345D02*
X001349Y001345D01*
X001413Y001443D02*
X001270Y001443D01*
X001328Y001542D02*
X001191Y001542D01*
X002292Y000852D02*
X018018Y000852D01*
X017999Y000951D02*
X018353Y000951D01*
X018334Y001049D02*
X018558Y001049D01*
X018514Y001148D02*
X018714Y001148D01*
X018667Y001246D02*
X018837Y001246D01*
X018801Y001333D02*
X018801Y001333D01*
X018801Y001333D01*
X018812Y001345D02*
X018961Y001345D01*
X018897Y001443D02*
X019040Y001443D01*
X018983Y001542D02*
X019119Y001542D01*
X019068Y001641D02*
X019197Y001641D01*
X019127Y001709D02*
X019127Y001709D01*
X019141Y001739D02*
X019254Y001739D01*
X019302Y001838D02*
X019186Y001838D01*
X019231Y001936D02*
X019349Y001936D01*
X019397Y002035D02*
X019276Y002035D01*
X019321Y002133D02*
X019422Y002133D01*
X019334Y002162D02*
X019334Y002162D01*
X019344Y002232D02*
X019444Y002232D01*
X019467Y002330D02*
X019358Y002330D01*
X019373Y002429D02*
X019489Y002429D01*
X019498Y002527D02*
X019387Y002527D01*
X019401Y002626D02*
X019504Y002626D01*
X019505Y002725D02*
X019395Y002725D01*
X019381Y002823D02*
X019505Y002823D01*
X019505Y002922D02*
X019367Y002922D01*
X019353Y003020D02*
X019505Y003020D01*
X019505Y003119D02*
X019338Y003119D01*
X019303Y003217D02*
X019505Y003217D01*
X019505Y003316D02*
X019258Y003316D01*
X019213Y003414D02*
X019505Y003414D01*
X019505Y003513D02*
X019168Y003513D01*
X019127Y003601D02*
X019127Y003601D01*
X019118Y003611D02*
X019505Y003611D01*
X019505Y003710D02*
X019033Y003710D01*
X018948Y003809D02*
X019505Y003809D01*
X019505Y003907D02*
X018862Y003907D01*
X018758Y004006D02*
X019505Y004006D01*
X019505Y004104D02*
X018604Y004104D01*
X018451Y004203D02*
X019505Y004203D01*
X019505Y004301D02*
X018197Y004301D01*
X017406Y004387D02*
X017406Y004387D01*
X018382Y001063D02*
X018382Y001063D01*
X017406Y000923D02*
X017406Y000923D01*
X007030Y002035D02*
X005281Y002035D01*
X005391Y001936D02*
X006919Y001936D01*
X006859Y001838D02*
X005451Y001838D01*
X005482Y001739D02*
X006828Y001739D01*
X006834Y001542D02*
X005476Y001542D01*
X005437Y001443D02*
X006874Y001443D01*
X006946Y001345D02*
X005365Y001345D01*
X004994Y001641D02*
X004068Y001641D01*
X004127Y001709D02*
X004127Y001709D01*
X004141Y001739D02*
X004604Y001739D01*
X004634Y001838D02*
X004186Y001838D01*
X004231Y001936D02*
X004695Y001936D01*
X004805Y002035D02*
X004276Y002035D01*
X004358Y002330D02*
X005174Y002330D01*
X005149Y002355D02*
X005221Y002283D01*
X005316Y002243D01*
X005419Y002243D01*
X005514Y002283D01*
X005587Y002355D01*
X005626Y002450D01*
X005626Y002553D01*
X005587Y002648D01*
X005514Y002720D01*
X005419Y002760D01*
X005316Y002760D01*
X005221Y002720D01*
X005149Y002648D01*
X005109Y002553D01*
X005109Y002450D01*
X005149Y002355D01*
X005118Y002429D02*
X004373Y002429D01*
X004387Y002527D02*
X005109Y002527D01*
X005140Y002626D02*
X004401Y002626D01*
X004395Y002725D02*
X005231Y002725D01*
X005504Y002725D02*
X006806Y002725D01*
X006715Y002626D02*
X005596Y002626D01*
X005626Y002527D02*
X006684Y002527D01*
X006693Y002429D02*
X005617Y002429D01*
X005562Y002330D02*
X006749Y002330D01*
X005091Y002035D02*
X004994Y002035D01*
X004994Y001936D02*
X005091Y001936D01*
X005091Y001838D02*
X004994Y001838D01*
X004994Y001739D02*
X005091Y001739D01*
X004721Y001345D02*
X003812Y001345D01*
X003801Y001333D02*
X003801Y001333D01*
X003801Y001333D01*
X003897Y001443D02*
X004649Y001443D01*
X004610Y001542D02*
X003983Y001542D01*
X003667Y001246D02*
X004861Y001246D01*
X016488Y013663D02*
X018606Y013663D01*
X018704Y013663D02*
X019505Y013663D01*
X019505Y013761D02*
X019124Y013761D01*
X019123Y013768D02*
X019100Y013839D01*
X019066Y013907D01*
X019021Y013968D01*
X018968Y014021D01*
X018907Y014066D01*
X018839Y014100D01*
X018768Y014123D01*
X018704Y014133D01*
X018704Y013704D01*
X019133Y013704D01*
X019123Y013768D01*
X019089Y013860D02*
X019505Y013860D01*
X019505Y013958D02*
X019028Y013958D01*
X018919Y014057D02*
X019505Y014057D01*
X019505Y013564D02*
X019127Y013564D01*
X019097Y013466D02*
X019505Y013466D01*
X019505Y013367D02*
X019039Y013367D01*
X018940Y013269D02*
X019505Y013269D01*
X018704Y013269D02*
X018607Y013269D01*
X018607Y013367D02*
X018704Y013367D01*
X018704Y013466D02*
X018607Y013466D01*
X018607Y013564D02*
X018704Y013564D01*
X018704Y013761D02*
X018607Y013761D01*
X018607Y013860D02*
X018704Y013860D01*
X018704Y013958D02*
X018607Y013958D01*
X018607Y014057D02*
X018704Y014057D01*
X018279Y014353D02*
X017178Y014353D01*
X017276Y014451D02*
X018220Y014451D01*
X018179Y014550D02*
X017375Y014550D01*
X017473Y014648D02*
X018175Y014648D01*
X018175Y014747D02*
X017572Y014747D01*
X017765Y014845D02*
X018214Y014845D01*
X018265Y014944D02*
X017908Y014944D01*
X017964Y015042D02*
X018364Y015042D01*
X017406Y015923D02*
X017406Y015923D01*
X016043Y018294D02*
X014841Y018294D01*
X016178Y018590D02*
X004132Y018590D01*
X004052Y018689D02*
X016259Y018689D01*
X016183Y018601D02*
X016183Y018601D01*
X016344Y018787D02*
X003966Y018787D01*
X003881Y018886D02*
X016429Y018886D01*
X016519Y018984D02*
X003791Y018984D01*
X003801Y018978D02*
X003801Y018978D01*
X003638Y019083D02*
X016673Y019083D01*
X016826Y019181D02*
X003484Y019181D01*
X003382Y019247D02*
X003382Y019247D01*
X003270Y019280D02*
X017040Y019280D01*
X016928Y019247D02*
X016928Y019247D01*
X017376Y019378D02*
X002935Y019378D01*
X002904Y019387D02*
X002904Y019387D01*
X001928Y019247D02*
X001928Y019247D01*
X006275Y018097D02*
X006888Y018097D01*
X006813Y017999D02*
X006368Y017999D01*
X006462Y017900D02*
X006813Y017900D01*
X006813Y017802D02*
X006556Y017802D01*
X006652Y017703D02*
X006813Y017703D01*
X006813Y017605D02*
X006683Y017605D01*
X006683Y017506D02*
X006813Y017506D01*
X006678Y017407D02*
X006592Y017407D01*
X006579Y017309D02*
X006325Y017309D01*
X006325Y017210D02*
X006573Y017210D01*
X006589Y017112D02*
X006309Y017112D01*
X006210Y017013D02*
X006687Y017013D01*
X007363Y017013D02*
X007600Y017013D01*
X007501Y017112D02*
X007461Y017112D01*
X008030Y017013D02*
X008270Y017013D01*
X008171Y017112D02*
X008129Y017112D01*
X008951Y017013D02*
X009246Y017013D01*
X009151Y017112D02*
X009049Y017112D01*
X009810Y017013D02*
X010108Y017013D01*
X010013Y017112D02*
X009909Y017112D01*
X009102Y017999D02*
X008968Y017999D01*
X008870Y018097D02*
X009200Y018097D01*
X008340Y018097D02*
X008070Y018097D01*
X008168Y017999D02*
X008242Y017999D01*
X007560Y018097D02*
X007157Y018097D01*
X007256Y017999D02*
X007462Y017999D01*
X007365Y017900D02*
X007354Y017900D01*
X017406Y019387D02*
X017406Y019387D01*
X018382Y019247D02*
X018382Y019247D01*
D16*
X015155Y015655D03*
X014655Y015655D03*
X014155Y018155D03*
X014655Y018655D03*
X013155Y018655D03*
X011155Y018655D03*
X009155Y018655D03*
X007155Y018655D03*
X005155Y018655D03*
X013655Y012155D03*
X015155Y009905D03*
X014655Y008655D03*
X014155Y008655D03*
X013655Y008655D03*
X010155Y004155D03*
X010155Y003155D03*
X009155Y004155D03*
X008155Y004155D03*
X008155Y003155D03*
X007155Y003155D03*
X007155Y004155D03*
X014655Y001655D03*
X015655Y001655D03*
X015655Y003155D03*
X015155Y003155D03*
X017655Y015155D03*
D17*
X015655Y013155D01*
X015655Y003155D01*
X015155Y003155D02*
X015155Y009905D01*
X015155Y015655D01*
X015155Y017655D01*
X014655Y018155D01*
X014155Y018155D01*
X014655Y015655D02*
X014655Y013155D01*
X013655Y012155D01*
M02*
