G75*
G70*
%OFA0B0*%
%FSLAX24Y24*%
%IPPOS*%
%LPD*%
%AMOC8*
5,1,8,0,0,1.08239X$1,22.5*
%
%ADD10C,0.0000*%
%ADD11C,0.0012*%
%ADD12C,0.0020*%
%ADD13C,0.0469*%
%ADD14C,0.0021*%
%ADD15C,0.0945*%
%ADD16R,0.0787X0.0591*%
%ADD17R,0.0787X0.1496*%
%ADD18R,0.0551X0.0866*%
%ADD19R,0.0394X0.0433*%
%ADD20R,0.0157X0.0886*%
%ADD21C,0.0594*%
%ADD22R,0.0748X0.0748*%
%ADD23C,0.0660*%
%ADD24R,0.0433X0.0394*%
%ADD25R,0.0551X0.0394*%
%ADD26C,0.0100*%
%ADD27C,0.0357*%
%ADD28C,0.0160*%
D10*
X000655Y002655D02*
X000655Y017655D01*
X002025Y017655D02*
X002027Y017705D01*
X002033Y017755D01*
X002043Y017804D01*
X002057Y017852D01*
X002074Y017899D01*
X002095Y017944D01*
X002120Y017988D01*
X002148Y018029D01*
X002180Y018068D01*
X002214Y018105D01*
X002251Y018139D01*
X002291Y018169D01*
X002333Y018196D01*
X002377Y018220D01*
X002423Y018241D01*
X002470Y018257D01*
X002518Y018270D01*
X002568Y018279D01*
X002617Y018284D01*
X002668Y018285D01*
X002718Y018282D01*
X002767Y018275D01*
X002816Y018264D01*
X002864Y018249D01*
X002910Y018231D01*
X002955Y018209D01*
X002998Y018183D01*
X003039Y018154D01*
X003078Y018122D01*
X003114Y018087D01*
X003146Y018049D01*
X003176Y018009D01*
X003203Y017966D01*
X003226Y017922D01*
X003245Y017876D01*
X003261Y017828D01*
X003273Y017779D01*
X003281Y017730D01*
X003285Y017680D01*
X003285Y017630D01*
X003281Y017580D01*
X003273Y017531D01*
X003261Y017482D01*
X003245Y017434D01*
X003226Y017388D01*
X003203Y017344D01*
X003176Y017301D01*
X003146Y017261D01*
X003114Y017223D01*
X003078Y017188D01*
X003039Y017156D01*
X002998Y017127D01*
X002955Y017101D01*
X002910Y017079D01*
X002864Y017061D01*
X002816Y017046D01*
X002767Y017035D01*
X002718Y017028D01*
X002668Y017025D01*
X002617Y017026D01*
X002568Y017031D01*
X002518Y017040D01*
X002470Y017053D01*
X002423Y017069D01*
X002377Y017090D01*
X002333Y017114D01*
X002291Y017141D01*
X002251Y017171D01*
X002214Y017205D01*
X002180Y017242D01*
X002148Y017281D01*
X002120Y017322D01*
X002095Y017366D01*
X002074Y017411D01*
X002057Y017458D01*
X002043Y017506D01*
X002033Y017555D01*
X002027Y017605D01*
X002025Y017655D01*
X000655Y017655D02*
X000657Y017750D01*
X000664Y017845D01*
X000675Y017940D01*
X000691Y018034D01*
X000711Y018127D01*
X000736Y018218D01*
X000765Y018309D01*
X000798Y018398D01*
X000836Y018486D01*
X000877Y018571D01*
X000923Y018655D01*
X000972Y018736D01*
X001026Y018815D01*
X001083Y018891D01*
X001144Y018965D01*
X001208Y019035D01*
X001275Y019102D01*
X001345Y019166D01*
X001419Y019227D01*
X001495Y019284D01*
X001574Y019338D01*
X001655Y019387D01*
X001739Y019433D01*
X001824Y019474D01*
X001912Y019512D01*
X002001Y019545D01*
X002092Y019574D01*
X002183Y019599D01*
X002276Y019619D01*
X002370Y019635D01*
X002465Y019646D01*
X002560Y019653D01*
X002655Y019655D01*
X017655Y019655D01*
X017025Y017655D02*
X017027Y017705D01*
X017033Y017755D01*
X017043Y017804D01*
X017057Y017852D01*
X017074Y017899D01*
X017095Y017944D01*
X017120Y017988D01*
X017148Y018029D01*
X017180Y018068D01*
X017214Y018105D01*
X017251Y018139D01*
X017291Y018169D01*
X017333Y018196D01*
X017377Y018220D01*
X017423Y018241D01*
X017470Y018257D01*
X017518Y018270D01*
X017568Y018279D01*
X017617Y018284D01*
X017668Y018285D01*
X017718Y018282D01*
X017767Y018275D01*
X017816Y018264D01*
X017864Y018249D01*
X017910Y018231D01*
X017955Y018209D01*
X017998Y018183D01*
X018039Y018154D01*
X018078Y018122D01*
X018114Y018087D01*
X018146Y018049D01*
X018176Y018009D01*
X018203Y017966D01*
X018226Y017922D01*
X018245Y017876D01*
X018261Y017828D01*
X018273Y017779D01*
X018281Y017730D01*
X018285Y017680D01*
X018285Y017630D01*
X018281Y017580D01*
X018273Y017531D01*
X018261Y017482D01*
X018245Y017434D01*
X018226Y017388D01*
X018203Y017344D01*
X018176Y017301D01*
X018146Y017261D01*
X018114Y017223D01*
X018078Y017188D01*
X018039Y017156D01*
X017998Y017127D01*
X017955Y017101D01*
X017910Y017079D01*
X017864Y017061D01*
X017816Y017046D01*
X017767Y017035D01*
X017718Y017028D01*
X017668Y017025D01*
X017617Y017026D01*
X017568Y017031D01*
X017518Y017040D01*
X017470Y017053D01*
X017423Y017069D01*
X017377Y017090D01*
X017333Y017114D01*
X017291Y017141D01*
X017251Y017171D01*
X017214Y017205D01*
X017180Y017242D01*
X017148Y017281D01*
X017120Y017322D01*
X017095Y017366D01*
X017074Y017411D01*
X017057Y017458D01*
X017043Y017506D01*
X017033Y017555D01*
X017027Y017605D01*
X017025Y017655D01*
X017655Y019655D02*
X017750Y019653D01*
X017845Y019646D01*
X017940Y019635D01*
X018034Y019619D01*
X018127Y019599D01*
X018218Y019574D01*
X018309Y019545D01*
X018398Y019512D01*
X018486Y019474D01*
X018571Y019433D01*
X018655Y019387D01*
X018736Y019338D01*
X018815Y019284D01*
X018891Y019227D01*
X018965Y019166D01*
X019035Y019102D01*
X019102Y019035D01*
X019166Y018965D01*
X019227Y018891D01*
X019284Y018815D01*
X019338Y018736D01*
X019387Y018655D01*
X019433Y018571D01*
X019474Y018486D01*
X019512Y018398D01*
X019545Y018309D01*
X019574Y018218D01*
X019599Y018127D01*
X019619Y018034D01*
X019635Y017940D01*
X019646Y017845D01*
X019653Y017750D01*
X019655Y017655D01*
X019655Y002655D01*
X017025Y002655D02*
X017027Y002705D01*
X017033Y002755D01*
X017043Y002804D01*
X017057Y002852D01*
X017074Y002899D01*
X017095Y002944D01*
X017120Y002988D01*
X017148Y003029D01*
X017180Y003068D01*
X017214Y003105D01*
X017251Y003139D01*
X017291Y003169D01*
X017333Y003196D01*
X017377Y003220D01*
X017423Y003241D01*
X017470Y003257D01*
X017518Y003270D01*
X017568Y003279D01*
X017617Y003284D01*
X017668Y003285D01*
X017718Y003282D01*
X017767Y003275D01*
X017816Y003264D01*
X017864Y003249D01*
X017910Y003231D01*
X017955Y003209D01*
X017998Y003183D01*
X018039Y003154D01*
X018078Y003122D01*
X018114Y003087D01*
X018146Y003049D01*
X018176Y003009D01*
X018203Y002966D01*
X018226Y002922D01*
X018245Y002876D01*
X018261Y002828D01*
X018273Y002779D01*
X018281Y002730D01*
X018285Y002680D01*
X018285Y002630D01*
X018281Y002580D01*
X018273Y002531D01*
X018261Y002482D01*
X018245Y002434D01*
X018226Y002388D01*
X018203Y002344D01*
X018176Y002301D01*
X018146Y002261D01*
X018114Y002223D01*
X018078Y002188D01*
X018039Y002156D01*
X017998Y002127D01*
X017955Y002101D01*
X017910Y002079D01*
X017864Y002061D01*
X017816Y002046D01*
X017767Y002035D01*
X017718Y002028D01*
X017668Y002025D01*
X017617Y002026D01*
X017568Y002031D01*
X017518Y002040D01*
X017470Y002053D01*
X017423Y002069D01*
X017377Y002090D01*
X017333Y002114D01*
X017291Y002141D01*
X017251Y002171D01*
X017214Y002205D01*
X017180Y002242D01*
X017148Y002281D01*
X017120Y002322D01*
X017095Y002366D01*
X017074Y002411D01*
X017057Y002458D01*
X017043Y002506D01*
X017033Y002555D01*
X017027Y002605D01*
X017025Y002655D01*
X017655Y000655D02*
X017750Y000657D01*
X017845Y000664D01*
X017940Y000675D01*
X018034Y000691D01*
X018127Y000711D01*
X018218Y000736D01*
X018309Y000765D01*
X018398Y000798D01*
X018486Y000836D01*
X018571Y000877D01*
X018655Y000923D01*
X018736Y000972D01*
X018815Y001026D01*
X018891Y001083D01*
X018965Y001144D01*
X019035Y001208D01*
X019102Y001275D01*
X019166Y001345D01*
X019227Y001419D01*
X019284Y001495D01*
X019338Y001574D01*
X019387Y001655D01*
X019433Y001739D01*
X019474Y001824D01*
X019512Y001912D01*
X019545Y002001D01*
X019574Y002092D01*
X019599Y002183D01*
X019619Y002276D01*
X019635Y002370D01*
X019646Y002465D01*
X019653Y002560D01*
X019655Y002655D01*
X017655Y000655D02*
X002655Y000655D01*
X002025Y002655D02*
X002027Y002705D01*
X002033Y002755D01*
X002043Y002804D01*
X002057Y002852D01*
X002074Y002899D01*
X002095Y002944D01*
X002120Y002988D01*
X002148Y003029D01*
X002180Y003068D01*
X002214Y003105D01*
X002251Y003139D01*
X002291Y003169D01*
X002333Y003196D01*
X002377Y003220D01*
X002423Y003241D01*
X002470Y003257D01*
X002518Y003270D01*
X002568Y003279D01*
X002617Y003284D01*
X002668Y003285D01*
X002718Y003282D01*
X002767Y003275D01*
X002816Y003264D01*
X002864Y003249D01*
X002910Y003231D01*
X002955Y003209D01*
X002998Y003183D01*
X003039Y003154D01*
X003078Y003122D01*
X003114Y003087D01*
X003146Y003049D01*
X003176Y003009D01*
X003203Y002966D01*
X003226Y002922D01*
X003245Y002876D01*
X003261Y002828D01*
X003273Y002779D01*
X003281Y002730D01*
X003285Y002680D01*
X003285Y002630D01*
X003281Y002580D01*
X003273Y002531D01*
X003261Y002482D01*
X003245Y002434D01*
X003226Y002388D01*
X003203Y002344D01*
X003176Y002301D01*
X003146Y002261D01*
X003114Y002223D01*
X003078Y002188D01*
X003039Y002156D01*
X002998Y002127D01*
X002955Y002101D01*
X002910Y002079D01*
X002864Y002061D01*
X002816Y002046D01*
X002767Y002035D01*
X002718Y002028D01*
X002668Y002025D01*
X002617Y002026D01*
X002568Y002031D01*
X002518Y002040D01*
X002470Y002053D01*
X002423Y002069D01*
X002377Y002090D01*
X002333Y002114D01*
X002291Y002141D01*
X002251Y002171D01*
X002214Y002205D01*
X002180Y002242D01*
X002148Y002281D01*
X002120Y002322D01*
X002095Y002366D01*
X002074Y002411D01*
X002057Y002458D01*
X002043Y002506D01*
X002033Y002555D01*
X002027Y002605D01*
X002025Y002655D01*
X000655Y002655D02*
X000657Y002560D01*
X000664Y002465D01*
X000675Y002370D01*
X000691Y002276D01*
X000711Y002183D01*
X000736Y002092D01*
X000765Y002001D01*
X000798Y001912D01*
X000836Y001824D01*
X000877Y001739D01*
X000923Y001655D01*
X000972Y001574D01*
X001026Y001495D01*
X001083Y001419D01*
X001144Y001345D01*
X001208Y001275D01*
X001275Y001208D01*
X001345Y001144D01*
X001419Y001083D01*
X001495Y001026D01*
X001574Y000972D01*
X001655Y000923D01*
X001739Y000877D01*
X001824Y000836D01*
X001912Y000798D01*
X002001Y000765D01*
X002092Y000736D01*
X002183Y000711D01*
X002276Y000691D01*
X002370Y000675D01*
X002465Y000664D01*
X002560Y000657D01*
X002655Y000655D01*
X005260Y002502D02*
X005262Y002522D01*
X005268Y002542D01*
X005277Y002560D01*
X005290Y002577D01*
X005305Y002590D01*
X005323Y002600D01*
X005343Y002607D01*
X005363Y002610D01*
X005383Y002609D01*
X005403Y002604D01*
X005422Y002596D01*
X005439Y002584D01*
X005453Y002569D01*
X005464Y002551D01*
X005472Y002532D01*
X005476Y002512D01*
X005476Y002492D01*
X005472Y002472D01*
X005464Y002453D01*
X005453Y002435D01*
X005439Y002420D01*
X005422Y002408D01*
X005403Y002400D01*
X005383Y002395D01*
X005363Y002394D01*
X005343Y002397D01*
X005323Y002404D01*
X005305Y002414D01*
X005290Y002427D01*
X005277Y002444D01*
X005268Y002462D01*
X005262Y002482D01*
X005260Y002502D01*
X006835Y002502D02*
X006837Y002522D01*
X006843Y002542D01*
X006852Y002560D01*
X006865Y002577D01*
X006880Y002590D01*
X006898Y002600D01*
X006918Y002607D01*
X006938Y002610D01*
X006958Y002609D01*
X006978Y002604D01*
X006997Y002596D01*
X007014Y002584D01*
X007028Y002569D01*
X007039Y002551D01*
X007047Y002532D01*
X007051Y002512D01*
X007051Y002492D01*
X007047Y002472D01*
X007039Y002453D01*
X007028Y002435D01*
X007014Y002420D01*
X006997Y002408D01*
X006978Y002400D01*
X006958Y002395D01*
X006938Y002394D01*
X006918Y002397D01*
X006898Y002404D01*
X006880Y002414D01*
X006865Y002427D01*
X006852Y002444D01*
X006843Y002462D01*
X006837Y002482D01*
X006835Y002502D01*
X002172Y015055D02*
X002174Y015096D01*
X002180Y015137D01*
X002190Y015177D01*
X002203Y015216D01*
X002220Y015253D01*
X002241Y015289D01*
X002265Y015323D01*
X002292Y015354D01*
X002321Y015382D01*
X002354Y015408D01*
X002388Y015430D01*
X002425Y015449D01*
X002463Y015464D01*
X002503Y015476D01*
X002543Y015484D01*
X002584Y015488D01*
X002626Y015488D01*
X002667Y015484D01*
X002707Y015476D01*
X002747Y015464D01*
X002785Y015449D01*
X002821Y015430D01*
X002856Y015408D01*
X002889Y015382D01*
X002918Y015354D01*
X002945Y015323D01*
X002969Y015289D01*
X002990Y015253D01*
X003007Y015216D01*
X003020Y015177D01*
X003030Y015137D01*
X003036Y015096D01*
X003038Y015055D01*
X003036Y015014D01*
X003030Y014973D01*
X003020Y014933D01*
X003007Y014894D01*
X002990Y014857D01*
X002969Y014821D01*
X002945Y014787D01*
X002918Y014756D01*
X002889Y014728D01*
X002856Y014702D01*
X002822Y014680D01*
X002785Y014661D01*
X002747Y014646D01*
X002707Y014634D01*
X002667Y014626D01*
X002626Y014622D01*
X002584Y014622D01*
X002543Y014626D01*
X002503Y014634D01*
X002463Y014646D01*
X002425Y014661D01*
X002389Y014680D01*
X002354Y014702D01*
X002321Y014728D01*
X002292Y014756D01*
X002265Y014787D01*
X002241Y014821D01*
X002220Y014857D01*
X002203Y014894D01*
X002190Y014933D01*
X002180Y014973D01*
X002174Y015014D01*
X002172Y015055D01*
D11*
X012799Y014966D02*
X012799Y015344D01*
X012799Y014966D02*
X011511Y014966D01*
X011511Y015344D01*
X012799Y015344D01*
X012799Y014977D02*
X011511Y014977D01*
X011511Y014988D02*
X012799Y014988D01*
X012799Y014999D02*
X011511Y014999D01*
X011511Y015010D02*
X012799Y015010D01*
X012799Y015021D02*
X011511Y015021D01*
X011511Y015032D02*
X012799Y015032D01*
X012799Y015043D02*
X011511Y015043D01*
X011511Y015054D02*
X012799Y015054D01*
X012799Y015065D02*
X011511Y015065D01*
X011511Y015076D02*
X012799Y015076D01*
X012799Y015087D02*
X011511Y015087D01*
X011511Y015098D02*
X012799Y015098D01*
X012799Y015109D02*
X011511Y015109D01*
X011511Y015120D02*
X012799Y015120D01*
X012799Y015131D02*
X011511Y015131D01*
X011511Y015142D02*
X012799Y015142D01*
X012799Y015153D02*
X011511Y015153D01*
X011511Y015164D02*
X012799Y015164D01*
X012799Y015175D02*
X011511Y015175D01*
X011511Y015186D02*
X012799Y015186D01*
X012799Y015197D02*
X011511Y015197D01*
X011511Y015208D02*
X012799Y015208D01*
X012799Y015219D02*
X011511Y015219D01*
X011511Y015230D02*
X012799Y015230D01*
X012799Y015241D02*
X011511Y015241D01*
X011511Y015252D02*
X012799Y015252D01*
X012799Y015263D02*
X011511Y015263D01*
X011511Y015274D02*
X012799Y015274D01*
X012799Y015285D02*
X011511Y015285D01*
X011511Y015296D02*
X012799Y015296D01*
X012799Y015307D02*
X011511Y015307D01*
X011511Y015318D02*
X012799Y015318D01*
X012799Y015329D02*
X011511Y015329D01*
X011511Y015340D02*
X012799Y015340D01*
X012799Y014294D02*
X012799Y013916D01*
X011511Y013916D01*
X011511Y014294D01*
X012799Y014294D01*
X012799Y013927D02*
X011511Y013927D01*
X011511Y013938D02*
X012799Y013938D01*
X012799Y013949D02*
X011511Y013949D01*
X011511Y013960D02*
X012799Y013960D01*
X012799Y013971D02*
X011511Y013971D01*
X011511Y013982D02*
X012799Y013982D01*
X012799Y013993D02*
X011511Y013993D01*
X011511Y014004D02*
X012799Y014004D01*
X012799Y014015D02*
X011511Y014015D01*
X011511Y014026D02*
X012799Y014026D01*
X012799Y014037D02*
X011511Y014037D01*
X011511Y014048D02*
X012799Y014048D01*
X012799Y014059D02*
X011511Y014059D01*
X011511Y014070D02*
X012799Y014070D01*
X012799Y014081D02*
X011511Y014081D01*
X011511Y014092D02*
X012799Y014092D01*
X012799Y014103D02*
X011511Y014103D01*
X011511Y014114D02*
X012799Y014114D01*
X012799Y014125D02*
X011511Y014125D01*
X011511Y014136D02*
X012799Y014136D01*
X012799Y014147D02*
X011511Y014147D01*
X011511Y014158D02*
X012799Y014158D01*
X012799Y014169D02*
X011511Y014169D01*
X011511Y014180D02*
X012799Y014180D01*
X012799Y014191D02*
X011511Y014191D01*
X011511Y014202D02*
X012799Y014202D01*
X012799Y014213D02*
X011511Y014213D01*
X011511Y014224D02*
X012799Y014224D01*
X012799Y014235D02*
X011511Y014235D01*
X011511Y014246D02*
X012799Y014246D01*
X012799Y014257D02*
X011511Y014257D01*
X011511Y014268D02*
X012799Y014268D01*
X012799Y014279D02*
X011511Y014279D01*
X011511Y014290D02*
X012799Y014290D01*
X012799Y013344D02*
X012799Y012966D01*
X011511Y012966D01*
X011511Y013344D01*
X012799Y013344D01*
X012799Y012977D02*
X011511Y012977D01*
X011511Y012988D02*
X012799Y012988D01*
X012799Y012999D02*
X011511Y012999D01*
X011511Y013010D02*
X012799Y013010D01*
X012799Y013021D02*
X011511Y013021D01*
X011511Y013032D02*
X012799Y013032D01*
X012799Y013043D02*
X011511Y013043D01*
X011511Y013054D02*
X012799Y013054D01*
X012799Y013065D02*
X011511Y013065D01*
X011511Y013076D02*
X012799Y013076D01*
X012799Y013087D02*
X011511Y013087D01*
X011511Y013098D02*
X012799Y013098D01*
X012799Y013109D02*
X011511Y013109D01*
X011511Y013120D02*
X012799Y013120D01*
X012799Y013131D02*
X011511Y013131D01*
X011511Y013142D02*
X012799Y013142D01*
X012799Y013153D02*
X011511Y013153D01*
X011511Y013164D02*
X012799Y013164D01*
X012799Y013175D02*
X011511Y013175D01*
X011511Y013186D02*
X012799Y013186D01*
X012799Y013197D02*
X011511Y013197D01*
X011511Y013208D02*
X012799Y013208D01*
X012799Y013219D02*
X011511Y013219D01*
X011511Y013230D02*
X012799Y013230D01*
X012799Y013241D02*
X011511Y013241D01*
X011511Y013252D02*
X012799Y013252D01*
X012799Y013263D02*
X011511Y013263D01*
X011511Y013274D02*
X012799Y013274D01*
X012799Y013285D02*
X011511Y013285D01*
X011511Y013296D02*
X012799Y013296D01*
X012799Y013307D02*
X011511Y013307D01*
X011511Y013318D02*
X012799Y013318D01*
X012799Y013329D02*
X011511Y013329D01*
X011511Y013340D02*
X012799Y013340D01*
X012799Y012344D02*
X012799Y011966D01*
X011511Y011966D01*
X011511Y012344D01*
X012799Y012344D01*
X012799Y011977D02*
X011511Y011977D01*
X011511Y011988D02*
X012799Y011988D01*
X012799Y011999D02*
X011511Y011999D01*
X011511Y012010D02*
X012799Y012010D01*
X012799Y012021D02*
X011511Y012021D01*
X011511Y012032D02*
X012799Y012032D01*
X012799Y012043D02*
X011511Y012043D01*
X011511Y012054D02*
X012799Y012054D01*
X012799Y012065D02*
X011511Y012065D01*
X011511Y012076D02*
X012799Y012076D01*
X012799Y012087D02*
X011511Y012087D01*
X011511Y012098D02*
X012799Y012098D01*
X012799Y012109D02*
X011511Y012109D01*
X011511Y012120D02*
X012799Y012120D01*
X012799Y012131D02*
X011511Y012131D01*
X011511Y012142D02*
X012799Y012142D01*
X012799Y012153D02*
X011511Y012153D01*
X011511Y012164D02*
X012799Y012164D01*
X012799Y012175D02*
X011511Y012175D01*
X011511Y012186D02*
X012799Y012186D01*
X012799Y012197D02*
X011511Y012197D01*
X011511Y012208D02*
X012799Y012208D01*
X012799Y012219D02*
X011511Y012219D01*
X011511Y012230D02*
X012799Y012230D01*
X012799Y012241D02*
X011511Y012241D01*
X011511Y012252D02*
X012799Y012252D01*
X012799Y012263D02*
X011511Y012263D01*
X011511Y012274D02*
X012799Y012274D01*
X012799Y012285D02*
X011511Y012285D01*
X011511Y012296D02*
X012799Y012296D01*
X012799Y012307D02*
X011511Y012307D01*
X011511Y012318D02*
X012799Y012318D01*
X012799Y012329D02*
X011511Y012329D01*
X011511Y012340D02*
X012799Y012340D01*
X012799Y011394D02*
X012799Y011016D01*
X011511Y011016D01*
X011511Y011394D01*
X012799Y011394D01*
X012799Y011027D02*
X011511Y011027D01*
X011511Y011038D02*
X012799Y011038D01*
X012799Y011049D02*
X011511Y011049D01*
X011511Y011060D02*
X012799Y011060D01*
X012799Y011071D02*
X011511Y011071D01*
X011511Y011082D02*
X012799Y011082D01*
X012799Y011093D02*
X011511Y011093D01*
X011511Y011104D02*
X012799Y011104D01*
X012799Y011115D02*
X011511Y011115D01*
X011511Y011126D02*
X012799Y011126D01*
X012799Y011137D02*
X011511Y011137D01*
X011511Y011148D02*
X012799Y011148D01*
X012799Y011159D02*
X011511Y011159D01*
X011511Y011170D02*
X012799Y011170D01*
X012799Y011181D02*
X011511Y011181D01*
X011511Y011192D02*
X012799Y011192D01*
X012799Y011203D02*
X011511Y011203D01*
X011511Y011214D02*
X012799Y011214D01*
X012799Y011225D02*
X011511Y011225D01*
X011511Y011236D02*
X012799Y011236D01*
X012799Y011247D02*
X011511Y011247D01*
X011511Y011258D02*
X012799Y011258D01*
X012799Y011269D02*
X011511Y011269D01*
X011511Y011280D02*
X012799Y011280D01*
X012799Y011291D02*
X011511Y011291D01*
X011511Y011302D02*
X012799Y011302D01*
X012799Y011313D02*
X011511Y011313D01*
X011511Y011324D02*
X012799Y011324D01*
X012799Y011335D02*
X011511Y011335D01*
X011511Y011346D02*
X012799Y011346D01*
X012799Y011357D02*
X011511Y011357D01*
X011511Y011368D02*
X012799Y011368D01*
X012799Y011379D02*
X011511Y011379D01*
X011511Y011390D02*
X012799Y011390D01*
X012799Y010394D02*
X012799Y010016D01*
X011511Y010016D01*
X011511Y010394D01*
X012799Y010394D01*
X012799Y010027D02*
X011511Y010027D01*
X011511Y010038D02*
X012799Y010038D01*
X012799Y010049D02*
X011511Y010049D01*
X011511Y010060D02*
X012799Y010060D01*
X012799Y010071D02*
X011511Y010071D01*
X011511Y010082D02*
X012799Y010082D01*
X012799Y010093D02*
X011511Y010093D01*
X011511Y010104D02*
X012799Y010104D01*
X012799Y010115D02*
X011511Y010115D01*
X011511Y010126D02*
X012799Y010126D01*
X012799Y010137D02*
X011511Y010137D01*
X011511Y010148D02*
X012799Y010148D01*
X012799Y010159D02*
X011511Y010159D01*
X011511Y010170D02*
X012799Y010170D01*
X012799Y010181D02*
X011511Y010181D01*
X011511Y010192D02*
X012799Y010192D01*
X012799Y010203D02*
X011511Y010203D01*
X011511Y010214D02*
X012799Y010214D01*
X012799Y010225D02*
X011511Y010225D01*
X011511Y010236D02*
X012799Y010236D01*
X012799Y010247D02*
X011511Y010247D01*
X011511Y010258D02*
X012799Y010258D01*
X012799Y010269D02*
X011511Y010269D01*
X011511Y010280D02*
X012799Y010280D01*
X012799Y010291D02*
X011511Y010291D01*
X011511Y010302D02*
X012799Y010302D01*
X012799Y010313D02*
X011511Y010313D01*
X011511Y010324D02*
X012799Y010324D01*
X012799Y010335D02*
X011511Y010335D01*
X011511Y010346D02*
X012799Y010346D01*
X012799Y010357D02*
X011511Y010357D01*
X011511Y010368D02*
X012799Y010368D01*
X012799Y010379D02*
X011511Y010379D01*
X011511Y010390D02*
X012799Y010390D01*
X012799Y009394D02*
X012799Y009016D01*
X011511Y009016D01*
X011511Y009394D01*
X012799Y009394D01*
X012799Y009027D02*
X011511Y009027D01*
X011511Y009038D02*
X012799Y009038D01*
X012799Y009049D02*
X011511Y009049D01*
X011511Y009060D02*
X012799Y009060D01*
X012799Y009071D02*
X011511Y009071D01*
X011511Y009082D02*
X012799Y009082D01*
X012799Y009093D02*
X011511Y009093D01*
X011511Y009104D02*
X012799Y009104D01*
X012799Y009115D02*
X011511Y009115D01*
X011511Y009126D02*
X012799Y009126D01*
X012799Y009137D02*
X011511Y009137D01*
X011511Y009148D02*
X012799Y009148D01*
X012799Y009159D02*
X011511Y009159D01*
X011511Y009170D02*
X012799Y009170D01*
X012799Y009181D02*
X011511Y009181D01*
X011511Y009192D02*
X012799Y009192D01*
X012799Y009203D02*
X011511Y009203D01*
X011511Y009214D02*
X012799Y009214D01*
X012799Y009225D02*
X011511Y009225D01*
X011511Y009236D02*
X012799Y009236D01*
X012799Y009247D02*
X011511Y009247D01*
X011511Y009258D02*
X012799Y009258D01*
X012799Y009269D02*
X011511Y009269D01*
X011511Y009280D02*
X012799Y009280D01*
X012799Y009291D02*
X011511Y009291D01*
X011511Y009302D02*
X012799Y009302D01*
X012799Y009313D02*
X011511Y009313D01*
X011511Y009324D02*
X012799Y009324D01*
X012799Y009335D02*
X011511Y009335D01*
X011511Y009346D02*
X012799Y009346D01*
X012799Y009357D02*
X011511Y009357D01*
X011511Y009368D02*
X012799Y009368D01*
X012799Y009379D02*
X011511Y009379D01*
X011511Y009390D02*
X012799Y009390D01*
X012799Y008444D02*
X012799Y008066D01*
X011511Y008066D01*
X011511Y008444D01*
X012799Y008444D01*
X012799Y008077D02*
X011511Y008077D01*
X011511Y008088D02*
X012799Y008088D01*
X012799Y008099D02*
X011511Y008099D01*
X011511Y008110D02*
X012799Y008110D01*
X012799Y008121D02*
X011511Y008121D01*
X011511Y008132D02*
X012799Y008132D01*
X012799Y008143D02*
X011511Y008143D01*
X011511Y008154D02*
X012799Y008154D01*
X012799Y008165D02*
X011511Y008165D01*
X011511Y008176D02*
X012799Y008176D01*
X012799Y008187D02*
X011511Y008187D01*
X011511Y008198D02*
X012799Y008198D01*
X012799Y008209D02*
X011511Y008209D01*
X011511Y008220D02*
X012799Y008220D01*
X012799Y008231D02*
X011511Y008231D01*
X011511Y008242D02*
X012799Y008242D01*
X012799Y008253D02*
X011511Y008253D01*
X011511Y008264D02*
X012799Y008264D01*
X012799Y008275D02*
X011511Y008275D01*
X011511Y008286D02*
X012799Y008286D01*
X012799Y008297D02*
X011511Y008297D01*
X011511Y008308D02*
X012799Y008308D01*
X012799Y008319D02*
X011511Y008319D01*
X011511Y008330D02*
X012799Y008330D01*
X012799Y008341D02*
X011511Y008341D01*
X011511Y008352D02*
X012799Y008352D01*
X012799Y008363D02*
X011511Y008363D01*
X011511Y008374D02*
X012799Y008374D01*
X012799Y008385D02*
X011511Y008385D01*
X011511Y008396D02*
X012799Y008396D01*
X012799Y008407D02*
X011511Y008407D01*
X011511Y008418D02*
X012799Y008418D01*
X012799Y008429D02*
X011511Y008429D01*
X011511Y008440D02*
X012799Y008440D01*
X012799Y007444D02*
X012799Y007066D01*
X011511Y007066D01*
X011511Y007444D01*
X012799Y007444D01*
X012799Y007077D02*
X011511Y007077D01*
X011511Y007088D02*
X012799Y007088D01*
X012799Y007099D02*
X011511Y007099D01*
X011511Y007110D02*
X012799Y007110D01*
X012799Y007121D02*
X011511Y007121D01*
X011511Y007132D02*
X012799Y007132D01*
X012799Y007143D02*
X011511Y007143D01*
X011511Y007154D02*
X012799Y007154D01*
X012799Y007165D02*
X011511Y007165D01*
X011511Y007176D02*
X012799Y007176D01*
X012799Y007187D02*
X011511Y007187D01*
X011511Y007198D02*
X012799Y007198D01*
X012799Y007209D02*
X011511Y007209D01*
X011511Y007220D02*
X012799Y007220D01*
X012799Y007231D02*
X011511Y007231D01*
X011511Y007242D02*
X012799Y007242D01*
X012799Y007253D02*
X011511Y007253D01*
X011511Y007264D02*
X012799Y007264D01*
X012799Y007275D02*
X011511Y007275D01*
X011511Y007286D02*
X012799Y007286D01*
X012799Y007297D02*
X011511Y007297D01*
X011511Y007308D02*
X012799Y007308D01*
X012799Y007319D02*
X011511Y007319D01*
X011511Y007330D02*
X012799Y007330D01*
X012799Y007341D02*
X011511Y007341D01*
X011511Y007352D02*
X012799Y007352D01*
X012799Y007363D02*
X011511Y007363D01*
X011511Y007374D02*
X012799Y007374D01*
X012799Y007385D02*
X011511Y007385D01*
X011511Y007396D02*
X012799Y007396D01*
X012799Y007407D02*
X011511Y007407D01*
X011511Y007418D02*
X012799Y007418D01*
X012799Y007429D02*
X011511Y007429D01*
X011511Y007440D02*
X012799Y007440D01*
X012799Y006444D02*
X012799Y006066D01*
X011511Y006066D01*
X011511Y006444D01*
X012799Y006444D01*
X012799Y006077D02*
X011511Y006077D01*
X011511Y006088D02*
X012799Y006088D01*
X012799Y006099D02*
X011511Y006099D01*
X011511Y006110D02*
X012799Y006110D01*
X012799Y006121D02*
X011511Y006121D01*
X011511Y006132D02*
X012799Y006132D01*
X012799Y006143D02*
X011511Y006143D01*
X011511Y006154D02*
X012799Y006154D01*
X012799Y006165D02*
X011511Y006165D01*
X011511Y006176D02*
X012799Y006176D01*
X012799Y006187D02*
X011511Y006187D01*
X011511Y006198D02*
X012799Y006198D01*
X012799Y006209D02*
X011511Y006209D01*
X011511Y006220D02*
X012799Y006220D01*
X012799Y006231D02*
X011511Y006231D01*
X011511Y006242D02*
X012799Y006242D01*
X012799Y006253D02*
X011511Y006253D01*
X011511Y006264D02*
X012799Y006264D01*
X012799Y006275D02*
X011511Y006275D01*
X011511Y006286D02*
X012799Y006286D01*
X012799Y006297D02*
X011511Y006297D01*
X011511Y006308D02*
X012799Y006308D01*
X012799Y006319D02*
X011511Y006319D01*
X011511Y006330D02*
X012799Y006330D01*
X012799Y006341D02*
X011511Y006341D01*
X011511Y006352D02*
X012799Y006352D01*
X012799Y006363D02*
X011511Y006363D01*
X011511Y006374D02*
X012799Y006374D01*
X012799Y006385D02*
X011511Y006385D01*
X011511Y006396D02*
X012799Y006396D01*
X012799Y006407D02*
X011511Y006407D01*
X011511Y006418D02*
X012799Y006418D01*
X012799Y006429D02*
X011511Y006429D01*
X011511Y006440D02*
X012799Y006440D01*
X011511Y005544D02*
X011511Y005166D01*
X011511Y005544D02*
X012799Y005544D01*
X012799Y005166D01*
X011511Y005166D01*
X011511Y005177D02*
X012799Y005177D01*
X012799Y005188D02*
X011511Y005188D01*
X011511Y005199D02*
X012799Y005199D01*
X012799Y005210D02*
X011511Y005210D01*
X011511Y005221D02*
X012799Y005221D01*
X012799Y005232D02*
X011511Y005232D01*
X011511Y005243D02*
X012799Y005243D01*
X012799Y005254D02*
X011511Y005254D01*
X011511Y005265D02*
X012799Y005265D01*
X012799Y005276D02*
X011511Y005276D01*
X011511Y005287D02*
X012799Y005287D01*
X012799Y005298D02*
X011511Y005298D01*
X011511Y005309D02*
X012799Y005309D01*
X012799Y005320D02*
X011511Y005320D01*
X011511Y005331D02*
X012799Y005331D01*
X012799Y005342D02*
X011511Y005342D01*
X011511Y005353D02*
X012799Y005353D01*
X012799Y005364D02*
X011511Y005364D01*
X011511Y005375D02*
X012799Y005375D01*
X012799Y005386D02*
X011511Y005386D01*
X011511Y005397D02*
X012799Y005397D01*
X012799Y005408D02*
X011511Y005408D01*
X011511Y005419D02*
X012799Y005419D01*
X012799Y005430D02*
X011511Y005430D01*
X011511Y005441D02*
X012799Y005441D01*
X012799Y005452D02*
X011511Y005452D01*
X011511Y005463D02*
X012799Y005463D01*
X012799Y005474D02*
X011511Y005474D01*
X011511Y005485D02*
X012799Y005485D01*
X012799Y005496D02*
X011511Y005496D01*
X011511Y005507D02*
X012799Y005507D01*
X012799Y005518D02*
X011511Y005518D01*
X011511Y005529D02*
X012799Y005529D01*
X012799Y005540D02*
X011511Y005540D01*
D12*
X009810Y015430D02*
X009810Y016080D01*
X010500Y016080D01*
X010500Y015430D01*
X009810Y015430D01*
X009810Y015449D02*
X010500Y015449D01*
X010500Y015468D02*
X009810Y015468D01*
X009810Y015487D02*
X010500Y015487D01*
X010500Y015506D02*
X009810Y015506D01*
X009810Y015525D02*
X010500Y015525D01*
X010500Y015544D02*
X009810Y015544D01*
X009810Y015563D02*
X010500Y015563D01*
X010500Y015582D02*
X009810Y015582D01*
X009810Y015601D02*
X010500Y015601D01*
X010500Y015620D02*
X009810Y015620D01*
X009810Y015639D02*
X010500Y015639D01*
X010500Y015658D02*
X009810Y015658D01*
X009810Y015677D02*
X010500Y015677D01*
X010500Y015696D02*
X009810Y015696D01*
X009810Y015715D02*
X010500Y015715D01*
X010500Y015734D02*
X009810Y015734D01*
X009810Y015753D02*
X010500Y015753D01*
X010500Y015772D02*
X009810Y015772D01*
X009810Y015791D02*
X010500Y015791D01*
X010500Y015810D02*
X009810Y015810D01*
X009810Y015829D02*
X010500Y015829D01*
X010500Y015848D02*
X009810Y015848D01*
X009810Y015867D02*
X010500Y015867D01*
X010500Y015886D02*
X009810Y015886D01*
X009810Y015905D02*
X010500Y015905D01*
X010500Y015924D02*
X009810Y015924D01*
X009810Y015943D02*
X010500Y015943D01*
X010500Y015962D02*
X009810Y015962D01*
X009810Y015981D02*
X010500Y015981D01*
X010500Y016000D02*
X009810Y016000D01*
X009810Y016019D02*
X010500Y016019D01*
X010500Y016038D02*
X009810Y016038D01*
X009810Y016057D02*
X010500Y016057D01*
X010500Y016076D02*
X009810Y016076D01*
D13*
X001269Y015856D02*
X001269Y015654D01*
X001269Y015856D02*
X001941Y015856D01*
X001941Y015654D01*
X001269Y015654D01*
D14*
X001040Y005000D02*
X001040Y004310D01*
X001040Y005000D02*
X001770Y005000D01*
X001770Y004310D01*
X001040Y004310D01*
X001040Y004330D02*
X001770Y004330D01*
X001770Y004350D02*
X001040Y004350D01*
X001040Y004370D02*
X001770Y004370D01*
X001770Y004390D02*
X001040Y004390D01*
X001040Y004410D02*
X001770Y004410D01*
X001770Y004430D02*
X001040Y004430D01*
X001040Y004450D02*
X001770Y004450D01*
X001770Y004470D02*
X001040Y004470D01*
X001040Y004490D02*
X001770Y004490D01*
X001770Y004510D02*
X001040Y004510D01*
X001040Y004530D02*
X001770Y004530D01*
X001770Y004550D02*
X001040Y004550D01*
X001040Y004570D02*
X001770Y004570D01*
X001770Y004590D02*
X001040Y004590D01*
X001040Y004610D02*
X001770Y004610D01*
X001770Y004630D02*
X001040Y004630D01*
X001040Y004650D02*
X001770Y004650D01*
X001770Y004670D02*
X001040Y004670D01*
X001040Y004690D02*
X001770Y004690D01*
X001770Y004710D02*
X001040Y004710D01*
X001040Y004730D02*
X001770Y004730D01*
X001770Y004750D02*
X001040Y004750D01*
X001040Y004770D02*
X001770Y004770D01*
X001770Y004790D02*
X001040Y004790D01*
X001040Y004810D02*
X001770Y004810D01*
X001770Y004830D02*
X001040Y004830D01*
X001040Y004850D02*
X001770Y004850D01*
X001770Y004870D02*
X001040Y004870D01*
X001040Y004890D02*
X001770Y004890D01*
X001770Y004910D02*
X001040Y004910D01*
X001040Y004930D02*
X001770Y004930D01*
X001770Y004950D02*
X001040Y004950D01*
X001040Y004970D02*
X001770Y004970D01*
X001770Y004990D02*
X001040Y004990D01*
D15*
X002605Y005555D03*
D16*
X013395Y003061D03*
X013395Y002155D03*
X013395Y001250D03*
D17*
X010915Y002155D03*
D18*
X009155Y001525D03*
X009155Y002785D03*
D19*
X014655Y002990D03*
X014655Y002320D03*
X014655Y009320D03*
X014655Y009990D03*
X013655Y009990D03*
X013655Y009320D03*
X012155Y016820D03*
X012155Y017490D03*
D20*
X006667Y002807D03*
X006411Y002807D03*
X006155Y002807D03*
X005899Y002807D03*
X005643Y002807D03*
D21*
X005043Y001655D03*
X007267Y001655D03*
D22*
X006155Y001655D03*
D23*
X018655Y005655D03*
X018655Y006655D03*
X018655Y007655D03*
X018655Y008655D03*
X018655Y009655D03*
X018655Y010655D03*
X018655Y011655D03*
X018655Y012655D03*
X018655Y013655D03*
X018655Y014655D03*
D24*
X015155Y016820D03*
X015155Y017490D03*
D25*
X014088Y017529D03*
X014088Y016781D03*
X013222Y017155D03*
D26*
X001089Y001671D02*
X001347Y001347D01*
X001671Y001089D01*
X002044Y000909D01*
X002448Y000817D01*
X002655Y000805D01*
X012939Y000805D01*
X012852Y000892D01*
X012852Y001020D01*
X012345Y001020D01*
X012250Y000925D01*
X010250Y000925D01*
X010060Y000925D01*
X009690Y001295D01*
X009581Y001295D01*
X009581Y001030D01*
X009493Y000942D01*
X008817Y000942D01*
X008730Y001030D01*
X008730Y001295D01*
X008630Y001295D01*
X008440Y001295D01*
X007425Y002310D01*
X007425Y002500D01*
X007425Y003310D01*
X007310Y003425D01*
X006000Y003425D01*
X005975Y003400D01*
X006040Y003400D01*
X006270Y003400D01*
X006552Y003400D01*
X006555Y003396D01*
X006568Y003400D01*
X006667Y003400D01*
X006667Y002807D01*
X006667Y002807D01*
X006667Y003400D01*
X006765Y003400D01*
X006804Y003389D01*
X006838Y003370D01*
X006866Y003342D01*
X006885Y003307D01*
X006896Y003269D01*
X006896Y002807D01*
X006667Y002807D01*
X006667Y002806D01*
X006667Y002214D01*
X006765Y002214D01*
X006804Y002224D01*
X006838Y002244D01*
X006853Y002259D01*
X006891Y002243D01*
X006994Y002243D01*
X007089Y002283D01*
X007161Y002355D01*
X007201Y002450D01*
X007201Y002553D01*
X007161Y002648D01*
X007089Y002720D01*
X006994Y002760D01*
X006896Y002760D01*
X006896Y002806D01*
X006667Y002806D01*
X006667Y002806D01*
X006667Y002214D01*
X006568Y002214D01*
X006555Y002217D01*
X006552Y002214D01*
X006270Y002214D01*
X006040Y002214D01*
X005784Y002214D01*
X005502Y002214D01*
X005457Y002259D01*
X005419Y002243D01*
X005316Y002243D01*
X005221Y002283D01*
X005149Y002355D01*
X005109Y002450D01*
X005109Y002553D01*
X005149Y002648D01*
X005221Y002720D01*
X005316Y002760D01*
X005413Y002760D01*
X005413Y003298D01*
X005413Y003489D01*
X005675Y003750D01*
X005810Y003885D01*
X007310Y003885D01*
X007500Y003885D01*
X007750Y003635D01*
X007885Y003500D01*
X007885Y002500D01*
X008630Y001755D01*
X008730Y001755D01*
X008730Y002020D01*
X008817Y002108D01*
X009493Y002108D01*
X009581Y002020D01*
X009581Y001755D01*
X009690Y001755D01*
X009880Y001755D01*
X010250Y001385D01*
X010372Y001385D01*
X010371Y001387D01*
X010371Y002105D01*
X010865Y002105D01*
X010865Y002205D01*
X010371Y002205D01*
X010371Y002923D01*
X010381Y002961D01*
X010401Y002995D01*
X010429Y003023D01*
X010463Y003043D01*
X010501Y003053D01*
X010865Y003053D01*
X010865Y002205D01*
X010965Y002205D01*
X011459Y002205D01*
X011459Y002923D01*
X011448Y002961D01*
X011429Y002995D01*
X011401Y003023D01*
X011367Y003043D01*
X011328Y003053D01*
X010965Y003053D01*
X010965Y002205D01*
X010965Y002105D01*
X011459Y002105D01*
X011459Y001387D01*
X011458Y001385D01*
X012060Y001385D01*
X012154Y001480D01*
X012345Y001480D01*
X012852Y001480D01*
X012852Y001607D01*
X012939Y001695D01*
X013851Y001695D01*
X013939Y001607D01*
X013939Y001480D01*
X014654Y001480D01*
X015425Y002250D01*
X015425Y002921D01*
X015405Y002941D01*
X015341Y002877D01*
X015220Y002827D01*
X015152Y002827D01*
X015085Y002760D01*
X015002Y002760D01*
X015002Y002711D01*
X014946Y002655D01*
X014972Y002629D01*
X014992Y002595D01*
X015002Y002557D01*
X015002Y002369D01*
X014704Y002369D01*
X014704Y002272D01*
X015002Y002272D01*
X015002Y002084D01*
X014992Y002046D01*
X014972Y002012D01*
X014944Y001984D01*
X014910Y001964D01*
X014872Y001954D01*
X014704Y001954D01*
X014704Y002272D01*
X014607Y002272D01*
X014607Y001954D01*
X014439Y001954D01*
X014400Y001964D01*
X014366Y001984D01*
X014338Y002012D01*
X014319Y002046D01*
X014308Y002084D01*
X014308Y002272D01*
X014606Y002272D01*
X014606Y002369D01*
X014308Y002369D01*
X014308Y002557D01*
X014319Y002595D01*
X014338Y002629D01*
X014364Y002655D01*
X014308Y002711D01*
X014308Y002760D01*
X013939Y002760D01*
X013939Y002703D01*
X013851Y002615D01*
X012939Y002615D01*
X012852Y002703D01*
X012852Y003418D01*
X012939Y003506D01*
X013851Y003506D01*
X013939Y003418D01*
X013939Y003220D01*
X014308Y003220D01*
X014308Y003268D01*
X014396Y003356D01*
X014892Y003356D01*
X014969Y003434D01*
X015090Y003484D01*
X015220Y003484D01*
X015341Y003434D01*
X015405Y003370D01*
X015469Y003434D01*
X015590Y003484D01*
X015720Y003484D01*
X015841Y003434D01*
X015934Y003341D01*
X015984Y003220D01*
X015984Y003165D01*
X016183Y003601D01*
X016183Y003601D01*
X016509Y003978D01*
X016509Y003978D01*
X016509Y003978D01*
X016928Y004247D01*
X016928Y004247D01*
X017406Y004387D01*
X017406Y004387D01*
X017904Y004387D01*
X017904Y004387D01*
X018382Y004247D01*
X018382Y004247D01*
X018801Y003978D01*
X018801Y003978D01*
X019127Y003601D01*
X019127Y003601D01*
X019334Y003148D01*
X019334Y003148D01*
X019405Y002655D01*
X019334Y002162D01*
X019127Y001709D01*
X019127Y001709D01*
X018801Y001333D01*
X018801Y001333D01*
X018801Y001333D01*
X018382Y001063D01*
X018382Y001063D01*
X017904Y000923D01*
X017904Y000923D01*
X017406Y000923D01*
X017406Y000923D01*
X016928Y001063D01*
X016928Y001063D01*
X016509Y001333D01*
X016509Y001333D01*
X016183Y001709D01*
X016183Y001709D01*
X015976Y002162D01*
X015976Y002162D01*
X015905Y002655D01*
X015905Y002655D01*
X015959Y003031D01*
X015934Y002969D01*
X015885Y002921D01*
X015885Y002060D01*
X015750Y001925D01*
X014845Y001020D01*
X014654Y001020D01*
X013939Y001020D01*
X013939Y000892D01*
X013852Y000805D01*
X017655Y000805D01*
X017862Y000817D01*
X018266Y000909D01*
X018639Y001089D01*
X018963Y001347D01*
X019222Y001671D01*
X019401Y002044D01*
X019494Y002448D01*
X019505Y002655D01*
X019505Y017593D01*
X019505Y017623D01*
X019505Y017655D01*
X019494Y017862D01*
X019401Y018266D01*
X019222Y018639D01*
X018963Y018963D01*
X018639Y019222D01*
X018266Y019401D01*
X017862Y019494D01*
X017655Y019505D01*
X002717Y019505D01*
X002702Y019505D01*
X002655Y019505D01*
X002448Y019494D01*
X002044Y019401D01*
X001671Y019222D01*
X001347Y018963D01*
X001089Y018639D01*
X000909Y018266D01*
X000817Y017862D01*
X000805Y017655D01*
X000805Y015155D01*
X002022Y015155D01*
X002022Y015171D01*
X002073Y015293D01*
X002017Y015270D01*
X001193Y015270D01*
X001052Y015329D01*
X000944Y015437D01*
X000805Y015437D01*
X000805Y015535D02*
X000903Y015535D01*
X000885Y015578D02*
X000944Y015437D01*
X001042Y015338D02*
X000805Y015338D01*
X000805Y015240D02*
X002050Y015240D01*
X002321Y015569D02*
X002325Y015578D01*
X002325Y015932D01*
X002318Y015949D01*
X002406Y015923D01*
X002904Y015923D01*
X002904Y015923D01*
X003382Y016063D01*
X003801Y016333D01*
X004127Y016709D01*
X004334Y017162D01*
X004405Y017655D01*
X004334Y018148D01*
X004334Y018148D01*
X004127Y018601D01*
X004127Y018601D01*
X003801Y018978D01*
X003382Y019247D01*
X002904Y019387D01*
X002406Y019387D01*
X001928Y019247D01*
X001928Y019247D01*
X001509Y018978D01*
X001183Y018601D01*
X000976Y018148D01*
X000905Y017655D01*
X000976Y017162D01*
X001183Y016709D01*
X001509Y016333D01*
X001653Y016240D01*
X001193Y016240D01*
X001052Y016182D01*
X000944Y016073D01*
X000885Y015932D01*
X000885Y015578D01*
X000885Y015634D02*
X000805Y015634D01*
X000805Y015732D02*
X000885Y015732D01*
X000885Y015831D02*
X000805Y015831D01*
X000805Y015929D02*
X000885Y015929D01*
X000925Y016028D02*
X000805Y016028D01*
X000805Y016126D02*
X000997Y016126D01*
X001157Y016225D02*
X000805Y016225D01*
X000805Y016324D02*
X001523Y016324D01*
X001509Y016333D02*
X001509Y016333D01*
X001432Y016422D02*
X000805Y016422D01*
X000805Y016521D02*
X001346Y016521D01*
X001261Y016619D02*
X000805Y016619D01*
X000805Y016718D02*
X001179Y016718D01*
X001183Y016709D02*
X001183Y016709D01*
X001134Y016816D02*
X000805Y016816D01*
X000805Y016915D02*
X001089Y016915D01*
X001044Y017013D02*
X000805Y017013D01*
X000805Y017112D02*
X000999Y017112D01*
X000976Y017162D02*
X000976Y017162D01*
X000969Y017210D02*
X000805Y017210D01*
X000805Y017309D02*
X000955Y017309D01*
X000941Y017407D02*
X000805Y017407D01*
X000805Y017506D02*
X000927Y017506D01*
X000912Y017605D02*
X000805Y017605D01*
X000808Y017703D02*
X000912Y017703D01*
X000905Y017655D02*
X000905Y017655D01*
X000926Y017802D02*
X000813Y017802D01*
X000825Y017900D02*
X000940Y017900D01*
X000955Y017999D02*
X000848Y017999D01*
X000870Y018097D02*
X000969Y018097D01*
X000976Y018148D02*
X000976Y018148D01*
X000998Y018196D02*
X000893Y018196D01*
X000922Y018294D02*
X001043Y018294D01*
X001088Y018393D02*
X000970Y018393D01*
X001017Y018491D02*
X001133Y018491D01*
X001178Y018590D02*
X001065Y018590D01*
X001128Y018689D02*
X001259Y018689D01*
X001206Y018787D02*
X001344Y018787D01*
X001285Y018886D02*
X001429Y018886D01*
X001373Y018984D02*
X001519Y018984D01*
X001497Y019083D02*
X001673Y019083D01*
X001620Y019181D02*
X001826Y019181D01*
X001792Y019280D02*
X002040Y019280D01*
X001996Y019378D02*
X002376Y019378D01*
X002375Y019477D02*
X017935Y019477D01*
X017904Y019387D02*
X017904Y019387D01*
X017406Y019387D01*
X016928Y019247D01*
X016509Y018978D01*
X016509Y018978D01*
X016509Y018978D01*
X016183Y018601D01*
X015976Y018148D01*
X015905Y017655D01*
X015976Y017162D01*
X016183Y016709D01*
X016509Y016333D01*
X016928Y016063D01*
X017406Y015923D01*
X017904Y015923D01*
X018382Y016063D01*
X018801Y016333D01*
X019127Y016709D01*
X019334Y017162D01*
X019405Y017655D01*
X019334Y018148D01*
X019334Y018148D01*
X019127Y018601D01*
X019127Y018601D01*
X018801Y018978D01*
X018382Y019247D01*
X017904Y019387D01*
X017935Y019378D02*
X018314Y019378D01*
X018270Y019280D02*
X018518Y019280D01*
X018484Y019181D02*
X018690Y019181D01*
X018638Y019083D02*
X018813Y019083D01*
X018791Y018984D02*
X018937Y018984D01*
X018881Y018886D02*
X019025Y018886D01*
X018966Y018787D02*
X019104Y018787D01*
X019052Y018689D02*
X019182Y018689D01*
X019132Y018590D02*
X019245Y018590D01*
X019293Y018491D02*
X019177Y018491D01*
X019222Y018393D02*
X019340Y018393D01*
X019388Y018294D02*
X019267Y018294D01*
X019312Y018196D02*
X019417Y018196D01*
X019440Y018097D02*
X019342Y018097D01*
X019356Y017999D02*
X019462Y017999D01*
X019485Y017900D02*
X019370Y017900D01*
X019384Y017802D02*
X019497Y017802D01*
X019502Y017703D02*
X019398Y017703D01*
X019398Y017605D02*
X019505Y017605D01*
X019505Y017506D02*
X019384Y017506D01*
X019369Y017407D02*
X019505Y017407D01*
X019505Y017309D02*
X019355Y017309D01*
X019341Y017210D02*
X019505Y017210D01*
X019505Y017112D02*
X019311Y017112D01*
X019334Y017162D02*
X019334Y017162D01*
X019266Y017013D02*
X019505Y017013D01*
X019505Y016915D02*
X019221Y016915D01*
X019176Y016816D02*
X019505Y016816D01*
X019505Y016718D02*
X019131Y016718D01*
X019127Y016709D02*
X019127Y016709D01*
X019049Y016619D02*
X019505Y016619D01*
X019505Y016521D02*
X018964Y016521D01*
X018879Y016422D02*
X019505Y016422D01*
X019505Y016324D02*
X018787Y016324D01*
X018801Y016333D02*
X018801Y016333D01*
X018801Y016333D01*
X018634Y016225D02*
X019505Y016225D01*
X019505Y016126D02*
X018480Y016126D01*
X018262Y016028D02*
X019505Y016028D01*
X019505Y015929D02*
X017926Y015929D01*
X017720Y015484D02*
X017590Y015484D01*
X017469Y015434D01*
X017377Y015341D01*
X017327Y015220D01*
X017327Y015090D01*
X017377Y014969D01*
X017469Y014877D01*
X017590Y014827D01*
X017658Y014827D01*
X018060Y014425D01*
X018231Y014425D01*
X018248Y014383D01*
X018383Y014248D01*
X018560Y014175D01*
X018751Y014175D01*
X018927Y014248D01*
X019062Y014383D01*
X019135Y014560D01*
X019135Y014751D01*
X019062Y014927D01*
X018927Y015062D01*
X018751Y015135D01*
X018560Y015135D01*
X018383Y015062D01*
X018248Y014927D01*
X018237Y014899D01*
X017984Y015152D01*
X017984Y015220D01*
X017934Y015341D01*
X017841Y015434D01*
X017720Y015484D01*
X017834Y015437D02*
X019505Y015437D01*
X019505Y015535D02*
X015600Y015535D01*
X015502Y015634D02*
X019505Y015634D01*
X019505Y015732D02*
X015479Y015732D01*
X015484Y015720D02*
X015434Y015841D01*
X015341Y015934D01*
X015283Y015958D01*
X015385Y016060D01*
X015385Y016250D01*
X015385Y016474D01*
X015434Y016474D01*
X015522Y016561D01*
X015522Y017079D01*
X015446Y017155D01*
X015522Y017231D01*
X015522Y017749D01*
X015434Y017837D01*
X015385Y017837D01*
X015385Y018000D01*
X015250Y018135D01*
X015000Y018385D01*
X014810Y018385D01*
X014390Y018385D01*
X014341Y018434D01*
X014220Y018484D01*
X014090Y018484D01*
X013969Y018434D01*
X013921Y018385D01*
X012310Y018385D01*
X012175Y018250D01*
X011925Y018000D01*
X011925Y017856D01*
X011896Y017856D01*
X011808Y017768D01*
X011808Y017211D01*
X011864Y017155D01*
X011838Y017129D01*
X011819Y017095D01*
X011808Y017057D01*
X011808Y016869D01*
X012106Y016869D01*
X012106Y016772D01*
X011808Y016772D01*
X011808Y016584D01*
X011819Y016546D01*
X011838Y016512D01*
X011866Y016484D01*
X011900Y016464D01*
X011939Y016454D01*
X012107Y016454D01*
X012107Y016772D01*
X012204Y016772D01*
X012204Y016869D01*
X012502Y016869D01*
X012502Y017057D01*
X012492Y017095D01*
X012472Y017129D01*
X012446Y017155D01*
X012502Y017211D01*
X012502Y017768D01*
X012423Y017848D01*
X012500Y017925D01*
X013921Y017925D01*
X013925Y017921D01*
X013925Y017876D01*
X013750Y017876D01*
X013663Y017788D01*
X013663Y017270D01*
X013750Y017182D01*
X014426Y017182D01*
X014514Y017270D01*
X014514Y017788D01*
X014426Y017876D01*
X014385Y017876D01*
X014385Y017921D01*
X014390Y017925D01*
X014810Y017925D01*
X014898Y017837D01*
X014876Y017837D01*
X014789Y017749D01*
X014789Y017231D01*
X014864Y017155D01*
X014789Y017079D01*
X014789Y017011D01*
X014514Y017011D01*
X014514Y017040D01*
X014426Y017128D01*
X013750Y017128D01*
X013663Y017040D01*
X013663Y016522D01*
X013750Y016434D01*
X014426Y016434D01*
X014514Y016522D01*
X014514Y016551D01*
X014799Y016551D01*
X014876Y016474D01*
X014925Y016474D01*
X014925Y016250D01*
X014658Y015984D01*
X014590Y015984D01*
X014469Y015934D01*
X014377Y015841D01*
X014327Y015720D01*
X014327Y015590D01*
X014377Y015469D01*
X014461Y015385D01*
X012955Y015385D01*
X012955Y015409D01*
X012864Y015500D01*
X011446Y015500D01*
X011355Y015409D01*
X011355Y014901D01*
X011371Y014885D01*
X011060Y014885D01*
X010925Y014750D01*
X010425Y014250D01*
X010425Y014060D01*
X010425Y006560D01*
X010560Y006425D01*
X010960Y006025D01*
X011150Y006025D01*
X011355Y006025D01*
X011355Y006001D01*
X011446Y005910D01*
X012864Y005910D01*
X012955Y006001D01*
X012955Y006509D01*
X012864Y006600D01*
X011446Y006600D01*
X011355Y006509D01*
X011355Y006485D01*
X011150Y006485D01*
X010885Y006750D01*
X010885Y014060D01*
X011250Y014425D01*
X011421Y014425D01*
X011355Y014359D01*
X011355Y013851D01*
X011446Y013760D01*
X012864Y013760D01*
X012955Y013851D01*
X012955Y013875D01*
X013610Y013875D01*
X017925Y009560D01*
X018060Y009425D01*
X018231Y009425D01*
X018248Y009383D01*
X018383Y009248D01*
X018560Y009175D01*
X018751Y009175D01*
X018927Y009248D01*
X019062Y009383D01*
X019135Y009560D01*
X019135Y009751D01*
X019062Y009927D01*
X018927Y010062D01*
X018751Y010135D01*
X018560Y010135D01*
X018383Y010062D01*
X018248Y009927D01*
X018237Y009899D01*
X013800Y014335D01*
X013610Y014335D01*
X012955Y014335D01*
X012955Y014359D01*
X012889Y014425D01*
X014060Y014425D01*
X017925Y010560D01*
X018060Y010425D01*
X018231Y010425D01*
X018248Y010383D01*
X018383Y010248D01*
X018560Y010175D01*
X018751Y010175D01*
X018927Y010248D01*
X019062Y010383D01*
X019135Y010560D01*
X019135Y010751D01*
X019062Y010927D01*
X018927Y011062D01*
X018751Y011135D01*
X018560Y011135D01*
X018383Y011062D01*
X018248Y010927D01*
X018237Y010899D01*
X014250Y014885D01*
X014060Y014885D01*
X012939Y014885D01*
X012955Y014901D01*
X012955Y014925D01*
X014560Y014925D01*
X018060Y011425D01*
X018231Y011425D01*
X018248Y011383D01*
X018383Y011248D01*
X018560Y011175D01*
X018751Y011175D01*
X018927Y011248D01*
X019062Y011383D01*
X019135Y011560D01*
X019135Y011751D01*
X019062Y011927D01*
X018927Y012062D01*
X018751Y012135D01*
X018560Y012135D01*
X018383Y012062D01*
X018248Y011927D01*
X018237Y011899D01*
X014783Y015353D01*
X014841Y015377D01*
X014905Y015441D01*
X014969Y015377D01*
X015090Y015327D01*
X015158Y015327D01*
X018060Y012425D01*
X018231Y012425D01*
X018248Y012383D01*
X018383Y012248D01*
X018560Y012175D01*
X018751Y012175D01*
X018927Y012248D01*
X019062Y012383D01*
X019135Y012560D01*
X019135Y012751D01*
X019062Y012927D01*
X018927Y013062D01*
X018751Y013135D01*
X018560Y013135D01*
X018383Y013062D01*
X018248Y012927D01*
X018237Y012899D01*
X015484Y015652D01*
X015484Y015720D01*
X015438Y015831D02*
X019505Y015831D01*
X019505Y015338D02*
X017935Y015338D01*
X017976Y015240D02*
X019505Y015240D01*
X019505Y015141D02*
X017994Y015141D01*
X018093Y015042D02*
X018364Y015042D01*
X018265Y014944D02*
X018192Y014944D01*
X017837Y014648D02*
X016487Y014648D01*
X016586Y014550D02*
X017935Y014550D01*
X018034Y014451D02*
X016684Y014451D01*
X016783Y014353D02*
X018279Y014353D01*
X018377Y014254D02*
X016881Y014254D01*
X016980Y014156D02*
X019505Y014156D01*
X019505Y014254D02*
X018933Y014254D01*
X019031Y014353D02*
X019505Y014353D01*
X019505Y014451D02*
X019090Y014451D01*
X019131Y014550D02*
X019505Y014550D01*
X019505Y014648D02*
X019135Y014648D01*
X019135Y014747D02*
X019505Y014747D01*
X019505Y014845D02*
X019096Y014845D01*
X019045Y014944D02*
X019505Y014944D01*
X019505Y015042D02*
X018947Y015042D01*
X018768Y014123D02*
X018704Y014133D01*
X018704Y013704D01*
X018607Y013704D01*
X018607Y014133D01*
X018543Y014123D01*
X018471Y014100D01*
X018404Y014066D01*
X018342Y014021D01*
X018289Y013968D01*
X018245Y013907D01*
X018210Y013839D01*
X018187Y013768D01*
X018177Y013704D01*
X018606Y013704D01*
X018606Y013607D01*
X018177Y013607D01*
X018187Y013543D01*
X018210Y013471D01*
X018245Y013404D01*
X018289Y013342D01*
X018342Y013289D01*
X018404Y013245D01*
X018471Y013210D01*
X018543Y013187D01*
X018607Y013177D01*
X018607Y013606D01*
X018704Y013606D01*
X018704Y013177D01*
X018768Y013187D01*
X018839Y013210D01*
X018907Y013245D01*
X018968Y013289D01*
X019021Y013342D01*
X019066Y013404D01*
X019100Y013471D01*
X019123Y013543D01*
X019133Y013607D01*
X018704Y013607D01*
X018704Y013704D01*
X019133Y013704D01*
X019123Y013768D01*
X019100Y013839D01*
X019066Y013907D01*
X019021Y013968D01*
X018968Y014021D01*
X018907Y014066D01*
X018839Y014100D01*
X018768Y014123D01*
X018704Y014057D02*
X018607Y014057D01*
X018607Y013958D02*
X018704Y013958D01*
X018704Y013860D02*
X018607Y013860D01*
X018607Y013761D02*
X018704Y013761D01*
X018704Y013663D02*
X019505Y013663D01*
X019505Y013761D02*
X019124Y013761D01*
X019089Y013860D02*
X019505Y013860D01*
X019505Y013958D02*
X019028Y013958D01*
X018919Y014057D02*
X019505Y014057D01*
X019505Y013564D02*
X019127Y013564D01*
X019097Y013466D02*
X019505Y013466D01*
X019505Y013367D02*
X019039Y013367D01*
X018940Y013269D02*
X019505Y013269D01*
X019505Y013170D02*
X017965Y013170D01*
X017867Y013269D02*
X018370Y013269D01*
X018271Y013367D02*
X017768Y013367D01*
X017670Y013466D02*
X018213Y013466D01*
X018184Y013564D02*
X017571Y013564D01*
X017473Y013663D02*
X018606Y013663D01*
X018607Y013564D02*
X018704Y013564D01*
X018704Y013466D02*
X018607Y013466D01*
X018607Y013367D02*
X018704Y013367D01*
X018704Y013269D02*
X018607Y013269D01*
X018406Y013072D02*
X018064Y013072D01*
X018162Y012973D02*
X018294Y012973D01*
X017906Y012579D02*
X017557Y012579D01*
X017655Y012480D02*
X018005Y012480D01*
X017852Y012283D02*
X018348Y012283D01*
X018250Y012382D02*
X017754Y012382D01*
X017951Y012185D02*
X018536Y012185D01*
X018441Y012086D02*
X018049Y012086D01*
X018148Y011988D02*
X018309Y011988D01*
X018774Y012185D02*
X019505Y012185D01*
X019505Y012283D02*
X018962Y012283D01*
X019061Y012382D02*
X019505Y012382D01*
X019505Y012480D02*
X019102Y012480D01*
X019135Y012579D02*
X019505Y012579D01*
X019505Y012677D02*
X019135Y012677D01*
X019125Y012776D02*
X019505Y012776D01*
X019505Y012874D02*
X019084Y012874D01*
X019016Y012973D02*
X019505Y012973D01*
X019505Y013072D02*
X018904Y013072D01*
X018186Y013761D02*
X017374Y013761D01*
X017276Y013860D02*
X018221Y013860D01*
X018282Y013958D02*
X017177Y013958D01*
X017078Y014057D02*
X018392Y014057D01*
X017738Y014747D02*
X016389Y014747D01*
X016290Y014845D02*
X017545Y014845D01*
X017402Y014944D02*
X016192Y014944D01*
X016093Y015042D02*
X017346Y015042D01*
X017327Y015141D02*
X015994Y015141D01*
X015896Y015240D02*
X017335Y015240D01*
X017375Y015338D02*
X015797Y015338D01*
X015699Y015437D02*
X017477Y015437D01*
X017384Y015929D02*
X015345Y015929D01*
X015353Y016028D02*
X017049Y016028D01*
X016830Y016126D02*
X015385Y016126D01*
X015385Y016225D02*
X016677Y016225D01*
X016523Y016324D02*
X015385Y016324D01*
X015385Y016422D02*
X016432Y016422D01*
X016509Y016333D02*
X016509Y016333D01*
X016346Y016521D02*
X015481Y016521D01*
X015522Y016619D02*
X016261Y016619D01*
X016183Y016709D02*
X016183Y016709D01*
X016179Y016718D02*
X015522Y016718D01*
X015522Y016816D02*
X016134Y016816D01*
X016089Y016915D02*
X015522Y016915D01*
X015522Y017013D02*
X016044Y017013D01*
X015999Y017112D02*
X015489Y017112D01*
X015501Y017210D02*
X015969Y017210D01*
X015976Y017162D02*
X015976Y017162D01*
X015955Y017309D02*
X015522Y017309D01*
X015522Y017407D02*
X015941Y017407D01*
X015927Y017506D02*
X015522Y017506D01*
X015522Y017605D02*
X015912Y017605D01*
X015905Y017655D02*
X015905Y017655D01*
X015912Y017703D02*
X015522Y017703D01*
X015469Y017802D02*
X015926Y017802D01*
X015940Y017900D02*
X015385Y017900D01*
X015385Y017999D02*
X015955Y017999D01*
X015969Y018097D02*
X015288Y018097D01*
X015190Y018196D02*
X015998Y018196D01*
X015976Y018148D02*
X015976Y018148D01*
X016043Y018294D02*
X015091Y018294D01*
X014835Y017900D02*
X014385Y017900D01*
X014500Y017802D02*
X014841Y017802D01*
X014789Y017703D02*
X014514Y017703D01*
X014514Y017605D02*
X014789Y017605D01*
X014789Y017506D02*
X014514Y017506D01*
X014514Y017407D02*
X014789Y017407D01*
X014789Y017309D02*
X014514Y017309D01*
X014454Y017210D02*
X014809Y017210D01*
X014821Y017112D02*
X014442Y017112D01*
X014514Y017013D02*
X014789Y017013D01*
X014829Y016521D02*
X014512Y016521D01*
X014925Y016422D02*
X003879Y016422D01*
X003801Y016333D02*
X003801Y016333D01*
X003801Y016333D01*
X003787Y016324D02*
X014925Y016324D01*
X014900Y016225D02*
X010569Y016225D01*
X010562Y016229D02*
X010521Y016240D01*
X010205Y016240D01*
X010205Y015805D01*
X010105Y015805D01*
X010105Y015705D01*
X010205Y015705D01*
X010205Y015270D01*
X010521Y015270D01*
X010562Y015281D01*
X010598Y015302D01*
X010628Y015332D01*
X010649Y015368D01*
X010660Y015409D01*
X010660Y015705D01*
X010205Y015705D01*
X010205Y015805D01*
X010660Y015805D01*
X010660Y016101D01*
X010649Y016142D01*
X010628Y016178D01*
X010598Y016208D01*
X010562Y016229D01*
X010653Y016126D02*
X014801Y016126D01*
X014703Y016028D02*
X010660Y016028D01*
X010660Y015929D02*
X014465Y015929D01*
X014372Y015831D02*
X010660Y015831D01*
X010660Y015634D02*
X014327Y015634D01*
X014332Y015732D02*
X010205Y015732D01*
X010205Y015634D02*
X010105Y015634D01*
X010105Y015705D02*
X010105Y015270D01*
X009789Y015270D01*
X009748Y015281D01*
X009712Y015302D01*
X009682Y015332D01*
X009661Y015368D01*
X009650Y015409D01*
X009650Y015705D01*
X010105Y015705D01*
X010105Y015732D02*
X002325Y015732D01*
X002325Y015634D02*
X002478Y015634D01*
X002489Y015638D02*
X002321Y015569D01*
X002489Y015638D02*
X002721Y015638D01*
X002935Y015549D01*
X003099Y015385D01*
X003188Y015171D01*
X003188Y015155D01*
X005155Y015155D01*
X005155Y005155D01*
X003085Y005155D01*
X002958Y005027D01*
X002729Y004933D01*
X002481Y004933D01*
X002253Y005027D01*
X002125Y005155D01*
X001809Y005155D01*
X001831Y005149D01*
X001868Y005128D01*
X001898Y005098D01*
X001919Y005061D01*
X001930Y005021D01*
X001930Y004705D01*
X001455Y004705D01*
X001455Y004605D01*
X001455Y004150D01*
X001778Y004150D01*
X001509Y003978D01*
X001509Y003978D01*
X001509Y003978D01*
X001183Y003601D01*
X000976Y003148D01*
X000905Y002655D01*
X000976Y002162D01*
X001183Y001709D01*
X001509Y001333D01*
X001928Y001063D01*
X001928Y001063D01*
X002406Y000923D01*
X002904Y000923D01*
X002904Y000923D01*
X003382Y001063D01*
X003801Y001333D01*
X004127Y001709D01*
X004334Y002162D01*
X004334Y002162D01*
X004405Y002655D01*
X004334Y003148D01*
X004334Y003148D01*
X004127Y003601D01*
X004127Y003601D01*
X003801Y003978D01*
X003382Y004247D01*
X002904Y004387D01*
X002406Y004387D01*
X001928Y004247D01*
X001912Y004237D01*
X001919Y004249D01*
X001930Y004290D01*
X001930Y004605D01*
X001455Y004605D01*
X001355Y004605D01*
X001355Y004150D01*
X001020Y004150D01*
X000979Y004161D01*
X000942Y004182D01*
X000912Y004212D01*
X000891Y004249D01*
X000880Y004290D01*
X000880Y004605D01*
X001355Y004605D01*
X001355Y004705D01*
X000880Y004705D01*
X000880Y005021D01*
X000891Y005061D01*
X000912Y005098D01*
X000942Y005128D01*
X000979Y005149D01*
X001001Y005155D01*
X000805Y005155D01*
X000805Y002717D01*
X000805Y002707D01*
X000805Y002655D01*
X000817Y002448D01*
X000909Y002044D01*
X001089Y001671D01*
X001113Y001641D02*
X001242Y001641D01*
X001183Y001709D02*
X001183Y001709D01*
X001169Y001739D02*
X001056Y001739D01*
X001008Y001838D02*
X001124Y001838D01*
X001079Y001936D02*
X000961Y001936D01*
X000913Y002035D02*
X001034Y002035D01*
X000989Y002133D02*
X000889Y002133D01*
X000976Y002162D02*
X000976Y002162D01*
X000966Y002232D02*
X000866Y002232D01*
X000844Y002330D02*
X000952Y002330D01*
X000938Y002429D02*
X000821Y002429D01*
X000812Y002527D02*
X000923Y002527D01*
X000909Y002626D02*
X000807Y002626D01*
X000805Y002725D02*
X000915Y002725D01*
X000905Y002655D02*
X000905Y002655D01*
X000929Y002823D02*
X000805Y002823D01*
X000805Y002922D02*
X000943Y002922D01*
X000958Y003020D02*
X000805Y003020D01*
X000805Y003119D02*
X000972Y003119D01*
X000976Y003148D02*
X000976Y003148D01*
X001008Y003217D02*
X000805Y003217D01*
X000805Y003316D02*
X001053Y003316D01*
X001098Y003414D02*
X000805Y003414D01*
X000805Y003513D02*
X001143Y003513D01*
X001183Y003601D02*
X001183Y003601D01*
X001192Y003611D02*
X000805Y003611D01*
X000805Y003710D02*
X001277Y003710D01*
X001363Y003809D02*
X000805Y003809D01*
X000805Y003907D02*
X001448Y003907D01*
X001553Y004006D02*
X000805Y004006D01*
X000805Y004104D02*
X001706Y004104D01*
X001928Y004247D02*
X001928Y004247D01*
X001930Y004301D02*
X002113Y004301D01*
X001930Y004400D02*
X019505Y004400D01*
X019505Y004498D02*
X001930Y004498D01*
X001930Y004597D02*
X019505Y004597D01*
X019505Y004695D02*
X001455Y004695D01*
X001455Y004597D02*
X001355Y004597D01*
X001355Y004695D02*
X000805Y004695D01*
X000805Y004597D02*
X000880Y004597D01*
X000880Y004498D02*
X000805Y004498D01*
X000805Y004400D02*
X000880Y004400D01*
X000880Y004301D02*
X000805Y004301D01*
X000805Y004203D02*
X000922Y004203D01*
X001355Y004203D02*
X001455Y004203D01*
X001455Y004301D02*
X001355Y004301D01*
X001355Y004400D02*
X001455Y004400D01*
X001455Y004498D02*
X001355Y004498D01*
X000880Y004794D02*
X000805Y004794D01*
X000805Y004892D02*
X000880Y004892D01*
X000880Y004991D02*
X000805Y004991D01*
X000805Y005090D02*
X000907Y005090D01*
X001903Y005090D02*
X002190Y005090D01*
X002340Y004991D02*
X001930Y004991D01*
X001930Y004892D02*
X019505Y004892D01*
X019505Y004794D02*
X001930Y004794D01*
X002406Y004387D02*
X002406Y004387D01*
X002904Y004387D02*
X002904Y004387D01*
X003197Y004301D02*
X017113Y004301D01*
X016859Y004203D02*
X003451Y004203D01*
X003382Y004247D02*
X003382Y004247D01*
X003604Y004104D02*
X016706Y004104D01*
X016553Y004006D02*
X003758Y004006D01*
X003801Y003978D02*
X003801Y003978D01*
X003862Y003907D02*
X016448Y003907D01*
X016363Y003809D02*
X007577Y003809D01*
X007675Y003710D02*
X016277Y003710D01*
X016192Y003611D02*
X007774Y003611D01*
X007873Y003513D02*
X016143Y003513D01*
X016098Y003414D02*
X015860Y003414D01*
X015944Y003316D02*
X016053Y003316D01*
X016008Y003217D02*
X015984Y003217D01*
X015958Y003020D02*
X015955Y003020D01*
X015943Y002922D02*
X015886Y002922D01*
X015885Y002823D02*
X015929Y002823D01*
X015915Y002725D02*
X015885Y002725D01*
X015885Y002626D02*
X015909Y002626D01*
X015923Y002527D02*
X015885Y002527D01*
X015885Y002429D02*
X015938Y002429D01*
X015952Y002330D02*
X015885Y002330D01*
X015885Y002232D02*
X015966Y002232D01*
X015989Y002133D02*
X015885Y002133D01*
X015860Y002035D02*
X016034Y002035D01*
X016079Y001936D02*
X015761Y001936D01*
X015663Y001838D02*
X016124Y001838D01*
X016169Y001739D02*
X015564Y001739D01*
X015466Y001641D02*
X016242Y001641D01*
X016328Y001542D02*
X015367Y001542D01*
X015269Y001443D02*
X016413Y001443D01*
X016498Y001345D02*
X015170Y001345D01*
X015072Y001246D02*
X016643Y001246D01*
X016797Y001148D02*
X014973Y001148D01*
X014875Y001049D02*
X016976Y001049D01*
X017311Y000951D02*
X013939Y000951D01*
X013899Y000852D02*
X018018Y000852D01*
X017999Y000951D02*
X018353Y000951D01*
X018334Y001049D02*
X018558Y001049D01*
X018514Y001148D02*
X018714Y001148D01*
X018667Y001246D02*
X018837Y001246D01*
X018812Y001345D02*
X018961Y001345D01*
X018897Y001443D02*
X019040Y001443D01*
X018983Y001542D02*
X019119Y001542D01*
X019068Y001641D02*
X019197Y001641D01*
X019141Y001739D02*
X019254Y001739D01*
X019302Y001838D02*
X019186Y001838D01*
X019231Y001936D02*
X019349Y001936D01*
X019397Y002035D02*
X019276Y002035D01*
X019321Y002133D02*
X019422Y002133D01*
X019334Y002162D02*
X019334Y002162D01*
X019344Y002232D02*
X019444Y002232D01*
X019467Y002330D02*
X019358Y002330D01*
X019373Y002429D02*
X019489Y002429D01*
X019498Y002527D02*
X019387Y002527D01*
X019401Y002626D02*
X019504Y002626D01*
X019505Y002725D02*
X019395Y002725D01*
X019381Y002823D02*
X019505Y002823D01*
X019505Y002922D02*
X019367Y002922D01*
X019353Y003020D02*
X019505Y003020D01*
X019505Y003119D02*
X019338Y003119D01*
X019303Y003217D02*
X019505Y003217D01*
X019505Y003316D02*
X019258Y003316D01*
X019213Y003414D02*
X019505Y003414D01*
X019505Y003513D02*
X019168Y003513D01*
X019118Y003611D02*
X019505Y003611D01*
X019505Y003710D02*
X019033Y003710D01*
X018948Y003809D02*
X019505Y003809D01*
X019505Y003907D02*
X018862Y003907D01*
X018758Y004006D02*
X019505Y004006D01*
X019505Y004104D02*
X018604Y004104D01*
X018451Y004203D02*
X019505Y004203D01*
X019505Y004301D02*
X018197Y004301D01*
X018560Y005175D02*
X018383Y005248D01*
X018248Y005383D01*
X018231Y005425D01*
X018060Y005425D01*
X017925Y005560D01*
X016460Y007025D01*
X012955Y007025D01*
X012955Y007001D01*
X012864Y006910D01*
X011446Y006910D01*
X011355Y007001D01*
X011355Y007509D01*
X011446Y007600D01*
X012864Y007600D01*
X012955Y007509D01*
X012955Y007485D01*
X016460Y007485D01*
X016650Y007485D01*
X018237Y005899D01*
X018248Y005927D01*
X018383Y006062D01*
X018560Y006135D01*
X018751Y006135D01*
X018927Y006062D01*
X019062Y005927D01*
X019135Y005751D01*
X019135Y005560D01*
X019062Y005383D01*
X018927Y005248D01*
X018751Y005175D01*
X018560Y005175D01*
X018528Y005188D02*
X012955Y005188D01*
X012955Y005101D02*
X012955Y005609D01*
X012864Y005700D01*
X011446Y005700D01*
X011355Y005609D01*
X011355Y005101D01*
X011446Y005010D01*
X012864Y005010D01*
X012955Y005101D01*
X012943Y005090D02*
X019505Y005090D01*
X019505Y005188D02*
X018782Y005188D01*
X018965Y005287D02*
X019505Y005287D01*
X019505Y005385D02*
X019063Y005385D01*
X019104Y005484D02*
X019505Y005484D01*
X019505Y005582D02*
X019135Y005582D01*
X019135Y005681D02*
X019505Y005681D01*
X019505Y005779D02*
X019123Y005779D01*
X019082Y005878D02*
X019505Y005878D01*
X019505Y005976D02*
X019013Y005976D01*
X018896Y006075D02*
X019505Y006075D01*
X019505Y006174D02*
X017962Y006174D01*
X017863Y006272D02*
X018359Y006272D01*
X018383Y006248D02*
X018560Y006175D01*
X018751Y006175D01*
X018927Y006248D01*
X019062Y006383D01*
X019135Y006560D01*
X019135Y006751D01*
X019062Y006927D01*
X018927Y007062D01*
X018751Y007135D01*
X018560Y007135D01*
X018383Y007062D01*
X018248Y006927D01*
X018237Y006899D01*
X016650Y008485D01*
X016460Y008485D01*
X012955Y008485D01*
X012955Y008509D01*
X012864Y008600D01*
X011446Y008600D01*
X011355Y008509D01*
X011355Y008001D01*
X011446Y007910D01*
X012864Y007910D01*
X012955Y008001D01*
X012955Y008025D01*
X016460Y008025D01*
X017925Y006560D01*
X018060Y006425D01*
X018231Y006425D01*
X018248Y006383D01*
X018383Y006248D01*
X018261Y006371D02*
X017765Y006371D01*
X017666Y006469D02*
X018016Y006469D01*
X017917Y006568D02*
X017568Y006568D01*
X017469Y006666D02*
X017819Y006666D01*
X017720Y006765D02*
X017371Y006765D01*
X017272Y006863D02*
X017622Y006863D01*
X017523Y006962D02*
X017174Y006962D01*
X017075Y007060D02*
X017425Y007060D01*
X017326Y007159D02*
X016976Y007159D01*
X016878Y007258D02*
X017227Y007258D01*
X017129Y007356D02*
X016779Y007356D01*
X016681Y007455D02*
X017030Y007455D01*
X016932Y007553D02*
X012911Y007553D01*
X012901Y007947D02*
X016538Y007947D01*
X016636Y007849D02*
X010885Y007849D01*
X010885Y007947D02*
X011409Y007947D01*
X011355Y008046D02*
X010885Y008046D01*
X010885Y008144D02*
X011355Y008144D01*
X011355Y008243D02*
X010885Y008243D01*
X010885Y008341D02*
X011355Y008341D01*
X011355Y008440D02*
X010885Y008440D01*
X010885Y008539D02*
X011385Y008539D01*
X011490Y008860D02*
X012108Y008860D01*
X012108Y009157D01*
X012203Y009157D01*
X012203Y008860D01*
X012820Y008860D01*
X012859Y008871D01*
X012895Y008891D01*
X012924Y008920D01*
X012944Y008956D01*
X012955Y008995D01*
X012955Y009158D01*
X012203Y009158D01*
X012203Y009253D01*
X012108Y009253D01*
X012108Y009550D01*
X011490Y009550D01*
X011451Y009539D01*
X011415Y009519D01*
X011386Y009490D01*
X011366Y009454D01*
X011355Y009415D01*
X011355Y009253D01*
X012107Y009253D01*
X012107Y009158D01*
X011355Y009158D01*
X011355Y008995D01*
X011366Y008956D01*
X011386Y008920D01*
X011415Y008891D01*
X011451Y008871D01*
X011490Y008860D01*
X011379Y008933D02*
X010885Y008933D01*
X010885Y009031D02*
X011355Y009031D01*
X011355Y009130D02*
X010885Y009130D01*
X010885Y009228D02*
X012107Y009228D01*
X012203Y009228D02*
X013308Y009228D01*
X013308Y009272D02*
X013308Y009084D01*
X013319Y009046D01*
X013338Y009012D01*
X013366Y008984D01*
X013400Y008964D01*
X013439Y008954D01*
X013607Y008954D01*
X013607Y009272D01*
X013704Y009272D01*
X013704Y009369D01*
X014002Y009369D01*
X014002Y009557D01*
X013992Y009595D01*
X013972Y009629D01*
X013946Y009655D01*
X014002Y009711D01*
X014002Y009760D01*
X014308Y009760D01*
X014308Y009711D01*
X014364Y009655D01*
X014338Y009629D01*
X014319Y009595D01*
X014308Y009557D01*
X014308Y009369D01*
X014606Y009369D01*
X014606Y009272D01*
X014308Y009272D01*
X014308Y009084D01*
X014319Y009046D01*
X014338Y009012D01*
X014366Y008984D01*
X014400Y008964D01*
X014439Y008954D01*
X014607Y008954D01*
X014607Y009272D01*
X014704Y009272D01*
X014704Y009369D01*
X015002Y009369D01*
X015002Y009557D01*
X014992Y009595D01*
X014975Y009624D01*
X015090Y009577D01*
X015220Y009577D01*
X015341Y009627D01*
X015434Y009719D01*
X015484Y009840D01*
X015484Y009970D01*
X015461Y010024D01*
X017925Y007560D01*
X017925Y007560D01*
X018060Y007425D01*
X018231Y007425D01*
X018248Y007383D01*
X018383Y007248D01*
X018560Y007175D01*
X018751Y007175D01*
X018927Y007248D01*
X019062Y007383D01*
X019135Y007560D01*
X019135Y007751D01*
X019062Y007927D01*
X018927Y008062D01*
X018751Y008135D01*
X018560Y008135D01*
X018383Y008062D01*
X018248Y007927D01*
X018237Y007899D01*
X014835Y011300D01*
X014835Y011300D01*
X014700Y011435D01*
X012955Y011435D01*
X012955Y011459D01*
X012864Y011550D01*
X011446Y011550D01*
X011355Y011459D01*
X011355Y010951D01*
X011446Y010860D01*
X012864Y010860D01*
X012955Y010951D01*
X012955Y010975D01*
X014510Y010975D01*
X015274Y010211D01*
X015220Y010234D01*
X015090Y010234D01*
X015056Y010220D01*
X015002Y010220D01*
X015002Y010268D01*
X014914Y010356D01*
X014396Y010356D01*
X014308Y010268D01*
X014308Y010220D01*
X014002Y010220D01*
X014002Y010268D01*
X013914Y010356D01*
X013614Y010356D01*
X013535Y010435D01*
X013344Y010435D01*
X012955Y010435D01*
X012955Y010459D01*
X012864Y010550D01*
X011446Y010550D01*
X011355Y010459D01*
X011355Y009951D01*
X011446Y009860D01*
X012864Y009860D01*
X012955Y009951D01*
X012955Y009975D01*
X013308Y009975D01*
X013308Y009711D01*
X013364Y009655D01*
X013338Y009629D01*
X013319Y009595D01*
X013308Y009557D01*
X013308Y009369D01*
X013606Y009369D01*
X013606Y009272D01*
X013308Y009272D01*
X013308Y009130D02*
X012955Y009130D01*
X012955Y009031D02*
X013327Y009031D01*
X013607Y009031D02*
X013704Y009031D01*
X013704Y008954D02*
X013872Y008954D01*
X013910Y008964D01*
X013944Y008984D01*
X013972Y009012D01*
X013992Y009046D01*
X014002Y009084D01*
X014002Y009272D01*
X013704Y009272D01*
X013704Y008954D01*
X013704Y009130D02*
X013607Y009130D01*
X013607Y009228D02*
X013704Y009228D01*
X013704Y009327D02*
X014606Y009327D01*
X014704Y009327D02*
X016158Y009327D01*
X016060Y009425D02*
X015002Y009425D01*
X015002Y009524D02*
X015961Y009524D01*
X015862Y009623D02*
X015331Y009623D01*
X015434Y009721D02*
X015764Y009721D01*
X015665Y009820D02*
X015475Y009820D01*
X015484Y009918D02*
X015567Y009918D01*
X015468Y010017D02*
X015464Y010017D01*
X015271Y010214D02*
X015268Y010214D01*
X015173Y010312D02*
X014958Y010312D01*
X015074Y010411D02*
X013559Y010411D01*
X013958Y010312D02*
X014352Y010312D01*
X014778Y010707D02*
X010885Y010707D01*
X010885Y010805D02*
X014680Y010805D01*
X014581Y010904D02*
X012907Y010904D01*
X012904Y010509D02*
X014976Y010509D01*
X014877Y010608D02*
X010885Y010608D01*
X010885Y010509D02*
X011406Y010509D01*
X011355Y010411D02*
X010885Y010411D01*
X010885Y010312D02*
X011355Y010312D01*
X011355Y010214D02*
X010885Y010214D01*
X010885Y010115D02*
X011355Y010115D01*
X011355Y010017D02*
X010885Y010017D01*
X010885Y009918D02*
X011388Y009918D01*
X011424Y009524D02*
X010885Y009524D01*
X010885Y009425D02*
X011358Y009425D01*
X011355Y009327D02*
X010885Y009327D01*
X010885Y009623D02*
X013334Y009623D01*
X013308Y009721D02*
X010885Y009721D01*
X010885Y009820D02*
X013308Y009820D01*
X013308Y009918D02*
X012922Y009918D01*
X012820Y009550D02*
X012203Y009550D01*
X012203Y009253D01*
X012955Y009253D01*
X012955Y009415D01*
X012944Y009454D01*
X012924Y009490D01*
X012895Y009519D01*
X012859Y009539D01*
X012820Y009550D01*
X012886Y009524D02*
X013308Y009524D01*
X013308Y009425D02*
X012952Y009425D01*
X012955Y009327D02*
X013606Y009327D01*
X014002Y009425D02*
X014308Y009425D01*
X014308Y009524D02*
X014002Y009524D01*
X013976Y009623D02*
X014334Y009623D01*
X014308Y009721D02*
X014002Y009721D01*
X014002Y009228D02*
X014308Y009228D01*
X014308Y009130D02*
X014002Y009130D01*
X013983Y009031D02*
X014327Y009031D01*
X014607Y009031D02*
X014704Y009031D01*
X014704Y008954D02*
X014872Y008954D01*
X014910Y008964D01*
X014944Y008984D01*
X014972Y009012D01*
X014992Y009046D01*
X015002Y009084D01*
X015002Y009272D01*
X014704Y009272D01*
X014704Y008954D01*
X014704Y009130D02*
X014607Y009130D01*
X014607Y009228D02*
X014704Y009228D01*
X015002Y009228D02*
X016257Y009228D01*
X016355Y009130D02*
X015002Y009130D01*
X014983Y009031D02*
X016454Y009031D01*
X016552Y008933D02*
X012931Y008933D01*
X012925Y008539D02*
X016946Y008539D01*
X016848Y008637D02*
X010885Y008637D01*
X010885Y008736D02*
X016749Y008736D01*
X016651Y008834D02*
X010885Y008834D01*
X010425Y008834D02*
X005155Y008834D01*
X005155Y008736D02*
X010425Y008736D01*
X010425Y008637D02*
X005155Y008637D01*
X005155Y008539D02*
X010425Y008539D01*
X010425Y008440D02*
X005155Y008440D01*
X005155Y008341D02*
X010425Y008341D01*
X010425Y008243D02*
X005155Y008243D01*
X005155Y008144D02*
X010425Y008144D01*
X010425Y008046D02*
X005155Y008046D01*
X005155Y007947D02*
X010425Y007947D01*
X010425Y007849D02*
X005155Y007849D01*
X005155Y007750D02*
X010425Y007750D01*
X010425Y007652D02*
X005155Y007652D01*
X005155Y007553D02*
X010425Y007553D01*
X010425Y007455D02*
X005155Y007455D01*
X005155Y007356D02*
X010425Y007356D01*
X010425Y007258D02*
X005155Y007258D01*
X005155Y007159D02*
X010425Y007159D01*
X010425Y007060D02*
X005155Y007060D01*
X005155Y006962D02*
X010425Y006962D01*
X010425Y006863D02*
X005155Y006863D01*
X005155Y006765D02*
X010425Y006765D01*
X010425Y006666D02*
X005155Y006666D01*
X005155Y006568D02*
X010425Y006568D01*
X010516Y006469D02*
X005155Y006469D01*
X005155Y006371D02*
X010614Y006371D01*
X010713Y006272D02*
X005155Y006272D01*
X005155Y006174D02*
X010811Y006174D01*
X010910Y006075D02*
X005155Y006075D01*
X005155Y005976D02*
X011380Y005976D01*
X011427Y005681D02*
X005155Y005681D01*
X005155Y005779D02*
X017706Y005779D01*
X017804Y005681D02*
X012883Y005681D01*
X012955Y005582D02*
X017903Y005582D01*
X018001Y005484D02*
X012955Y005484D01*
X012955Y005385D02*
X018247Y005385D01*
X018345Y005287D02*
X012955Y005287D01*
X012930Y005976D02*
X017509Y005976D01*
X017607Y005878D02*
X005155Y005878D01*
X005155Y005582D02*
X011355Y005582D01*
X011355Y005484D02*
X005155Y005484D01*
X005155Y005385D02*
X011355Y005385D01*
X011355Y005287D02*
X005155Y005287D01*
X005155Y005188D02*
X011355Y005188D01*
X011367Y005090D02*
X003020Y005090D01*
X002870Y004991D02*
X019505Y004991D01*
X019505Y006272D02*
X018951Y006272D01*
X019049Y006371D02*
X019505Y006371D01*
X019505Y006469D02*
X019098Y006469D01*
X019135Y006568D02*
X019505Y006568D01*
X019505Y006666D02*
X019135Y006666D01*
X019129Y006765D02*
X019505Y006765D01*
X019505Y006863D02*
X019088Y006863D01*
X019027Y006962D02*
X019505Y006962D01*
X019505Y007060D02*
X018929Y007060D01*
X018936Y007258D02*
X019505Y007258D01*
X019505Y007356D02*
X019035Y007356D01*
X019092Y007455D02*
X019505Y007455D01*
X019505Y007553D02*
X019132Y007553D01*
X019135Y007652D02*
X019505Y007652D01*
X019505Y007750D02*
X019135Y007750D01*
X019094Y007849D02*
X019505Y007849D01*
X019505Y007947D02*
X019042Y007947D01*
X018943Y008046D02*
X019505Y008046D01*
X019505Y008144D02*
X017991Y008144D01*
X018090Y008046D02*
X018367Y008046D01*
X018269Y007947D02*
X018188Y007947D01*
X018383Y008248D02*
X018560Y008175D01*
X018751Y008175D01*
X018927Y008248D01*
X019062Y008383D01*
X019135Y008560D01*
X019135Y008751D01*
X019062Y008927D01*
X018927Y009062D01*
X018751Y009135D01*
X018560Y009135D01*
X018383Y009062D01*
X018248Y008927D01*
X018237Y008899D01*
X013750Y013385D01*
X013560Y013385D01*
X012955Y013385D01*
X012955Y013409D01*
X012864Y013500D01*
X011446Y013500D01*
X011355Y013409D01*
X011355Y012901D01*
X011446Y012810D01*
X012864Y012810D01*
X012955Y012901D01*
X012955Y012925D01*
X013560Y012925D01*
X017925Y008560D01*
X018060Y008425D01*
X018231Y008425D01*
X018248Y008383D01*
X018383Y008248D01*
X018396Y008243D02*
X017892Y008243D01*
X017794Y008341D02*
X018290Y008341D01*
X018045Y008440D02*
X017695Y008440D01*
X017597Y008539D02*
X017946Y008539D01*
X017848Y008637D02*
X017498Y008637D01*
X017400Y008736D02*
X017749Y008736D01*
X017651Y008834D02*
X017301Y008834D01*
X017203Y008933D02*
X017552Y008933D01*
X017454Y009031D02*
X017104Y009031D01*
X017006Y009130D02*
X017355Y009130D01*
X017257Y009228D02*
X016907Y009228D01*
X016808Y009327D02*
X017158Y009327D01*
X017059Y009425D02*
X016710Y009425D01*
X016611Y009524D02*
X016961Y009524D01*
X016862Y009623D02*
X016513Y009623D01*
X016414Y009721D02*
X016764Y009721D01*
X016665Y009820D02*
X016316Y009820D01*
X016217Y009918D02*
X016567Y009918D01*
X016468Y010017D02*
X016119Y010017D01*
X016020Y010115D02*
X016370Y010115D01*
X016271Y010214D02*
X015922Y010214D01*
X015823Y010312D02*
X016173Y010312D01*
X016074Y010411D02*
X015724Y010411D01*
X015626Y010509D02*
X015976Y010509D01*
X015877Y010608D02*
X015527Y010608D01*
X015429Y010707D02*
X015778Y010707D01*
X015680Y010805D02*
X015330Y010805D01*
X015232Y010904D02*
X015581Y010904D01*
X015483Y011002D02*
X015133Y011002D01*
X015035Y011101D02*
X015384Y011101D01*
X015286Y011199D02*
X014936Y011199D01*
X014838Y011298D02*
X015187Y011298D01*
X015089Y011396D02*
X014739Y011396D01*
X014892Y011593D02*
X010885Y011593D01*
X010885Y011495D02*
X011391Y011495D01*
X011355Y011396D02*
X010885Y011396D01*
X010885Y011298D02*
X011355Y011298D01*
X011355Y011199D02*
X010885Y011199D01*
X010885Y011101D02*
X011355Y011101D01*
X011355Y011002D02*
X010885Y011002D01*
X010885Y010904D02*
X011403Y010904D01*
X010885Y011692D02*
X014793Y011692D01*
X014694Y011791D02*
X010885Y011791D01*
X010885Y011889D02*
X011367Y011889D01*
X011355Y011901D02*
X011446Y011810D01*
X012864Y011810D01*
X012955Y011901D01*
X012955Y011925D01*
X013421Y011925D01*
X013469Y011877D01*
X013590Y011827D01*
X013720Y011827D01*
X013841Y011877D01*
X013934Y011969D01*
X013984Y012090D01*
X013984Y012220D01*
X013934Y012341D01*
X013841Y012434D01*
X013720Y012484D01*
X013590Y012484D01*
X013469Y012434D01*
X013421Y012385D01*
X012955Y012385D01*
X012955Y012409D01*
X012864Y012500D01*
X011446Y012500D01*
X011355Y012409D01*
X011355Y011901D01*
X011355Y011988D02*
X010885Y011988D01*
X010885Y012086D02*
X011355Y012086D01*
X011355Y012185D02*
X010885Y012185D01*
X010885Y012283D02*
X011355Y012283D01*
X011355Y012382D02*
X010885Y012382D01*
X010885Y012480D02*
X011427Y012480D01*
X011382Y012874D02*
X010885Y012874D01*
X010885Y012776D02*
X013709Y012776D01*
X013610Y012874D02*
X012928Y012874D01*
X012884Y012480D02*
X013582Y012480D01*
X013728Y012480D02*
X014005Y012480D01*
X014103Y012382D02*
X013893Y012382D01*
X013958Y012283D02*
X014202Y012283D01*
X014300Y012185D02*
X013984Y012185D01*
X013982Y012086D02*
X014399Y012086D01*
X014497Y011988D02*
X013941Y011988D01*
X013854Y011889D02*
X014596Y011889D01*
X014951Y012185D02*
X015300Y012185D01*
X015202Y012283D02*
X014852Y012283D01*
X014754Y012382D02*
X015103Y012382D01*
X015005Y012480D02*
X014655Y012480D01*
X014557Y012579D02*
X014906Y012579D01*
X014808Y012677D02*
X014458Y012677D01*
X014359Y012776D02*
X014709Y012776D01*
X014610Y012874D02*
X014261Y012874D01*
X014162Y012973D02*
X014512Y012973D01*
X014413Y013072D02*
X014064Y013072D01*
X013965Y013170D02*
X014315Y013170D01*
X014216Y013269D02*
X013867Y013269D01*
X013768Y013367D02*
X014118Y013367D01*
X014019Y013466D02*
X012898Y013466D01*
X012865Y013761D02*
X013724Y013761D01*
X013822Y013663D02*
X010885Y013663D01*
X010885Y013761D02*
X011445Y013761D01*
X011355Y013860D02*
X010885Y013860D01*
X010885Y013958D02*
X011355Y013958D01*
X011355Y014057D02*
X010885Y014057D01*
X010981Y014156D02*
X011355Y014156D01*
X011355Y014254D02*
X011079Y014254D01*
X011178Y014353D02*
X011355Y014353D01*
X010922Y014747D02*
X005155Y014747D01*
X005155Y014845D02*
X011020Y014845D01*
X010823Y014648D02*
X005155Y014648D01*
X005155Y014550D02*
X010724Y014550D01*
X010626Y014451D02*
X005155Y014451D01*
X005155Y014353D02*
X010527Y014353D01*
X010429Y014254D02*
X005155Y014254D01*
X005155Y014156D02*
X010425Y014156D01*
X010425Y014057D02*
X005155Y014057D01*
X005155Y013958D02*
X010425Y013958D01*
X010425Y013860D02*
X005155Y013860D01*
X005155Y013761D02*
X010425Y013761D01*
X010425Y013663D02*
X005155Y013663D01*
X005155Y013564D02*
X010425Y013564D01*
X010425Y013466D02*
X005155Y013466D01*
X005155Y013367D02*
X010425Y013367D01*
X010425Y013269D02*
X005155Y013269D01*
X005155Y013170D02*
X010425Y013170D01*
X010425Y013072D02*
X005155Y013072D01*
X005155Y012973D02*
X010425Y012973D01*
X010425Y012874D02*
X005155Y012874D01*
X005155Y012776D02*
X010425Y012776D01*
X010425Y012677D02*
X005155Y012677D01*
X005155Y012579D02*
X010425Y012579D01*
X010425Y012480D02*
X005155Y012480D01*
X005155Y012382D02*
X010425Y012382D01*
X010425Y012283D02*
X005155Y012283D01*
X005155Y012185D02*
X010425Y012185D01*
X010425Y012086D02*
X005155Y012086D01*
X005155Y011988D02*
X010425Y011988D01*
X010425Y011889D02*
X005155Y011889D01*
X005155Y011791D02*
X010425Y011791D01*
X010425Y011692D02*
X005155Y011692D01*
X005155Y011593D02*
X010425Y011593D01*
X010425Y011495D02*
X005155Y011495D01*
X005155Y011396D02*
X010425Y011396D01*
X010425Y011298D02*
X005155Y011298D01*
X005155Y011199D02*
X010425Y011199D01*
X010425Y011101D02*
X005155Y011101D01*
X005155Y011002D02*
X010425Y011002D01*
X010425Y010904D02*
X005155Y010904D01*
X005155Y010805D02*
X010425Y010805D01*
X010425Y010707D02*
X005155Y010707D01*
X005155Y010608D02*
X010425Y010608D01*
X010425Y010509D02*
X005155Y010509D01*
X005155Y010411D02*
X010425Y010411D01*
X010425Y010312D02*
X005155Y010312D01*
X005155Y010214D02*
X010425Y010214D01*
X010425Y010115D02*
X005155Y010115D01*
X005155Y010017D02*
X010425Y010017D01*
X010425Y009918D02*
X005155Y009918D01*
X005155Y009820D02*
X010425Y009820D01*
X010425Y009721D02*
X005155Y009721D01*
X005155Y009623D02*
X010425Y009623D01*
X010425Y009524D02*
X005155Y009524D01*
X005155Y009425D02*
X010425Y009425D01*
X010425Y009327D02*
X005155Y009327D01*
X005155Y009228D02*
X010425Y009228D01*
X010425Y009130D02*
X005155Y009130D01*
X005155Y009031D02*
X010425Y009031D01*
X010425Y008933D02*
X005155Y008933D01*
X005733Y003809D02*
X003948Y003809D01*
X004033Y003710D02*
X005635Y003710D01*
X005536Y003611D02*
X004118Y003611D01*
X004168Y003513D02*
X005438Y003513D01*
X005413Y003414D02*
X004213Y003414D01*
X004258Y003316D02*
X005413Y003316D01*
X005413Y003217D02*
X004303Y003217D01*
X004338Y003119D02*
X005413Y003119D01*
X005413Y003020D02*
X004353Y003020D01*
X004367Y002922D02*
X005413Y002922D01*
X005413Y002823D02*
X004381Y002823D01*
X004395Y002725D02*
X005231Y002725D01*
X005140Y002626D02*
X004401Y002626D01*
X004387Y002527D02*
X005109Y002527D01*
X005118Y002429D02*
X004373Y002429D01*
X004358Y002330D02*
X005174Y002330D01*
X005148Y002091D02*
X005091Y002100D01*
X005091Y001704D01*
X004994Y001704D01*
X004994Y002100D01*
X004938Y002091D01*
X004871Y002069D01*
X004809Y002037D01*
X004752Y001996D01*
X004702Y001946D01*
X004661Y001889D01*
X004629Y001827D01*
X004607Y001760D01*
X004598Y001704D01*
X004994Y001704D01*
X004994Y001607D01*
X004598Y001607D01*
X004607Y001550D01*
X004629Y001484D01*
X004661Y001421D01*
X004702Y001364D01*
X004752Y001314D01*
X004809Y001273D01*
X004871Y001241D01*
X004938Y001219D01*
X004994Y001210D01*
X004994Y001606D01*
X005091Y001606D01*
X005091Y001210D01*
X005148Y001219D01*
X005214Y001241D01*
X005277Y001273D01*
X005334Y001314D01*
X005384Y001364D01*
X005425Y001421D01*
X005457Y001484D01*
X005479Y001550D01*
X005488Y001607D01*
X005092Y001607D01*
X005092Y001704D01*
X005488Y001704D01*
X005479Y001760D01*
X005457Y001827D01*
X005425Y001889D01*
X005384Y001946D01*
X005334Y001996D01*
X005277Y002037D01*
X005214Y002069D01*
X005148Y002091D01*
X005091Y002035D02*
X004994Y002035D01*
X004994Y001936D02*
X005091Y001936D01*
X005091Y001838D02*
X004994Y001838D01*
X004994Y001739D02*
X005091Y001739D01*
X005092Y001641D02*
X005631Y001641D01*
X005631Y001739D02*
X005482Y001739D01*
X005451Y001838D02*
X005631Y001838D01*
X005631Y001936D02*
X005391Y001936D01*
X005281Y002035D02*
X005631Y002035D01*
X005631Y002091D02*
X005631Y001219D01*
X005719Y001131D01*
X006591Y001131D01*
X006679Y001219D01*
X006679Y002091D01*
X006591Y002179D01*
X005719Y002179D01*
X005631Y002091D01*
X005673Y002133D02*
X004321Y002133D01*
X004344Y002232D02*
X005484Y002232D01*
X005476Y001542D02*
X005631Y001542D01*
X005631Y001443D02*
X005437Y001443D01*
X005365Y001345D02*
X005631Y001345D01*
X005631Y001246D02*
X005225Y001246D01*
X005091Y001246D02*
X004994Y001246D01*
X004994Y001345D02*
X005091Y001345D01*
X005091Y001443D02*
X004994Y001443D01*
X004994Y001542D02*
X005091Y001542D01*
X004994Y001641D02*
X004068Y001641D01*
X004141Y001739D02*
X004604Y001739D01*
X004634Y001838D02*
X004186Y001838D01*
X004231Y001936D02*
X004695Y001936D01*
X004805Y002035D02*
X004276Y002035D01*
X003983Y001542D02*
X004610Y001542D01*
X004649Y001443D02*
X003897Y001443D01*
X003812Y001345D02*
X004721Y001345D01*
X004861Y001246D02*
X003667Y001246D01*
X003801Y001333D02*
X003801Y001333D01*
X003514Y001148D02*
X005702Y001148D01*
X006608Y001148D02*
X008730Y001148D01*
X008730Y001246D02*
X007449Y001246D01*
X007439Y001241D02*
X007501Y001273D01*
X007558Y001314D01*
X007608Y001364D01*
X007649Y001421D01*
X007681Y001484D01*
X007703Y001550D01*
X007712Y001607D01*
X007316Y001607D01*
X007316Y001704D01*
X007219Y001704D01*
X007219Y002100D01*
X007163Y002091D01*
X007096Y002069D01*
X007033Y002037D01*
X006976Y001996D01*
X006926Y001946D01*
X006885Y001889D01*
X006853Y001827D01*
X006831Y001760D01*
X006823Y001704D01*
X007219Y001704D01*
X007219Y001607D01*
X006823Y001607D01*
X006831Y001550D01*
X006853Y001484D01*
X006885Y001421D01*
X006926Y001364D01*
X006976Y001314D01*
X007033Y001273D01*
X007096Y001241D01*
X007163Y001219D01*
X007219Y001210D01*
X007219Y001606D01*
X007316Y001606D01*
X007316Y001210D01*
X007372Y001219D01*
X007439Y001241D01*
X007316Y001246D02*
X007219Y001246D01*
X007219Y001345D02*
X007316Y001345D01*
X007316Y001443D02*
X007219Y001443D01*
X007219Y001542D02*
X007316Y001542D01*
X007316Y001641D02*
X008094Y001641D01*
X007996Y001739D02*
X007706Y001739D01*
X007703Y001760D02*
X007681Y001827D01*
X007649Y001889D01*
X007608Y001946D01*
X007558Y001996D01*
X007501Y002037D01*
X007439Y002069D01*
X007372Y002091D01*
X007316Y002100D01*
X007316Y001704D01*
X007712Y001704D01*
X007703Y001760D01*
X007676Y001838D02*
X007897Y001838D01*
X007799Y001936D02*
X007615Y001936D01*
X007700Y002035D02*
X007505Y002035D01*
X007602Y002133D02*
X006637Y002133D01*
X006667Y002232D02*
X006667Y002232D01*
X006667Y002330D02*
X006667Y002330D01*
X006667Y002429D02*
X006667Y002429D01*
X006667Y002527D02*
X006667Y002527D01*
X006667Y002626D02*
X006667Y002626D01*
X006667Y002725D02*
X006667Y002725D01*
X006667Y002823D02*
X006667Y002823D01*
X006667Y002922D02*
X006667Y002922D01*
X006667Y003020D02*
X006667Y003020D01*
X006667Y003119D02*
X006667Y003119D01*
X006667Y003217D02*
X006667Y003217D01*
X006667Y003316D02*
X006667Y003316D01*
X006881Y003316D02*
X007419Y003316D01*
X007425Y003217D02*
X006896Y003217D01*
X006896Y003119D02*
X007425Y003119D01*
X007425Y003020D02*
X006896Y003020D01*
X006896Y002922D02*
X007425Y002922D01*
X007425Y002823D02*
X006896Y002823D01*
X007079Y002725D02*
X007425Y002725D01*
X007425Y002626D02*
X007171Y002626D01*
X007201Y002527D02*
X007425Y002527D01*
X007425Y002429D02*
X007192Y002429D01*
X007136Y002330D02*
X007425Y002330D01*
X007503Y002232D02*
X006817Y002232D01*
X006679Y002035D02*
X007030Y002035D01*
X006919Y001936D02*
X006679Y001936D01*
X006679Y001838D02*
X006859Y001838D01*
X006828Y001739D02*
X006679Y001739D01*
X006679Y001641D02*
X007219Y001641D01*
X007219Y001739D02*
X007316Y001739D01*
X007316Y001838D02*
X007219Y001838D01*
X007219Y001936D02*
X007316Y001936D01*
X007316Y002035D02*
X007219Y002035D01*
X006834Y001542D02*
X006679Y001542D01*
X006679Y001443D02*
X006874Y001443D01*
X006946Y001345D02*
X006679Y001345D01*
X006679Y001246D02*
X007085Y001246D01*
X007589Y001345D02*
X008390Y001345D01*
X008291Y001443D02*
X007661Y001443D01*
X007700Y001542D02*
X008193Y001542D01*
X008548Y001838D02*
X008730Y001838D01*
X008730Y001936D02*
X008449Y001936D01*
X008351Y002035D02*
X008744Y002035D01*
X008822Y002212D02*
X008860Y002202D01*
X009105Y002202D01*
X009105Y002735D01*
X008730Y002735D01*
X008730Y002332D01*
X008740Y002294D01*
X008759Y002260D01*
X008787Y002232D01*
X008822Y002212D01*
X008788Y002232D02*
X008154Y002232D01*
X008252Y002133D02*
X010865Y002133D01*
X010865Y002232D02*
X010965Y002232D01*
X010965Y002330D02*
X010865Y002330D01*
X010865Y002429D02*
X010965Y002429D01*
X010965Y002527D02*
X010865Y002527D01*
X010865Y002626D02*
X010965Y002626D01*
X010965Y002725D02*
X010865Y002725D01*
X010865Y002823D02*
X010965Y002823D01*
X010965Y002922D02*
X010865Y002922D01*
X010865Y003020D02*
X010965Y003020D01*
X010426Y003020D02*
X009581Y003020D01*
X009581Y002922D02*
X010371Y002922D01*
X010371Y002823D02*
X009205Y002823D01*
X009205Y002835D02*
X009581Y002835D01*
X009581Y003238D01*
X009570Y003276D01*
X009551Y003310D01*
X009523Y003338D01*
X009489Y003358D01*
X009450Y003368D01*
X009205Y003368D01*
X009205Y002835D01*
X009105Y002835D01*
X009105Y002735D01*
X009205Y002735D01*
X009205Y002202D01*
X009450Y002202D01*
X009489Y002212D01*
X009523Y002232D01*
X009551Y002260D01*
X009570Y002294D01*
X009581Y002332D01*
X009581Y002735D01*
X009205Y002735D01*
X009205Y002835D01*
X009205Y002922D02*
X009105Y002922D01*
X009105Y002835D02*
X009105Y003368D01*
X008860Y003368D01*
X008822Y003358D01*
X008787Y003338D01*
X008759Y003310D01*
X008740Y003276D01*
X008730Y003238D01*
X008730Y002835D01*
X009105Y002835D01*
X009105Y002823D02*
X007885Y002823D01*
X007885Y002725D02*
X008730Y002725D01*
X008730Y002626D02*
X007885Y002626D01*
X007885Y002527D02*
X008730Y002527D01*
X008730Y002429D02*
X007957Y002429D01*
X008055Y002330D02*
X008730Y002330D01*
X009105Y002330D02*
X009205Y002330D01*
X009205Y002232D02*
X009105Y002232D01*
X009105Y002429D02*
X009205Y002429D01*
X009205Y002527D02*
X009105Y002527D01*
X009105Y002626D02*
X009205Y002626D01*
X009205Y002725D02*
X009105Y002725D01*
X009105Y003020D02*
X009205Y003020D01*
X009205Y003119D02*
X009105Y003119D01*
X009105Y003217D02*
X009205Y003217D01*
X009205Y003316D02*
X009105Y003316D01*
X008765Y003316D02*
X007885Y003316D01*
X007885Y003414D02*
X012852Y003414D01*
X012852Y003316D02*
X009545Y003316D01*
X009581Y003217D02*
X012852Y003217D01*
X012852Y003119D02*
X009581Y003119D01*
X009581Y002725D02*
X010371Y002725D01*
X010371Y002626D02*
X009581Y002626D01*
X009581Y002527D02*
X010371Y002527D01*
X010371Y002429D02*
X009581Y002429D01*
X009580Y002330D02*
X010371Y002330D01*
X010371Y002232D02*
X009523Y002232D01*
X009566Y002035D02*
X010371Y002035D01*
X010371Y001936D02*
X009581Y001936D01*
X009581Y001838D02*
X010371Y001838D01*
X010371Y001739D02*
X009896Y001739D01*
X009995Y001641D02*
X010371Y001641D01*
X010371Y001542D02*
X010093Y001542D01*
X010192Y001443D02*
X010371Y001443D01*
X009936Y001049D02*
X009581Y001049D01*
X009581Y001148D02*
X009837Y001148D01*
X009739Y001246D02*
X009581Y001246D01*
X009501Y000951D02*
X010034Y000951D01*
X008809Y000951D02*
X002999Y000951D01*
X003334Y001049D02*
X008730Y001049D01*
X008730Y002922D02*
X007885Y002922D01*
X007885Y003020D02*
X008730Y003020D01*
X008730Y003119D02*
X007885Y003119D01*
X007885Y003217D02*
X008730Y003217D01*
X007321Y003414D02*
X005990Y003414D01*
X002406Y000923D02*
X002406Y000923D01*
X002311Y000951D02*
X001957Y000951D01*
X001976Y001049D02*
X001753Y001049D01*
X001797Y001148D02*
X001597Y001148D01*
X001643Y001246D02*
X001473Y001246D01*
X001509Y001333D02*
X001509Y001333D01*
X001498Y001345D02*
X001349Y001345D01*
X001413Y001443D02*
X001270Y001443D01*
X001328Y001542D02*
X001191Y001542D01*
X002292Y000852D02*
X012892Y000852D01*
X012852Y000951D02*
X012276Y000951D01*
X012118Y001443D02*
X011459Y001443D01*
X011459Y001542D02*
X012852Y001542D01*
X012885Y001641D02*
X011459Y001641D01*
X011459Y001739D02*
X012911Y001739D01*
X012909Y001740D02*
X012944Y001720D01*
X012982Y001710D01*
X013345Y001710D01*
X013345Y002105D01*
X012852Y002105D01*
X012852Y001840D01*
X012862Y001802D01*
X012882Y001768D01*
X012909Y001740D01*
X012852Y001838D02*
X011459Y001838D01*
X011459Y001936D02*
X012852Y001936D01*
X012852Y002035D02*
X011459Y002035D01*
X011459Y002232D02*
X012852Y002232D01*
X012852Y002205D02*
X012852Y002470D01*
X012862Y002508D01*
X012882Y002542D01*
X012909Y002570D01*
X012944Y002590D01*
X012982Y002600D01*
X013345Y002600D01*
X013345Y002205D01*
X013345Y002105D01*
X013445Y002105D01*
X013445Y001710D01*
X013809Y001710D01*
X013847Y001720D01*
X013881Y001740D01*
X013909Y001768D01*
X013929Y001802D01*
X013939Y001840D01*
X013939Y002105D01*
X013445Y002105D01*
X013445Y002205D01*
X013345Y002205D01*
X012852Y002205D01*
X012852Y002330D02*
X011459Y002330D01*
X011459Y002429D02*
X012852Y002429D01*
X012873Y002527D02*
X011459Y002527D01*
X011459Y002626D02*
X012929Y002626D01*
X012852Y002725D02*
X011459Y002725D01*
X011459Y002823D02*
X012852Y002823D01*
X012852Y002922D02*
X011459Y002922D01*
X011404Y003020D02*
X012852Y003020D01*
X013345Y002527D02*
X013445Y002527D01*
X013445Y002600D02*
X013445Y002205D01*
X013939Y002205D01*
X013939Y002470D01*
X013929Y002508D01*
X013909Y002542D01*
X013881Y002570D01*
X013847Y002590D01*
X013809Y002600D01*
X013445Y002600D01*
X013445Y002429D02*
X013345Y002429D01*
X013345Y002330D02*
X013445Y002330D01*
X013445Y002232D02*
X013345Y002232D01*
X013345Y002133D02*
X010965Y002133D01*
X013345Y002035D02*
X013445Y002035D01*
X013445Y002133D02*
X014308Y002133D01*
X014308Y002232D02*
X013939Y002232D01*
X013939Y002330D02*
X014606Y002330D01*
X014704Y002330D02*
X015425Y002330D01*
X015425Y002429D02*
X015002Y002429D01*
X015002Y002527D02*
X015425Y002527D01*
X015425Y002626D02*
X014974Y002626D01*
X015002Y002725D02*
X015425Y002725D01*
X015425Y002823D02*
X015148Y002823D01*
X015386Y002922D02*
X015424Y002922D01*
X015450Y003414D02*
X015360Y003414D01*
X014950Y003414D02*
X013939Y003414D01*
X013939Y003316D02*
X014356Y003316D01*
X014308Y002725D02*
X013939Y002725D01*
X013862Y002626D02*
X014336Y002626D01*
X014308Y002527D02*
X013918Y002527D01*
X013939Y002429D02*
X014308Y002429D01*
X014607Y002232D02*
X014704Y002232D01*
X014704Y002133D02*
X014607Y002133D01*
X014607Y002035D02*
X014704Y002035D01*
X014985Y002035D02*
X015209Y002035D01*
X015111Y001936D02*
X013939Y001936D01*
X013938Y001838D02*
X015012Y001838D01*
X014914Y001739D02*
X013880Y001739D01*
X013905Y001641D02*
X014815Y001641D01*
X014717Y001542D02*
X013939Y001542D01*
X013445Y001739D02*
X013345Y001739D01*
X013345Y001838D02*
X013445Y001838D01*
X013445Y001936D02*
X013345Y001936D01*
X013939Y002035D02*
X014325Y002035D01*
X015002Y002133D02*
X015308Y002133D01*
X015407Y002232D02*
X015002Y002232D01*
X012955Y006075D02*
X017410Y006075D01*
X017311Y006174D02*
X012955Y006174D01*
X012955Y006272D02*
X017213Y006272D01*
X017114Y006371D02*
X012955Y006371D01*
X012955Y006469D02*
X017016Y006469D01*
X016917Y006568D02*
X012896Y006568D01*
X012916Y006962D02*
X016523Y006962D01*
X016622Y006863D02*
X010885Y006863D01*
X010885Y006765D02*
X016720Y006765D01*
X016819Y006666D02*
X010969Y006666D01*
X011068Y006568D02*
X011414Y006568D01*
X011395Y006962D02*
X010885Y006962D01*
X010885Y007060D02*
X011355Y007060D01*
X011355Y007159D02*
X010885Y007159D01*
X010885Y007258D02*
X011355Y007258D01*
X011355Y007356D02*
X010885Y007356D01*
X010885Y007455D02*
X011355Y007455D01*
X011399Y007553D02*
X010885Y007553D01*
X010885Y007652D02*
X016833Y007652D01*
X016735Y007750D02*
X010885Y007750D01*
X012108Y008933D02*
X012203Y008933D01*
X012203Y009031D02*
X012108Y009031D01*
X012108Y009130D02*
X012203Y009130D01*
X012203Y009327D02*
X012108Y009327D01*
X012108Y009425D02*
X012203Y009425D01*
X012203Y009524D02*
X012108Y009524D01*
X012919Y011495D02*
X014990Y011495D01*
X015345Y011791D02*
X015694Y011791D01*
X015596Y011889D02*
X015246Y011889D01*
X015148Y011988D02*
X015497Y011988D01*
X015399Y012086D02*
X015049Y012086D01*
X015443Y011692D02*
X015793Y011692D01*
X015892Y011593D02*
X015542Y011593D01*
X015641Y011495D02*
X015990Y011495D01*
X016089Y011396D02*
X015739Y011396D01*
X015838Y011298D02*
X016187Y011298D01*
X016286Y011199D02*
X015936Y011199D01*
X016035Y011101D02*
X016384Y011101D01*
X016483Y011002D02*
X016133Y011002D01*
X016232Y010904D02*
X016581Y010904D01*
X016680Y010805D02*
X016330Y010805D01*
X016429Y010707D02*
X016778Y010707D01*
X016877Y010608D02*
X016527Y010608D01*
X016626Y010509D02*
X016976Y010509D01*
X017074Y010411D02*
X016725Y010411D01*
X016823Y010312D02*
X017173Y010312D01*
X017271Y010214D02*
X016922Y010214D01*
X017020Y010115D02*
X017370Y010115D01*
X017468Y010017D02*
X017119Y010017D01*
X017217Y009918D02*
X017567Y009918D01*
X017665Y009820D02*
X017316Y009820D01*
X017414Y009721D02*
X017764Y009721D01*
X017862Y009623D02*
X017513Y009623D01*
X017611Y009524D02*
X017961Y009524D01*
X018059Y009425D02*
X017710Y009425D01*
X017809Y009327D02*
X018304Y009327D01*
X018431Y009228D02*
X017907Y009228D01*
X018006Y009130D02*
X018547Y009130D01*
X018763Y009130D02*
X019505Y009130D01*
X019505Y009228D02*
X018879Y009228D01*
X019006Y009327D02*
X019505Y009327D01*
X019505Y009425D02*
X019079Y009425D01*
X019120Y009524D02*
X019505Y009524D01*
X019505Y009623D02*
X019135Y009623D01*
X019135Y009721D02*
X019505Y009721D01*
X019505Y009820D02*
X019106Y009820D01*
X019066Y009918D02*
X019505Y009918D01*
X019505Y010017D02*
X018972Y010017D01*
X018798Y010115D02*
X019505Y010115D01*
X019505Y010214D02*
X018844Y010214D01*
X018991Y010312D02*
X019505Y010312D01*
X019505Y010411D02*
X019073Y010411D01*
X019114Y010509D02*
X019505Y010509D01*
X019505Y010608D02*
X019135Y010608D01*
X019135Y010707D02*
X019505Y010707D01*
X019505Y010805D02*
X019113Y010805D01*
X019072Y010904D02*
X019505Y010904D01*
X019505Y011002D02*
X018987Y011002D01*
X018834Y011101D02*
X019505Y011101D01*
X019505Y011199D02*
X018809Y011199D01*
X018977Y011298D02*
X019505Y011298D01*
X019505Y011396D02*
X019067Y011396D01*
X019108Y011495D02*
X019505Y011495D01*
X019505Y011593D02*
X019135Y011593D01*
X019135Y011692D02*
X019505Y011692D01*
X019505Y011791D02*
X019119Y011791D01*
X019078Y011889D02*
X019505Y011889D01*
X019505Y011988D02*
X019001Y011988D01*
X018869Y012086D02*
X019505Y012086D01*
X018501Y011199D02*
X017936Y011199D01*
X018035Y011101D02*
X018477Y011101D01*
X018323Y011002D02*
X018133Y011002D01*
X018232Y010904D02*
X018239Y010904D01*
X017877Y010608D02*
X017527Y010608D01*
X017429Y010707D02*
X017778Y010707D01*
X017680Y010805D02*
X017330Y010805D01*
X017232Y010904D02*
X017581Y010904D01*
X017483Y011002D02*
X017133Y011002D01*
X017035Y011101D02*
X017384Y011101D01*
X017286Y011199D02*
X016936Y011199D01*
X016838Y011298D02*
X017187Y011298D01*
X017089Y011396D02*
X016739Y011396D01*
X016641Y011495D02*
X016990Y011495D01*
X016892Y011593D02*
X016542Y011593D01*
X016443Y011692D02*
X016793Y011692D01*
X016694Y011791D02*
X016345Y011791D01*
X016246Y011889D02*
X016596Y011889D01*
X016497Y011988D02*
X016148Y011988D01*
X016049Y012086D02*
X016399Y012086D01*
X016300Y012185D02*
X015951Y012185D01*
X015852Y012283D02*
X016202Y012283D01*
X016103Y012382D02*
X015754Y012382D01*
X015655Y012480D02*
X016005Y012480D01*
X015906Y012579D02*
X015557Y012579D01*
X015458Y012677D02*
X015808Y012677D01*
X015709Y012776D02*
X015359Y012776D01*
X015261Y012874D02*
X015610Y012874D01*
X015512Y012973D02*
X015162Y012973D01*
X015064Y013072D02*
X015413Y013072D01*
X015315Y013170D02*
X014965Y013170D01*
X014867Y013269D02*
X015216Y013269D01*
X015118Y013367D02*
X014768Y013367D01*
X014670Y013466D02*
X015019Y013466D01*
X014921Y013564D02*
X014571Y013564D01*
X014473Y013663D02*
X014822Y013663D01*
X014724Y013761D02*
X014374Y013761D01*
X014276Y013860D02*
X014625Y013860D01*
X014526Y013958D02*
X014177Y013958D01*
X014078Y014057D02*
X014428Y014057D01*
X014329Y014156D02*
X013980Y014156D01*
X013881Y014254D02*
X014231Y014254D01*
X014132Y014353D02*
X012955Y014353D01*
X012955Y013860D02*
X013625Y013860D01*
X013921Y013564D02*
X010885Y013564D01*
X010885Y013466D02*
X011412Y013466D01*
X011355Y013367D02*
X010885Y013367D01*
X010885Y013269D02*
X011355Y013269D01*
X011355Y013170D02*
X010885Y013170D01*
X010885Y013072D02*
X011355Y013072D01*
X011355Y012973D02*
X010885Y012973D01*
X010885Y012677D02*
X013808Y012677D01*
X013906Y012579D02*
X010885Y012579D01*
X012943Y011889D02*
X013457Y011889D01*
X015374Y013761D02*
X015724Y013761D01*
X015822Y013663D02*
X015473Y013663D01*
X015571Y013564D02*
X015921Y013564D01*
X016019Y013466D02*
X015670Y013466D01*
X015768Y013367D02*
X016118Y013367D01*
X016216Y013269D02*
X015867Y013269D01*
X015965Y013170D02*
X016315Y013170D01*
X016413Y013072D02*
X016064Y013072D01*
X016162Y012973D02*
X016512Y012973D01*
X016610Y012874D02*
X016261Y012874D01*
X016359Y012776D02*
X016709Y012776D01*
X016808Y012677D02*
X016458Y012677D01*
X016557Y012579D02*
X016906Y012579D01*
X017005Y012480D02*
X016655Y012480D01*
X016754Y012382D02*
X017103Y012382D01*
X017202Y012283D02*
X016852Y012283D01*
X016951Y012185D02*
X017300Y012185D01*
X017399Y012086D02*
X017049Y012086D01*
X017148Y011988D02*
X017497Y011988D01*
X017596Y011889D02*
X017246Y011889D01*
X017345Y011791D02*
X017694Y011791D01*
X017793Y011692D02*
X017443Y011692D01*
X017542Y011593D02*
X017892Y011593D01*
X017990Y011495D02*
X017641Y011495D01*
X017739Y011396D02*
X018243Y011396D01*
X018334Y011298D02*
X017838Y011298D01*
X017976Y010509D02*
X017626Y010509D01*
X017725Y010411D02*
X018237Y010411D01*
X018319Y010312D02*
X017823Y010312D01*
X017922Y010214D02*
X018466Y010214D01*
X018512Y010115D02*
X018020Y010115D01*
X018119Y010017D02*
X018338Y010017D01*
X018245Y009918D02*
X018217Y009918D01*
X018104Y009031D02*
X018352Y009031D01*
X018254Y008933D02*
X018203Y008933D01*
X018958Y009031D02*
X019505Y009031D01*
X019505Y008933D02*
X019056Y008933D01*
X019100Y008834D02*
X019505Y008834D01*
X019505Y008736D02*
X019135Y008736D01*
X019135Y008637D02*
X019505Y008637D01*
X019505Y008539D02*
X019126Y008539D01*
X019086Y008440D02*
X019505Y008440D01*
X019505Y008341D02*
X019020Y008341D01*
X018914Y008243D02*
X019505Y008243D01*
X019505Y007159D02*
X017976Y007159D01*
X017878Y007258D02*
X018374Y007258D01*
X018275Y007356D02*
X017779Y007356D01*
X017681Y007455D02*
X018030Y007455D01*
X017932Y007553D02*
X017582Y007553D01*
X017484Y007652D02*
X017833Y007652D01*
X017735Y007750D02*
X017385Y007750D01*
X017287Y007849D02*
X017636Y007849D01*
X017538Y007947D02*
X017188Y007947D01*
X017090Y008046D02*
X017439Y008046D01*
X017341Y008144D02*
X016991Y008144D01*
X016892Y008243D02*
X017242Y008243D01*
X017144Y008341D02*
X016794Y008341D01*
X016695Y008440D02*
X017045Y008440D01*
X018075Y007060D02*
X018382Y007060D01*
X018283Y006962D02*
X018174Y006962D01*
X018060Y006075D02*
X018415Y006075D01*
X018298Y005976D02*
X018159Y005976D01*
X014979Y009623D02*
X014976Y009623D01*
X017458Y012677D02*
X017808Y012677D01*
X017709Y012776D02*
X017359Y012776D01*
X017261Y012874D02*
X017610Y012874D01*
X017512Y012973D02*
X017162Y012973D01*
X017064Y013072D02*
X017413Y013072D01*
X017315Y013170D02*
X016965Y013170D01*
X016867Y013269D02*
X017216Y013269D01*
X017118Y013367D02*
X016768Y013367D01*
X016670Y013466D02*
X017019Y013466D01*
X016921Y013564D02*
X016571Y013564D01*
X016473Y013663D02*
X016822Y013663D01*
X016724Y013761D02*
X016374Y013761D01*
X016275Y013860D02*
X016625Y013860D01*
X016526Y013958D02*
X016177Y013958D01*
X016078Y014057D02*
X016428Y014057D01*
X016329Y014156D02*
X015980Y014156D01*
X015881Y014254D02*
X016231Y014254D01*
X016132Y014353D02*
X015783Y014353D01*
X015684Y014451D02*
X016034Y014451D01*
X015935Y014550D02*
X015586Y014550D01*
X015487Y014648D02*
X015837Y014648D01*
X015738Y014747D02*
X015389Y014747D01*
X015290Y014845D02*
X015640Y014845D01*
X015541Y014944D02*
X015191Y014944D01*
X015093Y015042D02*
X015443Y015042D01*
X015344Y015141D02*
X014994Y015141D01*
X014896Y015240D02*
X015245Y015240D01*
X015062Y015338D02*
X014797Y015338D01*
X014901Y015437D02*
X014909Y015437D01*
X014409Y015437D02*
X012927Y015437D01*
X012410Y016464D02*
X012372Y016454D01*
X012204Y016454D01*
X012204Y016772D01*
X012502Y016772D01*
X012502Y016584D01*
X012492Y016546D01*
X012472Y016512D01*
X012444Y016484D01*
X012410Y016464D01*
X012477Y016521D02*
X013664Y016521D01*
X013663Y016619D02*
X012502Y016619D01*
X012502Y016718D02*
X013663Y016718D01*
X013663Y016816D02*
X013547Y016816D01*
X013556Y016819D02*
X013590Y016838D01*
X013618Y016866D01*
X013637Y016900D01*
X013648Y016939D01*
X013648Y017107D01*
X013271Y017107D01*
X013271Y017204D01*
X013648Y017204D01*
X013648Y017372D01*
X013637Y017410D01*
X013618Y017444D01*
X013590Y017472D01*
X013556Y017492D01*
X013517Y017502D01*
X013270Y017502D01*
X013270Y017204D01*
X013174Y017204D01*
X013174Y017502D01*
X012927Y017502D01*
X012889Y017492D01*
X012854Y017472D01*
X012826Y017444D01*
X012807Y017410D01*
X012796Y017372D01*
X012796Y017204D01*
X013173Y017204D01*
X013173Y017107D01*
X012796Y017107D01*
X012796Y016939D01*
X012807Y016900D01*
X012826Y016866D01*
X012854Y016838D01*
X012889Y016819D01*
X012927Y016808D01*
X013174Y016808D01*
X013174Y017106D01*
X013270Y017106D01*
X013270Y016808D01*
X013517Y016808D01*
X013556Y016819D01*
X013641Y016915D02*
X013663Y016915D01*
X013663Y017013D02*
X013648Y017013D01*
X013734Y017112D02*
X013271Y017112D01*
X013173Y017112D02*
X012482Y017112D01*
X012501Y017210D02*
X012796Y017210D01*
X012796Y017309D02*
X012502Y017309D01*
X012502Y017407D02*
X012806Y017407D01*
X013174Y017407D02*
X013270Y017407D01*
X013270Y017309D02*
X013174Y017309D01*
X013174Y017210D02*
X013270Y017210D01*
X013270Y017013D02*
X013174Y017013D01*
X013174Y016915D02*
X013270Y016915D01*
X013270Y016816D02*
X013174Y016816D01*
X012897Y016816D02*
X012204Y016816D01*
X012106Y016816D02*
X004176Y016816D01*
X004131Y016718D02*
X011808Y016718D01*
X011808Y016619D02*
X004049Y016619D01*
X004127Y016709D02*
X004127Y016709D01*
X004221Y016915D02*
X011808Y016915D01*
X011808Y017013D02*
X004266Y017013D01*
X004311Y017112D02*
X011828Y017112D01*
X011809Y017210D02*
X004341Y017210D01*
X004334Y017162D02*
X004334Y017162D01*
X004355Y017309D02*
X011808Y017309D01*
X011808Y017407D02*
X004369Y017407D01*
X004384Y017506D02*
X011808Y017506D01*
X011808Y017605D02*
X004398Y017605D01*
X004398Y017703D02*
X011808Y017703D01*
X011841Y017802D02*
X004384Y017802D01*
X004370Y017900D02*
X011925Y017900D01*
X011925Y017999D02*
X004356Y017999D01*
X004342Y018097D02*
X012022Y018097D01*
X012121Y018196D02*
X004312Y018196D01*
X004267Y018294D02*
X012219Y018294D01*
X012475Y017900D02*
X013925Y017900D01*
X013676Y017802D02*
X012469Y017802D01*
X012502Y017703D02*
X013663Y017703D01*
X013663Y017605D02*
X012502Y017605D01*
X012502Y017506D02*
X013663Y017506D01*
X013663Y017407D02*
X013638Y017407D01*
X013648Y017309D02*
X013663Y017309D01*
X013648Y017210D02*
X013722Y017210D01*
X012796Y017013D02*
X012502Y017013D01*
X012502Y016915D02*
X012803Y016915D01*
X012204Y016718D02*
X012107Y016718D01*
X012107Y016619D02*
X012204Y016619D01*
X012204Y016521D02*
X012107Y016521D01*
X011833Y016521D02*
X003964Y016521D01*
X003634Y016225D02*
X009741Y016225D01*
X009748Y016229D02*
X009712Y016208D01*
X009682Y016178D01*
X009661Y016142D01*
X009650Y016101D01*
X009650Y015805D01*
X010105Y015805D01*
X010105Y016240D01*
X009789Y016240D01*
X009748Y016229D01*
X009657Y016126D02*
X003480Y016126D01*
X003382Y016063D02*
X003382Y016063D01*
X003262Y016028D02*
X009650Y016028D01*
X009650Y015929D02*
X002926Y015929D01*
X002732Y015634D02*
X009650Y015634D01*
X009650Y015535D02*
X002950Y015535D01*
X003048Y015437D02*
X009650Y015437D01*
X009679Y015338D02*
X003119Y015338D01*
X003160Y015240D02*
X011355Y015240D01*
X011355Y015338D02*
X010632Y015338D01*
X010660Y015437D02*
X011383Y015437D01*
X011355Y015141D02*
X005155Y015141D01*
X005155Y015042D02*
X011355Y015042D01*
X011355Y014944D02*
X005155Y014944D01*
X002406Y015923D02*
X002406Y015923D01*
X002384Y015929D02*
X002325Y015929D01*
X002325Y015831D02*
X009650Y015831D01*
X010105Y015831D02*
X010205Y015831D01*
X010205Y015929D02*
X010105Y015929D01*
X010105Y016028D02*
X010205Y016028D01*
X010205Y016126D02*
X010105Y016126D01*
X010105Y016225D02*
X010205Y016225D01*
X010205Y015535D02*
X010105Y015535D01*
X010105Y015437D02*
X010205Y015437D01*
X010205Y015338D02*
X010105Y015338D01*
X010660Y015535D02*
X014349Y015535D01*
X014290Y014845D02*
X014640Y014845D01*
X014738Y014747D02*
X014389Y014747D01*
X014487Y014648D02*
X014837Y014648D01*
X014935Y014550D02*
X014586Y014550D01*
X014684Y014451D02*
X015034Y014451D01*
X015132Y014353D02*
X014783Y014353D01*
X014881Y014254D02*
X015231Y014254D01*
X015329Y014156D02*
X014980Y014156D01*
X015078Y014057D02*
X015428Y014057D01*
X015526Y013958D02*
X015177Y013958D01*
X015276Y013860D02*
X015625Y013860D01*
X016088Y018393D02*
X014382Y018393D01*
X013928Y018393D02*
X004222Y018393D01*
X004177Y018491D02*
X016133Y018491D01*
X016178Y018590D02*
X004132Y018590D01*
X004052Y018689D02*
X016259Y018689D01*
X016183Y018601D02*
X016183Y018601D01*
X016344Y018787D02*
X003966Y018787D01*
X003881Y018886D02*
X016429Y018886D01*
X016519Y018984D02*
X003791Y018984D01*
X003801Y018978D02*
X003801Y018978D01*
X003638Y019083D02*
X016673Y019083D01*
X016826Y019181D02*
X003484Y019181D01*
X003382Y019247D02*
X003382Y019247D01*
X003270Y019280D02*
X017040Y019280D01*
X016928Y019247D02*
X016928Y019247D01*
X017376Y019378D02*
X002935Y019378D01*
X001183Y018601D02*
X001183Y018601D01*
X017406Y019387D02*
X017406Y019387D01*
X018382Y019247D02*
X018382Y019247D01*
X018801Y018978D02*
X018801Y018978D01*
D27*
X015155Y015655D03*
X014655Y015655D03*
X014155Y018155D03*
X014655Y018655D03*
X013155Y018655D03*
X011155Y018655D03*
X009155Y018655D03*
X007155Y018655D03*
X005155Y018655D03*
X013655Y012155D03*
X015155Y009905D03*
X014655Y008655D03*
X014155Y008655D03*
X013655Y008655D03*
X010155Y004155D03*
X010155Y003155D03*
X009155Y004155D03*
X008155Y004155D03*
X008155Y003155D03*
X007155Y003155D03*
X007155Y004155D03*
X014655Y001655D03*
X015655Y001655D03*
X015655Y003155D03*
X015155Y003155D03*
X017655Y015155D03*
D28*
X018155Y014655D01*
X018655Y014655D01*
X018655Y012655D02*
X018155Y012655D01*
X015155Y015655D01*
X014655Y015655D02*
X015155Y016155D01*
X015155Y016820D01*
X015155Y016781D01*
X014088Y016781D01*
X014088Y017529D02*
X014088Y017655D01*
X014155Y017655D01*
X014155Y018155D01*
X012405Y018155D01*
X012155Y017905D01*
X012155Y017490D01*
X014155Y018155D02*
X014905Y018155D01*
X015155Y017905D01*
X015155Y017490D01*
X014655Y015155D02*
X018155Y011655D01*
X018655Y011655D01*
X018655Y010655D02*
X018155Y010655D01*
X014155Y014655D01*
X011155Y014655D01*
X010655Y014155D01*
X010655Y006655D01*
X011055Y006255D01*
X012155Y006255D01*
X012155Y007255D02*
X016555Y007255D01*
X018155Y005655D01*
X018655Y005655D01*
X018655Y006655D02*
X018155Y006655D01*
X016555Y008255D01*
X012155Y008255D01*
X013655Y009990D02*
X013440Y010205D01*
X012155Y010205D01*
X012155Y011205D02*
X014605Y011205D01*
X018155Y007655D01*
X018655Y007655D01*
X018655Y008655D02*
X018155Y008655D01*
X013655Y013155D01*
X012155Y013155D01*
X012155Y014105D02*
X013705Y014105D01*
X018155Y009655D01*
X018655Y009655D01*
X015155Y009905D02*
X015070Y009990D01*
X014655Y009990D01*
X013655Y009990D01*
X013655Y012155D02*
X012155Y012155D01*
X012155Y015155D02*
X014655Y015155D01*
X007405Y003655D02*
X005905Y003655D01*
X005643Y003393D01*
X005643Y002807D01*
X007405Y003655D02*
X007655Y003405D01*
X007655Y002405D01*
X008535Y001525D01*
X009155Y001525D01*
X009785Y001525D01*
X010155Y001155D01*
X012155Y001155D01*
X012250Y001250D01*
X013395Y001250D01*
X014750Y001250D01*
X015655Y002155D01*
X015655Y003155D01*
X015155Y003155D02*
X014990Y002990D01*
X014655Y002990D01*
X013466Y002990D01*
X013395Y003061D01*
M02*
