G75*
G70*
%OFA0B0*%
%FSLAX24Y24*%
%IPPOS*%
%LPD*%
%AMOC8*
5,1,8,0,0,1.08239X$1,22.5*
%
%ADD10C,0.0000*%
%ADD11C,0.0060*%
%ADD12C,0.0050*%
%ADD13R,0.1000X0.1000*%
%ADD14R,0.2000X0.1000*%
%ADD15C,0.0080*%
%ADD16C,0.0040*%
D10*
X000655Y002655D02*
X000655Y017655D01*
X002025Y017655D02*
X002027Y017705D01*
X002033Y017755D01*
X002043Y017804D01*
X002057Y017852D01*
X002074Y017899D01*
X002095Y017944D01*
X002120Y017988D01*
X002148Y018029D01*
X002180Y018068D01*
X002214Y018105D01*
X002251Y018139D01*
X002291Y018169D01*
X002333Y018196D01*
X002377Y018220D01*
X002423Y018241D01*
X002470Y018257D01*
X002518Y018270D01*
X002568Y018279D01*
X002617Y018284D01*
X002668Y018285D01*
X002718Y018282D01*
X002767Y018275D01*
X002816Y018264D01*
X002864Y018249D01*
X002910Y018231D01*
X002955Y018209D01*
X002998Y018183D01*
X003039Y018154D01*
X003078Y018122D01*
X003114Y018087D01*
X003146Y018049D01*
X003176Y018009D01*
X003203Y017966D01*
X003226Y017922D01*
X003245Y017876D01*
X003261Y017828D01*
X003273Y017779D01*
X003281Y017730D01*
X003285Y017680D01*
X003285Y017630D01*
X003281Y017580D01*
X003273Y017531D01*
X003261Y017482D01*
X003245Y017434D01*
X003226Y017388D01*
X003203Y017344D01*
X003176Y017301D01*
X003146Y017261D01*
X003114Y017223D01*
X003078Y017188D01*
X003039Y017156D01*
X002998Y017127D01*
X002955Y017101D01*
X002910Y017079D01*
X002864Y017061D01*
X002816Y017046D01*
X002767Y017035D01*
X002718Y017028D01*
X002668Y017025D01*
X002617Y017026D01*
X002568Y017031D01*
X002518Y017040D01*
X002470Y017053D01*
X002423Y017069D01*
X002377Y017090D01*
X002333Y017114D01*
X002291Y017141D01*
X002251Y017171D01*
X002214Y017205D01*
X002180Y017242D01*
X002148Y017281D01*
X002120Y017322D01*
X002095Y017366D01*
X002074Y017411D01*
X002057Y017458D01*
X002043Y017506D01*
X002033Y017555D01*
X002027Y017605D01*
X002025Y017655D01*
X000655Y017655D02*
X000657Y017750D01*
X000664Y017845D01*
X000675Y017940D01*
X000691Y018034D01*
X000711Y018127D01*
X000736Y018218D01*
X000765Y018309D01*
X000798Y018398D01*
X000836Y018486D01*
X000877Y018571D01*
X000923Y018655D01*
X000972Y018736D01*
X001026Y018815D01*
X001083Y018891D01*
X001144Y018965D01*
X001208Y019035D01*
X001275Y019102D01*
X001345Y019166D01*
X001419Y019227D01*
X001495Y019284D01*
X001574Y019338D01*
X001655Y019387D01*
X001739Y019433D01*
X001824Y019474D01*
X001912Y019512D01*
X002001Y019545D01*
X002092Y019574D01*
X002183Y019599D01*
X002276Y019619D01*
X002370Y019635D01*
X002465Y019646D01*
X002560Y019653D01*
X002655Y019655D01*
X017655Y019655D01*
X017025Y017655D02*
X017027Y017705D01*
X017033Y017755D01*
X017043Y017804D01*
X017057Y017852D01*
X017074Y017899D01*
X017095Y017944D01*
X017120Y017988D01*
X017148Y018029D01*
X017180Y018068D01*
X017214Y018105D01*
X017251Y018139D01*
X017291Y018169D01*
X017333Y018196D01*
X017377Y018220D01*
X017423Y018241D01*
X017470Y018257D01*
X017518Y018270D01*
X017568Y018279D01*
X017617Y018284D01*
X017668Y018285D01*
X017718Y018282D01*
X017767Y018275D01*
X017816Y018264D01*
X017864Y018249D01*
X017910Y018231D01*
X017955Y018209D01*
X017998Y018183D01*
X018039Y018154D01*
X018078Y018122D01*
X018114Y018087D01*
X018146Y018049D01*
X018176Y018009D01*
X018203Y017966D01*
X018226Y017922D01*
X018245Y017876D01*
X018261Y017828D01*
X018273Y017779D01*
X018281Y017730D01*
X018285Y017680D01*
X018285Y017630D01*
X018281Y017580D01*
X018273Y017531D01*
X018261Y017482D01*
X018245Y017434D01*
X018226Y017388D01*
X018203Y017344D01*
X018176Y017301D01*
X018146Y017261D01*
X018114Y017223D01*
X018078Y017188D01*
X018039Y017156D01*
X017998Y017127D01*
X017955Y017101D01*
X017910Y017079D01*
X017864Y017061D01*
X017816Y017046D01*
X017767Y017035D01*
X017718Y017028D01*
X017668Y017025D01*
X017617Y017026D01*
X017568Y017031D01*
X017518Y017040D01*
X017470Y017053D01*
X017423Y017069D01*
X017377Y017090D01*
X017333Y017114D01*
X017291Y017141D01*
X017251Y017171D01*
X017214Y017205D01*
X017180Y017242D01*
X017148Y017281D01*
X017120Y017322D01*
X017095Y017366D01*
X017074Y017411D01*
X017057Y017458D01*
X017043Y017506D01*
X017033Y017555D01*
X017027Y017605D01*
X017025Y017655D01*
X017655Y019655D02*
X017750Y019653D01*
X017845Y019646D01*
X017940Y019635D01*
X018034Y019619D01*
X018127Y019599D01*
X018218Y019574D01*
X018309Y019545D01*
X018398Y019512D01*
X018486Y019474D01*
X018571Y019433D01*
X018655Y019387D01*
X018736Y019338D01*
X018815Y019284D01*
X018891Y019227D01*
X018965Y019166D01*
X019035Y019102D01*
X019102Y019035D01*
X019166Y018965D01*
X019227Y018891D01*
X019284Y018815D01*
X019338Y018736D01*
X019387Y018655D01*
X019433Y018571D01*
X019474Y018486D01*
X019512Y018398D01*
X019545Y018309D01*
X019574Y018218D01*
X019599Y018127D01*
X019619Y018034D01*
X019635Y017940D01*
X019646Y017845D01*
X019653Y017750D01*
X019655Y017655D01*
X019655Y002655D01*
X017025Y002655D02*
X017027Y002705D01*
X017033Y002755D01*
X017043Y002804D01*
X017057Y002852D01*
X017074Y002899D01*
X017095Y002944D01*
X017120Y002988D01*
X017148Y003029D01*
X017180Y003068D01*
X017214Y003105D01*
X017251Y003139D01*
X017291Y003169D01*
X017333Y003196D01*
X017377Y003220D01*
X017423Y003241D01*
X017470Y003257D01*
X017518Y003270D01*
X017568Y003279D01*
X017617Y003284D01*
X017668Y003285D01*
X017718Y003282D01*
X017767Y003275D01*
X017816Y003264D01*
X017864Y003249D01*
X017910Y003231D01*
X017955Y003209D01*
X017998Y003183D01*
X018039Y003154D01*
X018078Y003122D01*
X018114Y003087D01*
X018146Y003049D01*
X018176Y003009D01*
X018203Y002966D01*
X018226Y002922D01*
X018245Y002876D01*
X018261Y002828D01*
X018273Y002779D01*
X018281Y002730D01*
X018285Y002680D01*
X018285Y002630D01*
X018281Y002580D01*
X018273Y002531D01*
X018261Y002482D01*
X018245Y002434D01*
X018226Y002388D01*
X018203Y002344D01*
X018176Y002301D01*
X018146Y002261D01*
X018114Y002223D01*
X018078Y002188D01*
X018039Y002156D01*
X017998Y002127D01*
X017955Y002101D01*
X017910Y002079D01*
X017864Y002061D01*
X017816Y002046D01*
X017767Y002035D01*
X017718Y002028D01*
X017668Y002025D01*
X017617Y002026D01*
X017568Y002031D01*
X017518Y002040D01*
X017470Y002053D01*
X017423Y002069D01*
X017377Y002090D01*
X017333Y002114D01*
X017291Y002141D01*
X017251Y002171D01*
X017214Y002205D01*
X017180Y002242D01*
X017148Y002281D01*
X017120Y002322D01*
X017095Y002366D01*
X017074Y002411D01*
X017057Y002458D01*
X017043Y002506D01*
X017033Y002555D01*
X017027Y002605D01*
X017025Y002655D01*
X017655Y000655D02*
X017750Y000657D01*
X017845Y000664D01*
X017940Y000675D01*
X018034Y000691D01*
X018127Y000711D01*
X018218Y000736D01*
X018309Y000765D01*
X018398Y000798D01*
X018486Y000836D01*
X018571Y000877D01*
X018655Y000923D01*
X018736Y000972D01*
X018815Y001026D01*
X018891Y001083D01*
X018965Y001144D01*
X019035Y001208D01*
X019102Y001275D01*
X019166Y001345D01*
X019227Y001419D01*
X019284Y001495D01*
X019338Y001574D01*
X019387Y001655D01*
X019433Y001739D01*
X019474Y001824D01*
X019512Y001912D01*
X019545Y002001D01*
X019574Y002092D01*
X019599Y002183D01*
X019619Y002276D01*
X019635Y002370D01*
X019646Y002465D01*
X019653Y002560D01*
X019655Y002655D01*
X017655Y000655D02*
X002655Y000655D01*
X002025Y002655D02*
X002027Y002705D01*
X002033Y002755D01*
X002043Y002804D01*
X002057Y002852D01*
X002074Y002899D01*
X002095Y002944D01*
X002120Y002988D01*
X002148Y003029D01*
X002180Y003068D01*
X002214Y003105D01*
X002251Y003139D01*
X002291Y003169D01*
X002333Y003196D01*
X002377Y003220D01*
X002423Y003241D01*
X002470Y003257D01*
X002518Y003270D01*
X002568Y003279D01*
X002617Y003284D01*
X002668Y003285D01*
X002718Y003282D01*
X002767Y003275D01*
X002816Y003264D01*
X002864Y003249D01*
X002910Y003231D01*
X002955Y003209D01*
X002998Y003183D01*
X003039Y003154D01*
X003078Y003122D01*
X003114Y003087D01*
X003146Y003049D01*
X003176Y003009D01*
X003203Y002966D01*
X003226Y002922D01*
X003245Y002876D01*
X003261Y002828D01*
X003273Y002779D01*
X003281Y002730D01*
X003285Y002680D01*
X003285Y002630D01*
X003281Y002580D01*
X003273Y002531D01*
X003261Y002482D01*
X003245Y002434D01*
X003226Y002388D01*
X003203Y002344D01*
X003176Y002301D01*
X003146Y002261D01*
X003114Y002223D01*
X003078Y002188D01*
X003039Y002156D01*
X002998Y002127D01*
X002955Y002101D01*
X002910Y002079D01*
X002864Y002061D01*
X002816Y002046D01*
X002767Y002035D01*
X002718Y002028D01*
X002668Y002025D01*
X002617Y002026D01*
X002568Y002031D01*
X002518Y002040D01*
X002470Y002053D01*
X002423Y002069D01*
X002377Y002090D01*
X002333Y002114D01*
X002291Y002141D01*
X002251Y002171D01*
X002214Y002205D01*
X002180Y002242D01*
X002148Y002281D01*
X002120Y002322D01*
X002095Y002366D01*
X002074Y002411D01*
X002057Y002458D01*
X002043Y002506D01*
X002033Y002555D01*
X002027Y002605D01*
X002025Y002655D01*
X000655Y002655D02*
X000657Y002560D01*
X000664Y002465D01*
X000675Y002370D01*
X000691Y002276D01*
X000711Y002183D01*
X000736Y002092D01*
X000765Y002001D01*
X000798Y001912D01*
X000836Y001824D01*
X000877Y001739D01*
X000923Y001655D01*
X000972Y001574D01*
X001026Y001495D01*
X001083Y001419D01*
X001144Y001345D01*
X001208Y001275D01*
X001275Y001208D01*
X001345Y001144D01*
X001419Y001083D01*
X001495Y001026D01*
X001574Y000972D01*
X001655Y000923D01*
X001739Y000877D01*
X001824Y000836D01*
X001912Y000798D01*
X002001Y000765D01*
X002092Y000736D01*
X002183Y000711D01*
X002276Y000691D01*
X002370Y000675D01*
X002465Y000664D01*
X002560Y000657D01*
X002655Y000655D01*
X005260Y002502D02*
X005262Y002522D01*
X005268Y002542D01*
X005277Y002560D01*
X005290Y002577D01*
X005305Y002590D01*
X005323Y002600D01*
X005343Y002607D01*
X005363Y002610D01*
X005383Y002609D01*
X005403Y002604D01*
X005422Y002596D01*
X005439Y002584D01*
X005453Y002569D01*
X005464Y002551D01*
X005472Y002532D01*
X005476Y002512D01*
X005476Y002492D01*
X005472Y002472D01*
X005464Y002453D01*
X005453Y002435D01*
X005439Y002420D01*
X005422Y002408D01*
X005403Y002400D01*
X005383Y002395D01*
X005363Y002394D01*
X005343Y002397D01*
X005323Y002404D01*
X005305Y002414D01*
X005290Y002427D01*
X005277Y002444D01*
X005268Y002462D01*
X005262Y002482D01*
X005260Y002502D01*
X006835Y002502D02*
X006837Y002522D01*
X006843Y002542D01*
X006852Y002560D01*
X006865Y002577D01*
X006880Y002590D01*
X006898Y002600D01*
X006918Y002607D01*
X006938Y002610D01*
X006958Y002609D01*
X006978Y002604D01*
X006997Y002596D01*
X007014Y002584D01*
X007028Y002569D01*
X007039Y002551D01*
X007047Y002532D01*
X007051Y002512D01*
X007051Y002492D01*
X007047Y002472D01*
X007039Y002453D01*
X007028Y002435D01*
X007014Y002420D01*
X006997Y002408D01*
X006978Y002400D01*
X006958Y002395D01*
X006938Y002394D01*
X006918Y002397D01*
X006898Y002404D01*
X006880Y002414D01*
X006865Y002427D01*
X006852Y002444D01*
X006843Y002462D01*
X006837Y002482D01*
X006835Y002502D01*
X002172Y015055D02*
X002174Y015096D01*
X002180Y015137D01*
X002190Y015177D01*
X002203Y015216D01*
X002220Y015253D01*
X002241Y015289D01*
X002265Y015323D01*
X002292Y015354D01*
X002321Y015382D01*
X002354Y015408D01*
X002388Y015430D01*
X002425Y015449D01*
X002463Y015464D01*
X002503Y015476D01*
X002543Y015484D01*
X002584Y015488D01*
X002626Y015488D01*
X002667Y015484D01*
X002707Y015476D01*
X002747Y015464D01*
X002785Y015449D01*
X002821Y015430D01*
X002856Y015408D01*
X002889Y015382D01*
X002918Y015354D01*
X002945Y015323D01*
X002969Y015289D01*
X002990Y015253D01*
X003007Y015216D01*
X003020Y015177D01*
X003030Y015137D01*
X003036Y015096D01*
X003038Y015055D01*
X003036Y015014D01*
X003030Y014973D01*
X003020Y014933D01*
X003007Y014894D01*
X002990Y014857D01*
X002969Y014821D01*
X002945Y014787D01*
X002918Y014756D01*
X002889Y014728D01*
X002856Y014702D01*
X002822Y014680D01*
X002785Y014661D01*
X002747Y014646D01*
X002707Y014634D01*
X002667Y014626D01*
X002626Y014622D01*
X002584Y014622D01*
X002543Y014626D01*
X002503Y014634D01*
X002463Y014646D01*
X002425Y014661D01*
X002389Y014680D01*
X002354Y014702D01*
X002321Y014728D01*
X002292Y014756D01*
X002265Y014787D01*
X002241Y014821D01*
X002220Y014857D01*
X002203Y014894D01*
X002190Y014933D01*
X002180Y014973D01*
X002174Y015014D01*
X002172Y015055D01*
D11*
X001305Y017655D02*
X001307Y017728D01*
X001313Y017801D01*
X001323Y017873D01*
X001337Y017945D01*
X001354Y018016D01*
X001376Y018086D01*
X001401Y018155D01*
X001430Y018222D01*
X001462Y018287D01*
X001498Y018351D01*
X001538Y018413D01*
X001580Y018472D01*
X001626Y018529D01*
X001675Y018583D01*
X001727Y018635D01*
X001781Y018684D01*
X001838Y018730D01*
X001897Y018772D01*
X001959Y018812D01*
X002023Y018848D01*
X002088Y018880D01*
X002155Y018909D01*
X002224Y018934D01*
X002294Y018956D01*
X002365Y018973D01*
X002437Y018987D01*
X002509Y018997D01*
X002582Y019003D01*
X002655Y019005D01*
X002728Y019003D01*
X002801Y018997D01*
X002873Y018987D01*
X002945Y018973D01*
X003016Y018956D01*
X003086Y018934D01*
X003155Y018909D01*
X003222Y018880D01*
X003287Y018848D01*
X003351Y018812D01*
X003413Y018772D01*
X003472Y018730D01*
X003529Y018684D01*
X003583Y018635D01*
X003635Y018583D01*
X003684Y018529D01*
X003730Y018472D01*
X003772Y018413D01*
X003812Y018351D01*
X003848Y018287D01*
X003880Y018222D01*
X003909Y018155D01*
X003934Y018086D01*
X003956Y018016D01*
X003973Y017945D01*
X003987Y017873D01*
X003997Y017801D01*
X004003Y017728D01*
X004005Y017655D01*
X004003Y017582D01*
X003997Y017509D01*
X003987Y017437D01*
X003973Y017365D01*
X003956Y017294D01*
X003934Y017224D01*
X003909Y017155D01*
X003880Y017088D01*
X003848Y017023D01*
X003812Y016959D01*
X003772Y016897D01*
X003730Y016838D01*
X003684Y016781D01*
X003635Y016727D01*
X003583Y016675D01*
X003529Y016626D01*
X003472Y016580D01*
X003413Y016538D01*
X003351Y016498D01*
X003287Y016462D01*
X003222Y016430D01*
X003155Y016401D01*
X003086Y016376D01*
X003016Y016354D01*
X002945Y016337D01*
X002873Y016323D01*
X002801Y016313D01*
X002728Y016307D01*
X002655Y016305D01*
X002582Y016307D01*
X002509Y016313D01*
X002437Y016323D01*
X002365Y016337D01*
X002294Y016354D01*
X002224Y016376D01*
X002155Y016401D01*
X002088Y016430D01*
X002023Y016462D01*
X001959Y016498D01*
X001897Y016538D01*
X001838Y016580D01*
X001781Y016626D01*
X001727Y016675D01*
X001675Y016727D01*
X001626Y016781D01*
X001580Y016838D01*
X001538Y016897D01*
X001498Y016959D01*
X001462Y017023D01*
X001430Y017088D01*
X001401Y017155D01*
X001376Y017224D01*
X001354Y017294D01*
X001337Y017365D01*
X001323Y017437D01*
X001313Y017509D01*
X001307Y017582D01*
X001305Y017655D01*
X004685Y017685D02*
X004912Y017685D01*
X005053Y017685D02*
X005167Y017685D01*
X005110Y017685D02*
X005110Y018025D01*
X005053Y018025D01*
X004912Y018025D02*
X004685Y018025D01*
X004685Y017685D01*
X004685Y017525D02*
X004685Y017299D01*
X004799Y017185D01*
X004912Y017299D01*
X004912Y017525D01*
X005053Y017355D02*
X005110Y017412D01*
X005224Y017412D01*
X005280Y017355D01*
X005280Y017299D01*
X005053Y017299D01*
X005053Y017355D02*
X005053Y017242D01*
X005110Y017185D01*
X005224Y017185D01*
X005422Y017185D02*
X005422Y017412D01*
X005422Y017299D02*
X005535Y017412D01*
X005592Y017412D01*
X005729Y017355D02*
X005785Y017412D01*
X005955Y017412D01*
X005899Y017299D02*
X005785Y017299D01*
X005729Y017355D01*
X005729Y017185D02*
X005899Y017185D01*
X005955Y017242D01*
X005899Y017299D01*
X006097Y017412D02*
X006154Y017412D01*
X006154Y017185D01*
X006210Y017185D02*
X006097Y017185D01*
X006342Y017242D02*
X006342Y017355D01*
X006399Y017412D01*
X006513Y017412D01*
X006569Y017355D01*
X006569Y017242D01*
X006513Y017185D01*
X006399Y017185D01*
X006342Y017242D01*
X006154Y017525D02*
X006154Y017582D01*
X006149Y017685D02*
X006092Y017742D01*
X006092Y017969D01*
X006036Y017912D02*
X006149Y017912D01*
X006281Y017912D02*
X006281Y017685D01*
X006281Y017799D02*
X006394Y017912D01*
X006451Y017912D01*
X006588Y017912D02*
X006645Y017912D01*
X006645Y017685D01*
X006701Y017685D02*
X006588Y017685D01*
X006833Y017742D02*
X006890Y017685D01*
X007060Y017685D01*
X007060Y017912D02*
X006890Y017912D01*
X006833Y017855D01*
X006833Y017742D01*
X006645Y018025D02*
X006645Y018082D01*
X005894Y017912D02*
X005724Y017912D01*
X005667Y017855D01*
X005667Y017742D01*
X005724Y017685D01*
X005894Y017685D01*
X005526Y017799D02*
X005299Y017799D01*
X005299Y017855D02*
X005356Y017912D01*
X005469Y017912D01*
X005526Y017855D01*
X005526Y017799D01*
X005469Y017685D02*
X005356Y017685D01*
X005299Y017742D01*
X005299Y017855D01*
X004799Y017855D02*
X004685Y017855D01*
X006711Y017412D02*
X006711Y017185D01*
X006938Y017185D02*
X006938Y017355D01*
X006881Y017412D01*
X006711Y017412D01*
X007447Y017412D02*
X007561Y017525D01*
X007561Y017185D01*
X007674Y017185D02*
X007447Y017185D01*
X007816Y017185D02*
X007872Y017185D01*
X007872Y017242D01*
X007816Y017242D01*
X007816Y017185D01*
X008000Y017242D02*
X008227Y017469D01*
X008227Y017242D01*
X008170Y017185D01*
X008056Y017185D01*
X008000Y017242D01*
X008000Y017469D01*
X008056Y017525D01*
X008170Y017525D01*
X008227Y017469D01*
X008184Y017572D02*
X008184Y017912D01*
X008354Y017912D01*
X008411Y017855D01*
X008411Y017742D01*
X008354Y017685D01*
X008184Y017685D01*
X008042Y017685D02*
X008042Y017855D01*
X007986Y017912D01*
X007929Y017855D01*
X007929Y017685D01*
X007816Y017685D02*
X007816Y017912D01*
X007872Y017912D01*
X007929Y017855D01*
X007684Y017685D02*
X007570Y017685D01*
X007627Y017685D02*
X007627Y018025D01*
X007570Y018025D02*
X007684Y018025D01*
X008921Y018025D02*
X008921Y017685D01*
X009091Y017685D01*
X009147Y017742D01*
X009147Y017799D01*
X009091Y017855D01*
X008921Y017855D01*
X009091Y017855D02*
X009147Y017912D01*
X009147Y017969D01*
X009091Y018025D01*
X008921Y018025D01*
X009289Y017912D02*
X009289Y017685D01*
X009289Y017799D02*
X009402Y017912D01*
X009459Y017912D01*
X009596Y017855D02*
X009652Y017912D01*
X009766Y017912D01*
X009823Y017855D01*
X009823Y017799D01*
X009596Y017799D01*
X009596Y017855D02*
X009596Y017742D01*
X009652Y017685D01*
X009766Y017685D01*
X009964Y017742D02*
X010021Y017799D01*
X010191Y017799D01*
X010191Y017855D02*
X010191Y017685D01*
X010021Y017685D01*
X009964Y017742D01*
X010021Y017912D02*
X010134Y017912D01*
X010191Y017855D01*
X010332Y017799D02*
X010502Y017912D01*
X010639Y017855D02*
X010639Y017742D01*
X010696Y017685D01*
X010809Y017685D01*
X010866Y017742D01*
X010866Y017855D01*
X010809Y017912D01*
X010696Y017912D01*
X010639Y017855D01*
X010502Y017685D02*
X010332Y017799D01*
X010332Y017685D02*
X010332Y018025D01*
X011008Y017912D02*
X011008Y017742D01*
X011064Y017685D01*
X011234Y017685D01*
X011234Y017912D01*
X011376Y017912D02*
X011489Y017912D01*
X011433Y017969D02*
X011433Y017742D01*
X011489Y017685D01*
X011935Y017935D02*
X012162Y017935D01*
X012049Y017935D02*
X012049Y018275D01*
X011935Y018162D01*
X011992Y018435D02*
X012105Y018435D01*
X012162Y018492D01*
X012303Y018492D02*
X012360Y018435D01*
X012474Y018435D01*
X012530Y018492D01*
X012530Y018605D01*
X012474Y018662D01*
X012417Y018662D01*
X012303Y018605D01*
X012303Y018775D01*
X012530Y018775D01*
X012162Y018719D02*
X012105Y018775D01*
X011992Y018775D01*
X011935Y018719D01*
X011935Y018492D01*
X011992Y018435D01*
X012303Y018219D02*
X012360Y018275D01*
X012474Y018275D01*
X012530Y018219D01*
X012303Y017992D01*
X012360Y017935D01*
X012474Y017935D01*
X012530Y017992D01*
X012530Y018219D01*
X012672Y018219D02*
X012672Y017992D01*
X012899Y018219D01*
X012899Y017992D01*
X012842Y017935D01*
X012728Y017935D01*
X012672Y017992D01*
X012672Y018219D02*
X012728Y018275D01*
X012842Y018275D01*
X012899Y018219D01*
X013040Y018162D02*
X013040Y017935D01*
X013267Y017935D02*
X013267Y018105D01*
X013210Y018162D01*
X013040Y018162D01*
X012303Y018219D02*
X012303Y017992D01*
X012361Y016375D02*
X012361Y016035D01*
X012502Y016035D02*
X012502Y016262D01*
X012615Y016375D01*
X012729Y016262D01*
X012729Y016035D01*
X012870Y016035D02*
X013097Y016262D01*
X013097Y016319D01*
X013040Y016375D01*
X012927Y016375D01*
X012870Y016319D01*
X012729Y016205D02*
X012502Y016205D01*
X012361Y016205D02*
X012134Y016205D01*
X011992Y016149D02*
X011992Y016092D01*
X011935Y016035D01*
X011822Y016035D01*
X011765Y016092D01*
X011822Y016205D02*
X011765Y016262D01*
X011765Y016319D01*
X011822Y016375D01*
X011935Y016375D01*
X011992Y016319D01*
X011935Y016205D02*
X011992Y016149D01*
X011935Y016205D02*
X011822Y016205D01*
X011624Y016375D02*
X011397Y016375D01*
X011510Y016375D02*
X011510Y016035D01*
X011256Y016035D02*
X011256Y016262D01*
X011142Y016375D01*
X011029Y016262D01*
X011029Y016035D01*
X011029Y016205D02*
X011256Y016205D01*
X012134Y016035D02*
X012134Y016375D01*
X012870Y016035D02*
X013097Y016035D01*
X013239Y016092D02*
X013465Y016319D01*
X013465Y016092D01*
X013409Y016035D01*
X013295Y016035D01*
X013239Y016092D01*
X013239Y016319D01*
X013295Y016375D01*
X013409Y016375D01*
X013465Y016319D01*
X013607Y016205D02*
X013834Y016205D01*
X013975Y016205D02*
X014202Y016205D01*
X014344Y016375D02*
X014570Y016375D01*
X014457Y016375D02*
X014457Y016035D01*
X014712Y016092D02*
X014769Y016035D01*
X014882Y016035D01*
X014939Y016092D01*
X014939Y016149D01*
X014882Y016205D01*
X014769Y016205D01*
X014712Y016262D01*
X014712Y016319D01*
X014769Y016375D01*
X014882Y016375D01*
X014939Y016319D01*
X015080Y016375D02*
X015080Y016092D01*
X015137Y016035D01*
X015250Y016035D01*
X015307Y016092D01*
X015307Y016375D01*
X015448Y016205D02*
X015675Y016205D01*
X015817Y016375D02*
X016044Y016375D01*
X015930Y016375D02*
X015930Y016035D01*
X016944Y014819D02*
X016944Y014592D01*
X017057Y014705D02*
X016830Y014705D01*
X017199Y014705D02*
X017312Y014762D01*
X017369Y014762D01*
X017425Y014705D01*
X017425Y014592D01*
X017369Y014535D01*
X017255Y014535D01*
X017199Y014592D01*
X017199Y014705D02*
X017199Y014875D01*
X017425Y014875D01*
X017567Y014875D02*
X017567Y014649D01*
X017680Y014535D01*
X017794Y014649D01*
X017794Y014875D01*
X018435Y015435D02*
X018662Y015775D01*
X018803Y015719D02*
X018860Y015775D01*
X018974Y015775D01*
X019030Y015719D01*
X019030Y015662D01*
X018803Y015435D01*
X019030Y015435D01*
X018662Y015435D02*
X018435Y015775D01*
X017737Y013875D02*
X017567Y013875D01*
X017567Y013535D01*
X017737Y013535D01*
X017794Y013592D01*
X017794Y013819D01*
X017737Y013875D01*
X017425Y013875D02*
X017425Y013535D01*
X017199Y013875D01*
X017199Y013535D01*
X017057Y013592D02*
X017057Y013705D01*
X016944Y013705D01*
X017057Y013592D02*
X017000Y013535D01*
X016887Y013535D01*
X016830Y013592D01*
X016830Y013819D01*
X016887Y013875D01*
X017000Y013875D01*
X017057Y013819D01*
X017255Y012875D02*
X017369Y012875D01*
X017425Y012819D01*
X017425Y012762D01*
X017369Y012705D01*
X017425Y012649D01*
X017425Y012592D01*
X017369Y012535D01*
X017255Y012535D01*
X017198Y012592D01*
X017071Y012592D02*
X017071Y012535D01*
X017014Y012535D01*
X017014Y012592D01*
X017071Y012592D01*
X016873Y012592D02*
X016816Y012535D01*
X016703Y012535D01*
X016646Y012592D01*
X016759Y012705D02*
X016816Y012705D01*
X016873Y012649D01*
X016873Y012592D01*
X016816Y012705D02*
X016873Y012762D01*
X016873Y012819D01*
X016816Y012875D01*
X016703Y012875D01*
X016646Y012819D01*
X016505Y012705D02*
X016278Y012705D01*
X016391Y012592D02*
X016391Y012819D01*
X017198Y012819D02*
X017255Y012875D01*
X017312Y012705D02*
X017369Y012705D01*
X017567Y012649D02*
X017567Y012875D01*
X017567Y012649D02*
X017680Y012535D01*
X017794Y012649D01*
X017794Y012875D01*
X017737Y011875D02*
X017567Y011875D01*
X017567Y011535D01*
X017737Y011535D01*
X017794Y011592D01*
X017794Y011819D01*
X017737Y011875D01*
X017425Y011819D02*
X017369Y011875D01*
X017255Y011875D01*
X017199Y011819D01*
X017199Y011592D01*
X017255Y011535D01*
X017369Y011535D01*
X017425Y011592D01*
X017425Y010875D02*
X017425Y010535D01*
X017198Y010875D01*
X017198Y010535D01*
X017066Y010535D02*
X016953Y010535D01*
X017010Y010535D02*
X017010Y010875D01*
X017066Y010875D02*
X016953Y010875D01*
X016811Y010819D02*
X016811Y010705D01*
X016755Y010649D01*
X016585Y010649D01*
X016585Y010535D02*
X016585Y010875D01*
X016755Y010875D01*
X016811Y010819D01*
X017567Y010819D02*
X017567Y010762D01*
X017623Y010705D01*
X017794Y010705D01*
X017794Y010592D02*
X017794Y010819D01*
X017737Y010875D01*
X017623Y010875D01*
X017567Y010819D01*
X017567Y010592D02*
X017623Y010535D01*
X017737Y010535D01*
X017794Y010592D01*
X017737Y009875D02*
X017623Y009875D01*
X017567Y009819D01*
X017567Y009762D01*
X017623Y009705D01*
X017737Y009705D01*
X017794Y009649D01*
X017794Y009592D01*
X017737Y009535D01*
X017623Y009535D01*
X017567Y009592D01*
X017567Y009649D01*
X017623Y009705D01*
X017737Y009705D02*
X017794Y009762D01*
X017794Y009819D01*
X017737Y009875D01*
X017425Y009875D02*
X017425Y009535D01*
X017198Y009875D01*
X017198Y009535D01*
X017066Y009535D02*
X016953Y009535D01*
X017010Y009535D02*
X017010Y009875D01*
X017066Y009875D02*
X016953Y009875D01*
X016811Y009819D02*
X016811Y009705D01*
X016755Y009649D01*
X016585Y009649D01*
X016585Y009535D02*
X016585Y009875D01*
X016755Y009875D01*
X016811Y009819D01*
X016755Y008875D02*
X016585Y008875D01*
X016585Y008535D01*
X016585Y008649D02*
X016755Y008649D01*
X016811Y008705D01*
X016811Y008819D01*
X016755Y008875D01*
X016953Y008875D02*
X017066Y008875D01*
X017010Y008875D02*
X017010Y008535D01*
X017066Y008535D02*
X016953Y008535D01*
X017198Y008535D02*
X017198Y008875D01*
X017425Y008535D01*
X017425Y008875D01*
X017567Y008875D02*
X017794Y008875D01*
X017794Y008819D01*
X017567Y008592D01*
X017567Y008535D01*
X017567Y007875D02*
X017567Y007705D01*
X017680Y007762D01*
X017737Y007762D01*
X017794Y007705D01*
X017794Y007592D01*
X017737Y007535D01*
X017623Y007535D01*
X017567Y007592D01*
X017425Y007535D02*
X017425Y007875D01*
X017567Y007875D02*
X017794Y007875D01*
X017425Y007535D02*
X017198Y007875D01*
X017198Y007535D01*
X017066Y007535D02*
X016953Y007535D01*
X017010Y007535D02*
X017010Y007875D01*
X017066Y007875D02*
X016953Y007875D01*
X016811Y007819D02*
X016811Y007705D01*
X016755Y007649D01*
X016585Y007649D01*
X016585Y007535D02*
X016585Y007875D01*
X016755Y007875D01*
X016811Y007819D01*
X016755Y006875D02*
X016585Y006875D01*
X016585Y006535D01*
X016585Y006649D02*
X016755Y006649D01*
X016811Y006705D01*
X016811Y006819D01*
X016755Y006875D01*
X016953Y006875D02*
X017066Y006875D01*
X017010Y006875D02*
X017010Y006535D01*
X017066Y006535D02*
X016953Y006535D01*
X017198Y006535D02*
X017198Y006875D01*
X017425Y006535D01*
X017425Y006875D01*
X017567Y006819D02*
X017623Y006875D01*
X017737Y006875D01*
X017794Y006819D01*
X017794Y006762D01*
X017567Y006535D01*
X017794Y006535D01*
X017680Y005875D02*
X017567Y005762D01*
X017680Y005875D02*
X017680Y005535D01*
X017567Y005535D02*
X017794Y005535D01*
X017425Y005535D02*
X017425Y005875D01*
X017198Y005875D02*
X017198Y005535D01*
X017066Y005535D02*
X016953Y005535D01*
X017010Y005535D02*
X017010Y005875D01*
X017066Y005875D02*
X016953Y005875D01*
X016811Y005819D02*
X016811Y005705D01*
X016755Y005649D01*
X016585Y005649D01*
X016585Y005535D02*
X016585Y005875D01*
X016755Y005875D01*
X016811Y005819D01*
X017198Y005875D02*
X017425Y005535D01*
X015030Y004219D02*
X014974Y004275D01*
X014860Y004275D01*
X014803Y004219D01*
X014662Y004219D02*
X014605Y004275D01*
X014492Y004275D01*
X014435Y004219D01*
X014435Y003992D01*
X014492Y003935D01*
X014605Y003935D01*
X014662Y003992D01*
X014803Y003935D02*
X015030Y004162D01*
X015030Y004219D01*
X015030Y003935D02*
X014803Y003935D01*
X014803Y003662D02*
X014803Y003492D01*
X014860Y003435D01*
X015030Y003435D01*
X015030Y003662D01*
X014662Y003435D02*
X014435Y003435D01*
X014549Y003435D02*
X014549Y003775D01*
X014435Y003662D01*
X012526Y003705D02*
X012299Y003705D01*
X012412Y003705D02*
X012412Y004045D01*
X012299Y003932D01*
X012157Y003989D02*
X012101Y004045D01*
X011987Y004045D01*
X011931Y003989D01*
X011931Y003762D01*
X011987Y003705D01*
X012101Y003705D01*
X012157Y003762D01*
X011799Y003705D02*
X011685Y003705D01*
X011742Y003705D02*
X011742Y004045D01*
X011685Y004045D02*
X011799Y004045D01*
X009486Y003623D02*
X009486Y003396D01*
X009316Y003396D01*
X009259Y003452D01*
X009259Y003623D01*
X009118Y003679D02*
X008891Y003452D01*
X008891Y003396D01*
X008764Y003396D02*
X008707Y003396D01*
X008707Y003452D01*
X008764Y003452D01*
X008764Y003396D01*
X008566Y003566D02*
X008339Y003566D01*
X008509Y003736D01*
X008509Y003396D01*
X008509Y003841D02*
X008566Y003897D01*
X008509Y003841D02*
X008395Y003841D01*
X008339Y003897D01*
X008339Y004124D01*
X008395Y004181D01*
X008509Y004181D01*
X008566Y004124D01*
X008707Y004067D02*
X008820Y004181D01*
X008820Y003841D01*
X008707Y003841D02*
X008934Y003841D01*
X008891Y003736D02*
X009118Y003736D01*
X009118Y003679D01*
X006767Y003435D02*
X006540Y003435D01*
X006653Y003435D02*
X006653Y003775D01*
X006540Y003662D01*
X006399Y003662D02*
X006342Y003605D01*
X006172Y003605D01*
X006030Y003549D02*
X006030Y003492D01*
X005974Y003435D01*
X005860Y003435D01*
X005803Y003492D01*
X005860Y003605D02*
X005974Y003605D01*
X006030Y003549D01*
X006030Y003719D02*
X005974Y003775D01*
X005860Y003775D01*
X005803Y003719D01*
X005803Y003662D01*
X005860Y003605D01*
X005662Y003492D02*
X005605Y003435D01*
X005492Y003435D01*
X005435Y003492D01*
X005435Y003775D01*
X005662Y003775D02*
X005662Y003492D01*
X006172Y003435D02*
X006342Y003435D01*
X006399Y003492D01*
X006399Y003549D01*
X006342Y003605D01*
X006399Y003662D02*
X006399Y003719D01*
X006342Y003775D01*
X006172Y003775D01*
X006172Y003435D01*
X001305Y002655D02*
X001307Y002728D01*
X001313Y002801D01*
X001323Y002873D01*
X001337Y002945D01*
X001354Y003016D01*
X001376Y003086D01*
X001401Y003155D01*
X001430Y003222D01*
X001462Y003287D01*
X001498Y003351D01*
X001538Y003413D01*
X001580Y003472D01*
X001626Y003529D01*
X001675Y003583D01*
X001727Y003635D01*
X001781Y003684D01*
X001838Y003730D01*
X001897Y003772D01*
X001959Y003812D01*
X002023Y003848D01*
X002088Y003880D01*
X002155Y003909D01*
X002224Y003934D01*
X002294Y003956D01*
X002365Y003973D01*
X002437Y003987D01*
X002509Y003997D01*
X002582Y004003D01*
X002655Y004005D01*
X002728Y004003D01*
X002801Y003997D01*
X002873Y003987D01*
X002945Y003973D01*
X003016Y003956D01*
X003086Y003934D01*
X003155Y003909D01*
X003222Y003880D01*
X003287Y003848D01*
X003351Y003812D01*
X003413Y003772D01*
X003472Y003730D01*
X003529Y003684D01*
X003583Y003635D01*
X003635Y003583D01*
X003684Y003529D01*
X003730Y003472D01*
X003772Y003413D01*
X003812Y003351D01*
X003848Y003287D01*
X003880Y003222D01*
X003909Y003155D01*
X003934Y003086D01*
X003956Y003016D01*
X003973Y002945D01*
X003987Y002873D01*
X003997Y002801D01*
X004003Y002728D01*
X004005Y002655D01*
X004003Y002582D01*
X003997Y002509D01*
X003987Y002437D01*
X003973Y002365D01*
X003956Y002294D01*
X003934Y002224D01*
X003909Y002155D01*
X003880Y002088D01*
X003848Y002023D01*
X003812Y001959D01*
X003772Y001897D01*
X003730Y001838D01*
X003684Y001781D01*
X003635Y001727D01*
X003583Y001675D01*
X003529Y001626D01*
X003472Y001580D01*
X003413Y001538D01*
X003351Y001498D01*
X003287Y001462D01*
X003222Y001430D01*
X003155Y001401D01*
X003086Y001376D01*
X003016Y001354D01*
X002945Y001337D01*
X002873Y001323D01*
X002801Y001313D01*
X002728Y001307D01*
X002655Y001305D01*
X002582Y001307D01*
X002509Y001313D01*
X002437Y001323D01*
X002365Y001337D01*
X002294Y001354D01*
X002224Y001376D01*
X002155Y001401D01*
X002088Y001430D01*
X002023Y001462D01*
X001959Y001498D01*
X001897Y001538D01*
X001838Y001580D01*
X001781Y001626D01*
X001727Y001675D01*
X001675Y001727D01*
X001626Y001781D01*
X001580Y001838D01*
X001538Y001897D01*
X001498Y001959D01*
X001462Y002023D01*
X001430Y002088D01*
X001401Y002155D01*
X001376Y002224D01*
X001354Y002294D01*
X001337Y002365D01*
X001323Y002437D01*
X001313Y002509D01*
X001307Y002582D01*
X001305Y002655D01*
X013435Y010435D02*
X013662Y010435D01*
X013549Y010435D02*
X013549Y010775D01*
X013435Y010662D01*
X013492Y010935D02*
X013605Y010935D01*
X013662Y010992D01*
X013803Y010992D02*
X013860Y010935D01*
X013974Y010935D01*
X014030Y010992D01*
X014030Y011049D01*
X013974Y011105D01*
X013917Y011105D01*
X013974Y011105D02*
X014030Y011162D01*
X014030Y011219D01*
X013974Y011275D01*
X013860Y011275D01*
X013803Y011219D01*
X013662Y011219D02*
X013605Y011275D01*
X013492Y011275D01*
X013435Y011219D01*
X013435Y010992D01*
X013492Y010935D01*
X013803Y010662D02*
X013803Y010492D01*
X013860Y010435D01*
X014030Y010435D01*
X014030Y010662D01*
X014435Y010662D02*
X014549Y010775D01*
X014549Y010435D01*
X014662Y010435D02*
X014435Y010435D01*
X014803Y010492D02*
X014803Y010719D01*
X014860Y010775D01*
X014974Y010775D01*
X015030Y010719D01*
X014803Y010492D01*
X014860Y010435D01*
X014974Y010435D01*
X015030Y010492D01*
X015030Y010719D01*
X015172Y010719D02*
X015228Y010775D01*
X015342Y010775D01*
X015399Y010719D01*
X015172Y010492D01*
X015228Y010435D01*
X015342Y010435D01*
X015399Y010492D01*
X015399Y010719D01*
X015540Y010662D02*
X015540Y010435D01*
X015767Y010435D02*
X015767Y010605D01*
X015710Y010662D01*
X015540Y010662D01*
X015172Y010719D02*
X015172Y010492D01*
X014974Y010935D02*
X014974Y011275D01*
X014803Y011105D01*
X015030Y011105D01*
X014662Y010992D02*
X014605Y010935D01*
X014492Y010935D01*
X014435Y010992D01*
X014435Y011219D01*
X014492Y011275D01*
X014605Y011275D01*
X014662Y011219D01*
X014044Y015535D02*
X013817Y015535D01*
X014044Y015762D01*
X014044Y015819D01*
X013987Y015875D01*
X013873Y015875D01*
X013817Y015819D01*
X013675Y015819D02*
X013619Y015875D01*
X013505Y015875D01*
X013448Y015819D01*
X013448Y015592D01*
X013505Y015535D01*
X013619Y015535D01*
X013675Y015592D01*
X013316Y015535D02*
X013203Y015535D01*
X013260Y015535D02*
X013260Y015875D01*
X013316Y015875D02*
X013203Y015875D01*
X013607Y016205D02*
X013777Y016375D01*
X013777Y016035D01*
X014935Y017935D02*
X015162Y017935D01*
X015049Y017935D02*
X015049Y018275D01*
X014935Y018162D01*
X014935Y018435D02*
X014935Y018775D01*
X015105Y018775D01*
X015162Y018719D01*
X015162Y018605D01*
X015105Y018549D01*
X014935Y018549D01*
X015049Y018549D02*
X015162Y018435D01*
X015303Y018435D02*
X015530Y018435D01*
X015417Y018435D02*
X015417Y018775D01*
X015303Y018662D01*
X015360Y018275D02*
X015474Y018275D01*
X015530Y018219D01*
X015303Y017992D01*
X015360Y017935D01*
X015474Y017935D01*
X015530Y017992D01*
X015530Y018219D01*
X015672Y018219D02*
X015672Y017992D01*
X015899Y018219D01*
X015899Y017992D01*
X015842Y017935D01*
X015728Y017935D01*
X015672Y017992D01*
X015672Y018219D02*
X015728Y018275D01*
X015842Y018275D01*
X015899Y018219D01*
X016040Y018275D02*
X016040Y017935D01*
X016040Y018049D02*
X016267Y018275D01*
X016097Y018105D02*
X016267Y017935D01*
X015303Y017992D02*
X015303Y018219D01*
X015360Y018275D01*
X016305Y017655D02*
X016307Y017728D01*
X016313Y017801D01*
X016323Y017873D01*
X016337Y017945D01*
X016354Y018016D01*
X016376Y018086D01*
X016401Y018155D01*
X016430Y018222D01*
X016462Y018287D01*
X016498Y018351D01*
X016538Y018413D01*
X016580Y018472D01*
X016626Y018529D01*
X016675Y018583D01*
X016727Y018635D01*
X016781Y018684D01*
X016838Y018730D01*
X016897Y018772D01*
X016959Y018812D01*
X017023Y018848D01*
X017088Y018880D01*
X017155Y018909D01*
X017224Y018934D01*
X017294Y018956D01*
X017365Y018973D01*
X017437Y018987D01*
X017509Y018997D01*
X017582Y019003D01*
X017655Y019005D01*
X017728Y019003D01*
X017801Y018997D01*
X017873Y018987D01*
X017945Y018973D01*
X018016Y018956D01*
X018086Y018934D01*
X018155Y018909D01*
X018222Y018880D01*
X018287Y018848D01*
X018351Y018812D01*
X018413Y018772D01*
X018472Y018730D01*
X018529Y018684D01*
X018583Y018635D01*
X018635Y018583D01*
X018684Y018529D01*
X018730Y018472D01*
X018772Y018413D01*
X018812Y018351D01*
X018848Y018287D01*
X018880Y018222D01*
X018909Y018155D01*
X018934Y018086D01*
X018956Y018016D01*
X018973Y017945D01*
X018987Y017873D01*
X018997Y017801D01*
X019003Y017728D01*
X019005Y017655D01*
X019003Y017582D01*
X018997Y017509D01*
X018987Y017437D01*
X018973Y017365D01*
X018956Y017294D01*
X018934Y017224D01*
X018909Y017155D01*
X018880Y017088D01*
X018848Y017023D01*
X018812Y016959D01*
X018772Y016897D01*
X018730Y016838D01*
X018684Y016781D01*
X018635Y016727D01*
X018583Y016675D01*
X018529Y016626D01*
X018472Y016580D01*
X018413Y016538D01*
X018351Y016498D01*
X018287Y016462D01*
X018222Y016430D01*
X018155Y016401D01*
X018086Y016376D01*
X018016Y016354D01*
X017945Y016337D01*
X017873Y016323D01*
X017801Y016313D01*
X017728Y016307D01*
X017655Y016305D01*
X017582Y016307D01*
X017509Y016313D01*
X017437Y016323D01*
X017365Y016337D01*
X017294Y016354D01*
X017224Y016376D01*
X017155Y016401D01*
X017088Y016430D01*
X017023Y016462D01*
X016959Y016498D01*
X016897Y016538D01*
X016838Y016580D01*
X016781Y016626D01*
X016727Y016675D01*
X016675Y016727D01*
X016626Y016781D01*
X016580Y016838D01*
X016538Y016897D01*
X016498Y016959D01*
X016462Y017023D01*
X016430Y017088D01*
X016401Y017155D01*
X016376Y017224D01*
X016354Y017294D01*
X016337Y017365D01*
X016323Y017437D01*
X016313Y017509D01*
X016307Y017582D01*
X016305Y017655D01*
X016305Y002655D02*
X016307Y002728D01*
X016313Y002801D01*
X016323Y002873D01*
X016337Y002945D01*
X016354Y003016D01*
X016376Y003086D01*
X016401Y003155D01*
X016430Y003222D01*
X016462Y003287D01*
X016498Y003351D01*
X016538Y003413D01*
X016580Y003472D01*
X016626Y003529D01*
X016675Y003583D01*
X016727Y003635D01*
X016781Y003684D01*
X016838Y003730D01*
X016897Y003772D01*
X016959Y003812D01*
X017023Y003848D01*
X017088Y003880D01*
X017155Y003909D01*
X017224Y003934D01*
X017294Y003956D01*
X017365Y003973D01*
X017437Y003987D01*
X017509Y003997D01*
X017582Y004003D01*
X017655Y004005D01*
X017728Y004003D01*
X017801Y003997D01*
X017873Y003987D01*
X017945Y003973D01*
X018016Y003956D01*
X018086Y003934D01*
X018155Y003909D01*
X018222Y003880D01*
X018287Y003848D01*
X018351Y003812D01*
X018413Y003772D01*
X018472Y003730D01*
X018529Y003684D01*
X018583Y003635D01*
X018635Y003583D01*
X018684Y003529D01*
X018730Y003472D01*
X018772Y003413D01*
X018812Y003351D01*
X018848Y003287D01*
X018880Y003222D01*
X018909Y003155D01*
X018934Y003086D01*
X018956Y003016D01*
X018973Y002945D01*
X018987Y002873D01*
X018997Y002801D01*
X019003Y002728D01*
X019005Y002655D01*
X019003Y002582D01*
X018997Y002509D01*
X018987Y002437D01*
X018973Y002365D01*
X018956Y002294D01*
X018934Y002224D01*
X018909Y002155D01*
X018880Y002088D01*
X018848Y002023D01*
X018812Y001959D01*
X018772Y001897D01*
X018730Y001838D01*
X018684Y001781D01*
X018635Y001727D01*
X018583Y001675D01*
X018529Y001626D01*
X018472Y001580D01*
X018413Y001538D01*
X018351Y001498D01*
X018287Y001462D01*
X018222Y001430D01*
X018155Y001401D01*
X018086Y001376D01*
X018016Y001354D01*
X017945Y001337D01*
X017873Y001323D01*
X017801Y001313D01*
X017728Y001307D01*
X017655Y001305D01*
X017582Y001307D01*
X017509Y001313D01*
X017437Y001323D01*
X017365Y001337D01*
X017294Y001354D01*
X017224Y001376D01*
X017155Y001401D01*
X017088Y001430D01*
X017023Y001462D01*
X016959Y001498D01*
X016897Y001538D01*
X016838Y001580D01*
X016781Y001626D01*
X016727Y001675D01*
X016675Y001727D01*
X016626Y001781D01*
X016580Y001838D01*
X016538Y001897D01*
X016498Y001959D01*
X016462Y002023D01*
X016430Y002088D01*
X016401Y002155D01*
X016376Y002224D01*
X016354Y002294D01*
X016337Y002365D01*
X016323Y002437D01*
X016313Y002509D01*
X016307Y002582D01*
X016305Y002655D01*
D12*
X008602Y007535D02*
X008604Y007571D01*
X008610Y007607D01*
X008619Y007641D01*
X008633Y007675D01*
X008650Y007707D01*
X008670Y007737D01*
X008693Y007764D01*
X008719Y007789D01*
X008748Y007811D01*
X008779Y007829D01*
X008812Y007844D01*
X008846Y007856D01*
X008881Y007864D01*
X008917Y007868D01*
X008953Y007868D01*
X008989Y007864D01*
X009024Y007856D01*
X009058Y007844D01*
X009091Y007829D01*
X009122Y007811D01*
X009151Y007789D01*
X009177Y007764D01*
X009200Y007737D01*
X009220Y007707D01*
X009237Y007675D01*
X009251Y007641D01*
X009260Y007607D01*
X009266Y007571D01*
X009268Y007535D01*
X009266Y007499D01*
X009260Y007463D01*
X009251Y007429D01*
X009237Y007395D01*
X009220Y007363D01*
X009200Y007333D01*
X009177Y007306D01*
X009151Y007281D01*
X009122Y007259D01*
X009091Y007241D01*
X009058Y007226D01*
X009024Y007214D01*
X008989Y007206D01*
X008953Y007202D01*
X008917Y007202D01*
X008881Y007206D01*
X008846Y007214D01*
X008812Y007226D01*
X008779Y007241D01*
X008748Y007259D01*
X008719Y007281D01*
X008693Y007306D01*
X008670Y007333D01*
X008650Y007363D01*
X008633Y007395D01*
X008619Y007429D01*
X008610Y007463D01*
X008604Y007499D01*
X008602Y007535D01*
X007712Y006635D02*
X007714Y006671D01*
X007720Y006707D01*
X007729Y006741D01*
X007743Y006775D01*
X007760Y006807D01*
X007780Y006837D01*
X007803Y006864D01*
X007829Y006889D01*
X007858Y006911D01*
X007889Y006929D01*
X007922Y006944D01*
X007956Y006956D01*
X007991Y006964D01*
X008027Y006968D01*
X008063Y006968D01*
X008099Y006964D01*
X008134Y006956D01*
X008168Y006944D01*
X008201Y006929D01*
X008232Y006911D01*
X008261Y006889D01*
X008287Y006864D01*
X008310Y006837D01*
X008330Y006807D01*
X008347Y006775D01*
X008361Y006741D01*
X008370Y006707D01*
X008376Y006671D01*
X008378Y006635D01*
X008376Y006599D01*
X008370Y006563D01*
X008361Y006529D01*
X008347Y006495D01*
X008330Y006463D01*
X008310Y006433D01*
X008287Y006406D01*
X008261Y006381D01*
X008232Y006359D01*
X008201Y006341D01*
X008168Y006326D01*
X008134Y006314D01*
X008099Y006306D01*
X008063Y006302D01*
X008027Y006302D01*
X007991Y006306D01*
X007956Y006314D01*
X007922Y006326D01*
X007889Y006341D01*
X007858Y006359D01*
X007829Y006381D01*
X007803Y006406D01*
X007780Y006433D01*
X007760Y006463D01*
X007743Y006495D01*
X007729Y006529D01*
X007720Y006563D01*
X007714Y006599D01*
X007712Y006635D01*
X007545Y006635D02*
X007547Y006679D01*
X007553Y006723D01*
X007563Y006766D01*
X007576Y006808D01*
X007593Y006849D01*
X007614Y006888D01*
X007638Y006925D01*
X007665Y006960D01*
X007695Y006992D01*
X007728Y007022D01*
X007764Y007048D01*
X007801Y007072D01*
X007841Y007091D01*
X007882Y007108D01*
X007925Y007120D01*
X007968Y007129D01*
X008012Y007134D01*
X008056Y007135D01*
X008100Y007132D01*
X008144Y007125D01*
X008187Y007114D01*
X008229Y007100D01*
X008269Y007082D01*
X008308Y007060D01*
X008344Y007036D01*
X008378Y007008D01*
X008410Y006977D01*
X008439Y006943D01*
X008465Y006907D01*
X008487Y006869D01*
X008506Y006829D01*
X008521Y006787D01*
X008533Y006745D01*
X008541Y006701D01*
X008545Y006657D01*
X008545Y006613D01*
X008541Y006569D01*
X008533Y006525D01*
X008521Y006483D01*
X008506Y006441D01*
X008487Y006401D01*
X008465Y006363D01*
X008439Y006327D01*
X008410Y006293D01*
X008378Y006262D01*
X008344Y006234D01*
X008308Y006210D01*
X008269Y006188D01*
X008229Y006170D01*
X008187Y006156D01*
X008144Y006145D01*
X008100Y006138D01*
X008056Y006135D01*
X008012Y006136D01*
X007968Y006141D01*
X007925Y006150D01*
X007882Y006162D01*
X007841Y006179D01*
X007801Y006198D01*
X007764Y006222D01*
X007728Y006248D01*
X007695Y006278D01*
X007665Y006310D01*
X007638Y006345D01*
X007614Y006382D01*
X007593Y006421D01*
X007576Y006462D01*
X007563Y006504D01*
X007553Y006547D01*
X007547Y006591D01*
X007545Y006635D01*
X008622Y008565D02*
X008624Y008601D01*
X008630Y008637D01*
X008639Y008671D01*
X008653Y008705D01*
X008670Y008737D01*
X008690Y008767D01*
X008713Y008794D01*
X008739Y008819D01*
X008768Y008841D01*
X008799Y008859D01*
X008832Y008874D01*
X008866Y008886D01*
X008901Y008894D01*
X008937Y008898D01*
X008973Y008898D01*
X009009Y008894D01*
X009044Y008886D01*
X009078Y008874D01*
X009111Y008859D01*
X009142Y008841D01*
X009171Y008819D01*
X009197Y008794D01*
X009220Y008767D01*
X009240Y008737D01*
X009257Y008705D01*
X009271Y008671D01*
X009280Y008637D01*
X009286Y008601D01*
X009288Y008565D01*
X009286Y008529D01*
X009280Y008493D01*
X009271Y008459D01*
X009257Y008425D01*
X009240Y008393D01*
X009220Y008363D01*
X009197Y008336D01*
X009171Y008311D01*
X009142Y008289D01*
X009111Y008271D01*
X009078Y008256D01*
X009044Y008244D01*
X009009Y008236D01*
X008973Y008232D01*
X008937Y008232D01*
X008901Y008236D01*
X008866Y008244D01*
X008832Y008256D01*
X008799Y008271D01*
X008768Y008289D01*
X008739Y008311D01*
X008713Y008336D01*
X008690Y008363D01*
X008670Y008393D01*
X008653Y008425D01*
X008639Y008459D01*
X008630Y008493D01*
X008624Y008529D01*
X008622Y008565D01*
X008169Y009595D02*
X008171Y009648D01*
X008177Y009700D01*
X008187Y009752D01*
X008201Y009803D01*
X008218Y009852D01*
X008240Y009900D01*
X008264Y009947D01*
X008293Y009991D01*
X008324Y010033D01*
X008359Y010073D01*
X008397Y010110D01*
X008437Y010144D01*
X008480Y010175D01*
X008525Y010202D01*
X008572Y010226D01*
X008620Y010246D01*
X008670Y010263D01*
X008721Y010276D01*
X008773Y010285D01*
X008826Y010290D01*
X008878Y010291D01*
X008931Y010288D01*
X008983Y010281D01*
X009035Y010270D01*
X009085Y010255D01*
X009134Y010237D01*
X009182Y010215D01*
X009228Y010189D01*
X009272Y010160D01*
X009314Y010127D01*
X009352Y010092D01*
X009389Y010053D01*
X009422Y010013D01*
X009452Y009969D01*
X009478Y009924D01*
X009502Y009876D01*
X009521Y009828D01*
X009537Y009777D01*
X009549Y009726D01*
X009557Y009674D01*
X009561Y009621D01*
X009561Y009569D01*
X009557Y009516D01*
X009549Y009464D01*
X009537Y009413D01*
X009521Y009362D01*
X009502Y009314D01*
X009478Y009266D01*
X009452Y009221D01*
X009422Y009177D01*
X009389Y009137D01*
X009352Y009098D01*
X009314Y009063D01*
X009272Y009030D01*
X009228Y009001D01*
X009182Y008975D01*
X009134Y008953D01*
X009085Y008935D01*
X009035Y008920D01*
X008983Y008909D01*
X008931Y008902D01*
X008878Y008899D01*
X008826Y008900D01*
X008773Y008905D01*
X008721Y008914D01*
X008670Y008927D01*
X008620Y008944D01*
X008572Y008964D01*
X008525Y008988D01*
X008480Y009015D01*
X008437Y009046D01*
X008397Y009080D01*
X008359Y009117D01*
X008324Y009157D01*
X008293Y009199D01*
X008264Y009243D01*
X008240Y009290D01*
X008218Y009338D01*
X008201Y009387D01*
X008187Y009438D01*
X008177Y009490D01*
X008171Y009542D01*
X008169Y009595D01*
X008149Y010565D02*
X008151Y010618D01*
X008157Y010670D01*
X008167Y010722D01*
X008181Y010773D01*
X008198Y010822D01*
X008220Y010870D01*
X008244Y010917D01*
X008273Y010961D01*
X008304Y011003D01*
X008339Y011043D01*
X008377Y011080D01*
X008417Y011114D01*
X008460Y011145D01*
X008505Y011172D01*
X008552Y011196D01*
X008600Y011216D01*
X008650Y011233D01*
X008701Y011246D01*
X008753Y011255D01*
X008806Y011260D01*
X008858Y011261D01*
X008911Y011258D01*
X008963Y011251D01*
X009015Y011240D01*
X009065Y011225D01*
X009114Y011207D01*
X009162Y011185D01*
X009208Y011159D01*
X009252Y011130D01*
X009294Y011097D01*
X009332Y011062D01*
X009369Y011023D01*
X009402Y010983D01*
X009432Y010939D01*
X009458Y010894D01*
X009482Y010846D01*
X009501Y010798D01*
X009517Y010747D01*
X009529Y010696D01*
X009537Y010644D01*
X009541Y010591D01*
X009541Y010539D01*
X009537Y010486D01*
X009529Y010434D01*
X009517Y010383D01*
X009501Y010332D01*
X009482Y010284D01*
X009458Y010236D01*
X009432Y010191D01*
X009402Y010147D01*
X009369Y010107D01*
X009332Y010068D01*
X009294Y010033D01*
X009252Y010000D01*
X009208Y009971D01*
X009162Y009945D01*
X009114Y009923D01*
X009065Y009905D01*
X009015Y009890D01*
X008963Y009879D01*
X008911Y009872D01*
X008858Y009869D01*
X008806Y009870D01*
X008753Y009875D01*
X008701Y009884D01*
X008650Y009897D01*
X008600Y009914D01*
X008552Y009934D01*
X008505Y009958D01*
X008460Y009985D01*
X008417Y010016D01*
X008377Y010050D01*
X008339Y010087D01*
X008304Y010127D01*
X008273Y010169D01*
X008244Y010213D01*
X008220Y010260D01*
X008198Y010308D01*
X008181Y010357D01*
X008167Y010408D01*
X008157Y010460D01*
X008151Y010512D01*
X008149Y010565D01*
X008592Y011515D02*
X008594Y011551D01*
X008600Y011587D01*
X008609Y011621D01*
X008623Y011655D01*
X008640Y011687D01*
X008660Y011717D01*
X008683Y011744D01*
X008709Y011769D01*
X008738Y011791D01*
X008769Y011809D01*
X008802Y011824D01*
X008836Y011836D01*
X008871Y011844D01*
X008907Y011848D01*
X008943Y011848D01*
X008979Y011844D01*
X009014Y011836D01*
X009048Y011824D01*
X009081Y011809D01*
X009112Y011791D01*
X009141Y011769D01*
X009167Y011744D01*
X009190Y011717D01*
X009210Y011687D01*
X009227Y011655D01*
X009241Y011621D01*
X009250Y011587D01*
X009256Y011551D01*
X009258Y011515D01*
X009256Y011479D01*
X009250Y011443D01*
X009241Y011409D01*
X009227Y011375D01*
X009210Y011343D01*
X009190Y011313D01*
X009167Y011286D01*
X009141Y011261D01*
X009112Y011239D01*
X009081Y011221D01*
X009048Y011206D01*
X009014Y011194D01*
X008979Y011186D01*
X008943Y011182D01*
X008907Y011182D01*
X008871Y011186D01*
X008836Y011194D01*
X008802Y011206D01*
X008769Y011221D01*
X008738Y011239D01*
X008709Y011261D01*
X008683Y011286D01*
X008660Y011313D01*
X008640Y011343D01*
X008623Y011375D01*
X008609Y011409D01*
X008600Y011443D01*
X008594Y011479D01*
X008592Y011515D01*
X008612Y012495D02*
X008614Y012531D01*
X008620Y012567D01*
X008629Y012601D01*
X008643Y012635D01*
X008660Y012667D01*
X008680Y012697D01*
X008703Y012724D01*
X008729Y012749D01*
X008758Y012771D01*
X008789Y012789D01*
X008822Y012804D01*
X008856Y012816D01*
X008891Y012824D01*
X008927Y012828D01*
X008963Y012828D01*
X008999Y012824D01*
X009034Y012816D01*
X009068Y012804D01*
X009101Y012789D01*
X009132Y012771D01*
X009161Y012749D01*
X009187Y012724D01*
X009210Y012697D01*
X009230Y012667D01*
X009247Y012635D01*
X009261Y012601D01*
X009270Y012567D01*
X009276Y012531D01*
X009278Y012495D01*
X009276Y012459D01*
X009270Y012423D01*
X009261Y012389D01*
X009247Y012355D01*
X009230Y012323D01*
X009210Y012293D01*
X009187Y012266D01*
X009161Y012241D01*
X009132Y012219D01*
X009101Y012201D01*
X009068Y012186D01*
X009034Y012174D01*
X008999Y012166D01*
X008963Y012162D01*
X008927Y012162D01*
X008891Y012166D01*
X008856Y012174D01*
X008822Y012186D01*
X008789Y012201D01*
X008758Y012219D01*
X008729Y012241D01*
X008703Y012266D01*
X008680Y012293D01*
X008660Y012323D01*
X008643Y012355D01*
X008629Y012389D01*
X008620Y012423D01*
X008614Y012459D01*
X008612Y012495D01*
X008602Y013455D02*
X008604Y013491D01*
X008610Y013527D01*
X008619Y013561D01*
X008633Y013595D01*
X008650Y013627D01*
X008670Y013657D01*
X008693Y013684D01*
X008719Y013709D01*
X008748Y013731D01*
X008779Y013749D01*
X008812Y013764D01*
X008846Y013776D01*
X008881Y013784D01*
X008917Y013788D01*
X008953Y013788D01*
X008989Y013784D01*
X009024Y013776D01*
X009058Y013764D01*
X009091Y013749D01*
X009122Y013731D01*
X009151Y013709D01*
X009177Y013684D01*
X009200Y013657D01*
X009220Y013627D01*
X009237Y013595D01*
X009251Y013561D01*
X009260Y013527D01*
X009266Y013491D01*
X009268Y013455D01*
X009266Y013419D01*
X009260Y013383D01*
X009251Y013349D01*
X009237Y013315D01*
X009220Y013283D01*
X009200Y013253D01*
X009177Y013226D01*
X009151Y013201D01*
X009122Y013179D01*
X009091Y013161D01*
X009058Y013146D01*
X009024Y013134D01*
X008989Y013126D01*
X008953Y013122D01*
X008917Y013122D01*
X008881Y013126D01*
X008846Y013134D01*
X008812Y013146D01*
X008779Y013161D01*
X008748Y013179D01*
X008719Y013201D01*
X008693Y013226D01*
X008670Y013253D01*
X008650Y013283D01*
X008633Y013315D01*
X008619Y013349D01*
X008610Y013383D01*
X008604Y013419D01*
X008602Y013455D01*
X008592Y014215D02*
X008594Y014251D01*
X008600Y014287D01*
X008609Y014321D01*
X008623Y014355D01*
X008640Y014387D01*
X008660Y014417D01*
X008683Y014444D01*
X008709Y014469D01*
X008738Y014491D01*
X008769Y014509D01*
X008802Y014524D01*
X008836Y014536D01*
X008871Y014544D01*
X008907Y014548D01*
X008943Y014548D01*
X008979Y014544D01*
X009014Y014536D01*
X009048Y014524D01*
X009081Y014509D01*
X009112Y014491D01*
X009141Y014469D01*
X009167Y014444D01*
X009190Y014417D01*
X009210Y014387D01*
X009227Y014355D01*
X009241Y014321D01*
X009250Y014287D01*
X009256Y014251D01*
X009258Y014215D01*
X009256Y014179D01*
X009250Y014143D01*
X009241Y014109D01*
X009227Y014075D01*
X009210Y014043D01*
X009190Y014013D01*
X009167Y013986D01*
X009141Y013961D01*
X009112Y013939D01*
X009081Y013921D01*
X009048Y013906D01*
X009014Y013894D01*
X008979Y013886D01*
X008943Y013882D01*
X008907Y013882D01*
X008871Y013886D01*
X008836Y013894D01*
X008802Y013906D01*
X008769Y013921D01*
X008738Y013939D01*
X008709Y013961D01*
X008683Y013986D01*
X008660Y014013D01*
X008640Y014043D01*
X008623Y014075D01*
X008609Y014109D01*
X008600Y014143D01*
X008594Y014179D01*
X008592Y014215D01*
X007612Y002777D02*
X006746Y002777D01*
X007612Y002777D02*
X007612Y000809D01*
X004698Y000809D01*
X004698Y002777D01*
X005565Y002777D01*
D13*
X001584Y014820D03*
X010155Y014655D03*
D14*
X006155Y015155D03*
D15*
X001986Y017655D02*
X001988Y017706D01*
X001994Y017757D01*
X002004Y017807D01*
X002017Y017857D01*
X002035Y017905D01*
X002055Y017952D01*
X002080Y017997D01*
X002108Y018040D01*
X002139Y018081D01*
X002173Y018119D01*
X002210Y018154D01*
X002249Y018187D01*
X002291Y018217D01*
X002335Y018243D01*
X002381Y018265D01*
X002429Y018285D01*
X002478Y018300D01*
X002528Y018312D01*
X002578Y018320D01*
X002629Y018324D01*
X002681Y018324D01*
X002732Y018320D01*
X002782Y018312D01*
X002832Y018300D01*
X002881Y018285D01*
X002929Y018265D01*
X002975Y018243D01*
X003019Y018217D01*
X003061Y018187D01*
X003100Y018154D01*
X003137Y018119D01*
X003171Y018081D01*
X003202Y018040D01*
X003230Y017997D01*
X003255Y017952D01*
X003275Y017905D01*
X003293Y017857D01*
X003306Y017807D01*
X003316Y017757D01*
X003322Y017706D01*
X003324Y017655D01*
X003322Y017604D01*
X003316Y017553D01*
X003306Y017503D01*
X003293Y017453D01*
X003275Y017405D01*
X003255Y017358D01*
X003230Y017313D01*
X003202Y017270D01*
X003171Y017229D01*
X003137Y017191D01*
X003100Y017156D01*
X003061Y017123D01*
X003019Y017093D01*
X002975Y017067D01*
X002929Y017045D01*
X002881Y017025D01*
X002832Y017010D01*
X002782Y016998D01*
X002732Y016990D01*
X002681Y016986D01*
X002629Y016986D01*
X002578Y016990D01*
X002528Y016998D01*
X002478Y017010D01*
X002429Y017025D01*
X002381Y017045D01*
X002335Y017067D01*
X002291Y017093D01*
X002249Y017123D01*
X002210Y017156D01*
X002173Y017191D01*
X002139Y017229D01*
X002108Y017270D01*
X002080Y017313D01*
X002055Y017358D01*
X002035Y017405D01*
X002017Y017453D01*
X002004Y017503D01*
X001994Y017553D01*
X001988Y017604D01*
X001986Y017655D01*
X011455Y003445D02*
X011455Y000865D01*
X012855Y000865D01*
X012855Y003445D01*
X011455Y003445D01*
X016986Y002655D02*
X016988Y002706D01*
X016994Y002757D01*
X017004Y002807D01*
X017017Y002857D01*
X017035Y002905D01*
X017055Y002952D01*
X017080Y002997D01*
X017108Y003040D01*
X017139Y003081D01*
X017173Y003119D01*
X017210Y003154D01*
X017249Y003187D01*
X017291Y003217D01*
X017335Y003243D01*
X017381Y003265D01*
X017429Y003285D01*
X017478Y003300D01*
X017528Y003312D01*
X017578Y003320D01*
X017629Y003324D01*
X017681Y003324D01*
X017732Y003320D01*
X017782Y003312D01*
X017832Y003300D01*
X017881Y003285D01*
X017929Y003265D01*
X017975Y003243D01*
X018019Y003217D01*
X018061Y003187D01*
X018100Y003154D01*
X018137Y003119D01*
X018171Y003081D01*
X018202Y003040D01*
X018230Y002997D01*
X018255Y002952D01*
X018275Y002905D01*
X018293Y002857D01*
X018306Y002807D01*
X018316Y002757D01*
X018322Y002706D01*
X018324Y002655D01*
X018322Y002604D01*
X018316Y002553D01*
X018306Y002503D01*
X018293Y002453D01*
X018275Y002405D01*
X018255Y002358D01*
X018230Y002313D01*
X018202Y002270D01*
X018171Y002229D01*
X018137Y002191D01*
X018100Y002156D01*
X018061Y002123D01*
X018019Y002093D01*
X017975Y002067D01*
X017929Y002045D01*
X017881Y002025D01*
X017832Y002010D01*
X017782Y001998D01*
X017732Y001990D01*
X017681Y001986D01*
X017629Y001986D01*
X017578Y001990D01*
X017528Y001998D01*
X017478Y002010D01*
X017429Y002025D01*
X017381Y002045D01*
X017335Y002067D01*
X017291Y002093D01*
X017249Y002123D01*
X017210Y002156D01*
X017173Y002191D01*
X017139Y002229D01*
X017108Y002270D01*
X017080Y002313D01*
X017055Y002358D01*
X017035Y002405D01*
X017017Y002453D01*
X017004Y002503D01*
X016994Y002553D01*
X016988Y002604D01*
X016986Y002655D01*
X018155Y005155D02*
X018155Y015155D01*
X019155Y015155D01*
X019155Y005155D01*
X018155Y005155D01*
X016986Y017655D02*
X016988Y017706D01*
X016994Y017757D01*
X017004Y017807D01*
X017017Y017857D01*
X017035Y017905D01*
X017055Y017952D01*
X017080Y017997D01*
X017108Y018040D01*
X017139Y018081D01*
X017173Y018119D01*
X017210Y018154D01*
X017249Y018187D01*
X017291Y018217D01*
X017335Y018243D01*
X017381Y018265D01*
X017429Y018285D01*
X017478Y018300D01*
X017528Y018312D01*
X017578Y018320D01*
X017629Y018324D01*
X017681Y018324D01*
X017732Y018320D01*
X017782Y018312D01*
X017832Y018300D01*
X017881Y018285D01*
X017929Y018265D01*
X017975Y018243D01*
X018019Y018217D01*
X018061Y018187D01*
X018100Y018154D01*
X018137Y018119D01*
X018171Y018081D01*
X018202Y018040D01*
X018230Y017997D01*
X018255Y017952D01*
X018275Y017905D01*
X018293Y017857D01*
X018306Y017807D01*
X018316Y017757D01*
X018322Y017706D01*
X018324Y017655D01*
X018322Y017604D01*
X018316Y017553D01*
X018306Y017503D01*
X018293Y017453D01*
X018275Y017405D01*
X018255Y017358D01*
X018230Y017313D01*
X018202Y017270D01*
X018171Y017229D01*
X018137Y017191D01*
X018100Y017156D01*
X018061Y017123D01*
X018019Y017093D01*
X017975Y017067D01*
X017929Y017045D01*
X017881Y017025D01*
X017832Y017010D01*
X017782Y016998D01*
X017732Y016990D01*
X017681Y016986D01*
X017629Y016986D01*
X017578Y016990D01*
X017528Y016998D01*
X017478Y017010D01*
X017429Y017025D01*
X017381Y017045D01*
X017335Y017067D01*
X017291Y017093D01*
X017249Y017123D01*
X017210Y017156D01*
X017173Y017191D01*
X017139Y017229D01*
X017108Y017270D01*
X017080Y017313D01*
X017055Y017358D01*
X017035Y017405D01*
X017017Y017453D01*
X017004Y017503D01*
X016994Y017553D01*
X016988Y017604D01*
X016986Y017655D01*
X001986Y002655D02*
X001988Y002706D01*
X001994Y002757D01*
X002004Y002807D01*
X002017Y002857D01*
X002035Y002905D01*
X002055Y002952D01*
X002080Y002997D01*
X002108Y003040D01*
X002139Y003081D01*
X002173Y003119D01*
X002210Y003154D01*
X002249Y003187D01*
X002291Y003217D01*
X002335Y003243D01*
X002381Y003265D01*
X002429Y003285D01*
X002478Y003300D01*
X002528Y003312D01*
X002578Y003320D01*
X002629Y003324D01*
X002681Y003324D01*
X002732Y003320D01*
X002782Y003312D01*
X002832Y003300D01*
X002881Y003285D01*
X002929Y003265D01*
X002975Y003243D01*
X003019Y003217D01*
X003061Y003187D01*
X003100Y003154D01*
X003137Y003119D01*
X003171Y003081D01*
X003202Y003040D01*
X003230Y002997D01*
X003255Y002952D01*
X003275Y002905D01*
X003293Y002857D01*
X003306Y002807D01*
X003316Y002757D01*
X003322Y002706D01*
X003324Y002655D01*
X003322Y002604D01*
X003316Y002553D01*
X003306Y002503D01*
X003293Y002453D01*
X003275Y002405D01*
X003255Y002358D01*
X003230Y002313D01*
X003202Y002270D01*
X003171Y002229D01*
X003137Y002191D01*
X003100Y002156D01*
X003061Y002123D01*
X003019Y002093D01*
X002975Y002067D01*
X002929Y002045D01*
X002881Y002025D01*
X002832Y002010D01*
X002782Y001998D01*
X002732Y001990D01*
X002681Y001986D01*
X002629Y001986D01*
X002578Y001990D01*
X002528Y001998D01*
X002478Y002010D01*
X002429Y002025D01*
X002381Y002045D01*
X002335Y002067D01*
X002291Y002093D01*
X002249Y002123D01*
X002210Y002156D01*
X002173Y002191D01*
X002139Y002229D01*
X002108Y002270D01*
X002080Y002313D01*
X002055Y002358D01*
X002035Y002405D01*
X002017Y002453D01*
X002004Y002503D01*
X001994Y002553D01*
X001988Y002604D01*
X001986Y002655D01*
D16*
X008328Y002982D02*
X008328Y001761D01*
X008761Y001328D01*
X009549Y001328D02*
X009982Y001761D01*
X009982Y002982D01*
X009490Y002982D01*
X008820Y002982D02*
X008328Y002982D01*
X008820Y002844D02*
X008772Y002818D01*
X008725Y002789D01*
X008680Y002756D01*
X008638Y002720D01*
X008599Y002681D01*
X008562Y002640D01*
X008529Y002596D01*
X008498Y002550D01*
X008472Y002501D01*
X008449Y002451D01*
X008429Y002399D01*
X008413Y002346D01*
X008401Y002292D01*
X008393Y002238D01*
X008389Y002183D01*
X008389Y002127D01*
X008393Y002072D01*
X008401Y002018D01*
X008413Y001964D01*
X008429Y001911D01*
X008449Y001859D01*
X008472Y001809D01*
X008498Y001760D01*
X008529Y001714D01*
X008562Y001670D01*
X008599Y001629D01*
X008638Y001590D01*
X008680Y001554D01*
X008725Y001521D01*
X008772Y001492D01*
X008820Y001466D01*
X009490Y001466D02*
X009538Y001492D01*
X009585Y001521D01*
X009630Y001554D01*
X009672Y001590D01*
X009711Y001629D01*
X009748Y001670D01*
X009781Y001714D01*
X009812Y001760D01*
X009838Y001809D01*
X009861Y001859D01*
X009881Y001911D01*
X009897Y001964D01*
X009909Y002018D01*
X009917Y002072D01*
X009921Y002127D01*
X009921Y002183D01*
X009917Y002238D01*
X009909Y002292D01*
X009897Y002346D01*
X009881Y002399D01*
X009861Y002451D01*
X009838Y002501D01*
X009812Y002550D01*
X009781Y002596D01*
X009748Y002640D01*
X009711Y002681D01*
X009672Y002720D01*
X009630Y002756D01*
X009585Y002789D01*
X009538Y002818D01*
X009490Y002844D01*
M02*
