G75*
G70*
%OFA0B0*%
%FSLAX24Y24*%
%IPPOS*%
%LPD*%
%AMOC8*
5,1,8,0,0,1.08239X$1,22.5*
%
%ADD10C,0.0000*%
%ADD11C,0.1025*%
%ADD12C,0.0946*%
%ADD13C,0.1340*%
%ADD14C,0.0297*%
%ADD15C,0.0674*%
%ADD16C,0.0740*%
D10*
X000655Y002655D02*
X000655Y017655D01*
X002025Y017655D02*
X002027Y017705D01*
X002033Y017755D01*
X002043Y017804D01*
X002057Y017852D01*
X002074Y017899D01*
X002095Y017944D01*
X002120Y017988D01*
X002148Y018029D01*
X002180Y018068D01*
X002214Y018105D01*
X002251Y018139D01*
X002291Y018169D01*
X002333Y018196D01*
X002377Y018220D01*
X002423Y018241D01*
X002470Y018257D01*
X002518Y018270D01*
X002568Y018279D01*
X002617Y018284D01*
X002668Y018285D01*
X002718Y018282D01*
X002767Y018275D01*
X002816Y018264D01*
X002864Y018249D01*
X002910Y018231D01*
X002955Y018209D01*
X002998Y018183D01*
X003039Y018154D01*
X003078Y018122D01*
X003114Y018087D01*
X003146Y018049D01*
X003176Y018009D01*
X003203Y017966D01*
X003226Y017922D01*
X003245Y017876D01*
X003261Y017828D01*
X003273Y017779D01*
X003281Y017730D01*
X003285Y017680D01*
X003285Y017630D01*
X003281Y017580D01*
X003273Y017531D01*
X003261Y017482D01*
X003245Y017434D01*
X003226Y017388D01*
X003203Y017344D01*
X003176Y017301D01*
X003146Y017261D01*
X003114Y017223D01*
X003078Y017188D01*
X003039Y017156D01*
X002998Y017127D01*
X002955Y017101D01*
X002910Y017079D01*
X002864Y017061D01*
X002816Y017046D01*
X002767Y017035D01*
X002718Y017028D01*
X002668Y017025D01*
X002617Y017026D01*
X002568Y017031D01*
X002518Y017040D01*
X002470Y017053D01*
X002423Y017069D01*
X002377Y017090D01*
X002333Y017114D01*
X002291Y017141D01*
X002251Y017171D01*
X002214Y017205D01*
X002180Y017242D01*
X002148Y017281D01*
X002120Y017322D01*
X002095Y017366D01*
X002074Y017411D01*
X002057Y017458D01*
X002043Y017506D01*
X002033Y017555D01*
X002027Y017605D01*
X002025Y017655D01*
X000655Y017655D02*
X000657Y017750D01*
X000664Y017845D01*
X000675Y017940D01*
X000691Y018034D01*
X000711Y018127D01*
X000736Y018218D01*
X000765Y018309D01*
X000798Y018398D01*
X000836Y018486D01*
X000877Y018571D01*
X000923Y018655D01*
X000972Y018736D01*
X001026Y018815D01*
X001083Y018891D01*
X001144Y018965D01*
X001208Y019035D01*
X001275Y019102D01*
X001345Y019166D01*
X001419Y019227D01*
X001495Y019284D01*
X001574Y019338D01*
X001655Y019387D01*
X001739Y019433D01*
X001824Y019474D01*
X001912Y019512D01*
X002001Y019545D01*
X002092Y019574D01*
X002183Y019599D01*
X002276Y019619D01*
X002370Y019635D01*
X002465Y019646D01*
X002560Y019653D01*
X002655Y019655D01*
X017655Y019655D01*
X017025Y017655D02*
X017027Y017705D01*
X017033Y017755D01*
X017043Y017804D01*
X017057Y017852D01*
X017074Y017899D01*
X017095Y017944D01*
X017120Y017988D01*
X017148Y018029D01*
X017180Y018068D01*
X017214Y018105D01*
X017251Y018139D01*
X017291Y018169D01*
X017333Y018196D01*
X017377Y018220D01*
X017423Y018241D01*
X017470Y018257D01*
X017518Y018270D01*
X017568Y018279D01*
X017617Y018284D01*
X017668Y018285D01*
X017718Y018282D01*
X017767Y018275D01*
X017816Y018264D01*
X017864Y018249D01*
X017910Y018231D01*
X017955Y018209D01*
X017998Y018183D01*
X018039Y018154D01*
X018078Y018122D01*
X018114Y018087D01*
X018146Y018049D01*
X018176Y018009D01*
X018203Y017966D01*
X018226Y017922D01*
X018245Y017876D01*
X018261Y017828D01*
X018273Y017779D01*
X018281Y017730D01*
X018285Y017680D01*
X018285Y017630D01*
X018281Y017580D01*
X018273Y017531D01*
X018261Y017482D01*
X018245Y017434D01*
X018226Y017388D01*
X018203Y017344D01*
X018176Y017301D01*
X018146Y017261D01*
X018114Y017223D01*
X018078Y017188D01*
X018039Y017156D01*
X017998Y017127D01*
X017955Y017101D01*
X017910Y017079D01*
X017864Y017061D01*
X017816Y017046D01*
X017767Y017035D01*
X017718Y017028D01*
X017668Y017025D01*
X017617Y017026D01*
X017568Y017031D01*
X017518Y017040D01*
X017470Y017053D01*
X017423Y017069D01*
X017377Y017090D01*
X017333Y017114D01*
X017291Y017141D01*
X017251Y017171D01*
X017214Y017205D01*
X017180Y017242D01*
X017148Y017281D01*
X017120Y017322D01*
X017095Y017366D01*
X017074Y017411D01*
X017057Y017458D01*
X017043Y017506D01*
X017033Y017555D01*
X017027Y017605D01*
X017025Y017655D01*
X017655Y019655D02*
X017750Y019653D01*
X017845Y019646D01*
X017940Y019635D01*
X018034Y019619D01*
X018127Y019599D01*
X018218Y019574D01*
X018309Y019545D01*
X018398Y019512D01*
X018486Y019474D01*
X018571Y019433D01*
X018655Y019387D01*
X018736Y019338D01*
X018815Y019284D01*
X018891Y019227D01*
X018965Y019166D01*
X019035Y019102D01*
X019102Y019035D01*
X019166Y018965D01*
X019227Y018891D01*
X019284Y018815D01*
X019338Y018736D01*
X019387Y018655D01*
X019433Y018571D01*
X019474Y018486D01*
X019512Y018398D01*
X019545Y018309D01*
X019574Y018218D01*
X019599Y018127D01*
X019619Y018034D01*
X019635Y017940D01*
X019646Y017845D01*
X019653Y017750D01*
X019655Y017655D01*
X019655Y002655D01*
X017025Y002655D02*
X017027Y002705D01*
X017033Y002755D01*
X017043Y002804D01*
X017057Y002852D01*
X017074Y002899D01*
X017095Y002944D01*
X017120Y002988D01*
X017148Y003029D01*
X017180Y003068D01*
X017214Y003105D01*
X017251Y003139D01*
X017291Y003169D01*
X017333Y003196D01*
X017377Y003220D01*
X017423Y003241D01*
X017470Y003257D01*
X017518Y003270D01*
X017568Y003279D01*
X017617Y003284D01*
X017668Y003285D01*
X017718Y003282D01*
X017767Y003275D01*
X017816Y003264D01*
X017864Y003249D01*
X017910Y003231D01*
X017955Y003209D01*
X017998Y003183D01*
X018039Y003154D01*
X018078Y003122D01*
X018114Y003087D01*
X018146Y003049D01*
X018176Y003009D01*
X018203Y002966D01*
X018226Y002922D01*
X018245Y002876D01*
X018261Y002828D01*
X018273Y002779D01*
X018281Y002730D01*
X018285Y002680D01*
X018285Y002630D01*
X018281Y002580D01*
X018273Y002531D01*
X018261Y002482D01*
X018245Y002434D01*
X018226Y002388D01*
X018203Y002344D01*
X018176Y002301D01*
X018146Y002261D01*
X018114Y002223D01*
X018078Y002188D01*
X018039Y002156D01*
X017998Y002127D01*
X017955Y002101D01*
X017910Y002079D01*
X017864Y002061D01*
X017816Y002046D01*
X017767Y002035D01*
X017718Y002028D01*
X017668Y002025D01*
X017617Y002026D01*
X017568Y002031D01*
X017518Y002040D01*
X017470Y002053D01*
X017423Y002069D01*
X017377Y002090D01*
X017333Y002114D01*
X017291Y002141D01*
X017251Y002171D01*
X017214Y002205D01*
X017180Y002242D01*
X017148Y002281D01*
X017120Y002322D01*
X017095Y002366D01*
X017074Y002411D01*
X017057Y002458D01*
X017043Y002506D01*
X017033Y002555D01*
X017027Y002605D01*
X017025Y002655D01*
X017655Y000655D02*
X017750Y000657D01*
X017845Y000664D01*
X017940Y000675D01*
X018034Y000691D01*
X018127Y000711D01*
X018218Y000736D01*
X018309Y000765D01*
X018398Y000798D01*
X018486Y000836D01*
X018571Y000877D01*
X018655Y000923D01*
X018736Y000972D01*
X018815Y001026D01*
X018891Y001083D01*
X018965Y001144D01*
X019035Y001208D01*
X019102Y001275D01*
X019166Y001345D01*
X019227Y001419D01*
X019284Y001495D01*
X019338Y001574D01*
X019387Y001655D01*
X019433Y001739D01*
X019474Y001824D01*
X019512Y001912D01*
X019545Y002001D01*
X019574Y002092D01*
X019599Y002183D01*
X019619Y002276D01*
X019635Y002370D01*
X019646Y002465D01*
X019653Y002560D01*
X019655Y002655D01*
X017655Y000655D02*
X002655Y000655D01*
X002025Y002655D02*
X002027Y002705D01*
X002033Y002755D01*
X002043Y002804D01*
X002057Y002852D01*
X002074Y002899D01*
X002095Y002944D01*
X002120Y002988D01*
X002148Y003029D01*
X002180Y003068D01*
X002214Y003105D01*
X002251Y003139D01*
X002291Y003169D01*
X002333Y003196D01*
X002377Y003220D01*
X002423Y003241D01*
X002470Y003257D01*
X002518Y003270D01*
X002568Y003279D01*
X002617Y003284D01*
X002668Y003285D01*
X002718Y003282D01*
X002767Y003275D01*
X002816Y003264D01*
X002864Y003249D01*
X002910Y003231D01*
X002955Y003209D01*
X002998Y003183D01*
X003039Y003154D01*
X003078Y003122D01*
X003114Y003087D01*
X003146Y003049D01*
X003176Y003009D01*
X003203Y002966D01*
X003226Y002922D01*
X003245Y002876D01*
X003261Y002828D01*
X003273Y002779D01*
X003281Y002730D01*
X003285Y002680D01*
X003285Y002630D01*
X003281Y002580D01*
X003273Y002531D01*
X003261Y002482D01*
X003245Y002434D01*
X003226Y002388D01*
X003203Y002344D01*
X003176Y002301D01*
X003146Y002261D01*
X003114Y002223D01*
X003078Y002188D01*
X003039Y002156D01*
X002998Y002127D01*
X002955Y002101D01*
X002910Y002079D01*
X002864Y002061D01*
X002816Y002046D01*
X002767Y002035D01*
X002718Y002028D01*
X002668Y002025D01*
X002617Y002026D01*
X002568Y002031D01*
X002518Y002040D01*
X002470Y002053D01*
X002423Y002069D01*
X002377Y002090D01*
X002333Y002114D01*
X002291Y002141D01*
X002251Y002171D01*
X002214Y002205D01*
X002180Y002242D01*
X002148Y002281D01*
X002120Y002322D01*
X002095Y002366D01*
X002074Y002411D01*
X002057Y002458D01*
X002043Y002506D01*
X002033Y002555D01*
X002027Y002605D01*
X002025Y002655D01*
X000655Y002655D02*
X000657Y002560D01*
X000664Y002465D01*
X000675Y002370D01*
X000691Y002276D01*
X000711Y002183D01*
X000736Y002092D01*
X000765Y002001D01*
X000798Y001912D01*
X000836Y001824D01*
X000877Y001739D01*
X000923Y001655D01*
X000972Y001574D01*
X001026Y001495D01*
X001083Y001419D01*
X001144Y001345D01*
X001208Y001275D01*
X001275Y001208D01*
X001345Y001144D01*
X001419Y001083D01*
X001495Y001026D01*
X001574Y000972D01*
X001655Y000923D01*
X001739Y000877D01*
X001824Y000836D01*
X001912Y000798D01*
X002001Y000765D01*
X002092Y000736D01*
X002183Y000711D01*
X002276Y000691D01*
X002370Y000675D01*
X002465Y000664D01*
X002560Y000657D01*
X002655Y000655D01*
X005260Y002502D02*
X005262Y002522D01*
X005268Y002542D01*
X005277Y002560D01*
X005290Y002577D01*
X005305Y002590D01*
X005323Y002600D01*
X005343Y002607D01*
X005363Y002610D01*
X005383Y002609D01*
X005403Y002604D01*
X005422Y002596D01*
X005439Y002584D01*
X005453Y002569D01*
X005464Y002551D01*
X005472Y002532D01*
X005476Y002512D01*
X005476Y002492D01*
X005472Y002472D01*
X005464Y002453D01*
X005453Y002435D01*
X005439Y002420D01*
X005422Y002408D01*
X005403Y002400D01*
X005383Y002395D01*
X005363Y002394D01*
X005343Y002397D01*
X005323Y002404D01*
X005305Y002414D01*
X005290Y002427D01*
X005277Y002444D01*
X005268Y002462D01*
X005262Y002482D01*
X005260Y002502D01*
X006835Y002502D02*
X006837Y002522D01*
X006843Y002542D01*
X006852Y002560D01*
X006865Y002577D01*
X006880Y002590D01*
X006898Y002600D01*
X006918Y002607D01*
X006938Y002610D01*
X006958Y002609D01*
X006978Y002604D01*
X006997Y002596D01*
X007014Y002584D01*
X007028Y002569D01*
X007039Y002551D01*
X007047Y002532D01*
X007051Y002512D01*
X007051Y002492D01*
X007047Y002472D01*
X007039Y002453D01*
X007028Y002435D01*
X007014Y002420D01*
X006997Y002408D01*
X006978Y002400D01*
X006958Y002395D01*
X006938Y002394D01*
X006918Y002397D01*
X006898Y002404D01*
X006880Y002414D01*
X006865Y002427D01*
X006852Y002444D01*
X006843Y002462D01*
X006837Y002482D01*
X006835Y002502D01*
X002172Y015055D02*
X002174Y015096D01*
X002180Y015137D01*
X002190Y015177D01*
X002203Y015216D01*
X002220Y015253D01*
X002241Y015289D01*
X002265Y015323D01*
X002292Y015354D01*
X002321Y015382D01*
X002354Y015408D01*
X002388Y015430D01*
X002425Y015449D01*
X002463Y015464D01*
X002503Y015476D01*
X002543Y015484D01*
X002584Y015488D01*
X002626Y015488D01*
X002667Y015484D01*
X002707Y015476D01*
X002747Y015464D01*
X002785Y015449D01*
X002821Y015430D01*
X002856Y015408D01*
X002889Y015382D01*
X002918Y015354D01*
X002945Y015323D01*
X002969Y015289D01*
X002990Y015253D01*
X003007Y015216D01*
X003020Y015177D01*
X003030Y015137D01*
X003036Y015096D01*
X003038Y015055D01*
X003036Y015014D01*
X003030Y014973D01*
X003020Y014933D01*
X003007Y014894D01*
X002990Y014857D01*
X002969Y014821D01*
X002945Y014787D01*
X002918Y014756D01*
X002889Y014728D01*
X002856Y014702D01*
X002822Y014680D01*
X002785Y014661D01*
X002747Y014646D01*
X002707Y014634D01*
X002667Y014626D01*
X002626Y014622D01*
X002584Y014622D01*
X002543Y014626D01*
X002503Y014634D01*
X002463Y014646D01*
X002425Y014661D01*
X002389Y014680D01*
X002354Y014702D01*
X002321Y014728D01*
X002292Y014756D01*
X002265Y014787D01*
X002241Y014821D01*
X002220Y014857D01*
X002203Y014894D01*
X002190Y014933D01*
X002180Y014973D01*
X002174Y015014D01*
X002172Y015055D01*
D11*
X002605Y005555D03*
D12*
X002605Y015055D03*
D13*
X002655Y017655D03*
X002655Y002655D03*
X017655Y002655D03*
X017655Y017655D03*
D14*
X006943Y002502D03*
X005368Y002502D03*
D15*
X005043Y001655D03*
X007267Y001655D03*
D16*
X018655Y005655D03*
X018655Y006655D03*
X018655Y007655D03*
X018655Y008655D03*
X018655Y009655D03*
X018655Y010655D03*
X018655Y011655D03*
X018655Y012655D03*
X018655Y013655D03*
X018655Y014655D03*
M02*
