G75*
G70*
%OFA0B0*%
%FSLAX24Y24*%
%IPPOS*%
%LPD*%
%AMOC8*
5,1,8,0,0,1.08239X$1,22.5*
%
%ADD10C,0.0000*%
%ADD11C,0.0014*%
%ADD12C,0.0022*%
%ADD13C,0.0525*%
%ADD14C,0.0024*%
%ADD15C,0.1025*%
%ADD16C,0.0946*%
%ADD17R,0.0867X0.0671*%
%ADD18R,0.0867X0.1576*%
%ADD19R,0.0631X0.0946*%
%ADD20R,0.0474X0.0513*%
%ADD21C,0.1340*%
%ADD22R,0.0237X0.0966*%
%ADD23C,0.0297*%
%ADD24C,0.0674*%
%ADD25R,0.0828X0.0828*%
%ADD26C,0.0740*%
%ADD27R,0.0513X0.0474*%
%ADD28R,0.0631X0.0474*%
D10*
X000655Y002655D02*
X000655Y017655D01*
X002025Y017655D02*
X002027Y017705D01*
X002033Y017755D01*
X002043Y017804D01*
X002057Y017852D01*
X002074Y017899D01*
X002095Y017944D01*
X002120Y017988D01*
X002148Y018029D01*
X002180Y018068D01*
X002214Y018105D01*
X002251Y018139D01*
X002291Y018169D01*
X002333Y018196D01*
X002377Y018220D01*
X002423Y018241D01*
X002470Y018257D01*
X002518Y018270D01*
X002568Y018279D01*
X002617Y018284D01*
X002668Y018285D01*
X002718Y018282D01*
X002767Y018275D01*
X002816Y018264D01*
X002864Y018249D01*
X002910Y018231D01*
X002955Y018209D01*
X002998Y018183D01*
X003039Y018154D01*
X003078Y018122D01*
X003114Y018087D01*
X003146Y018049D01*
X003176Y018009D01*
X003203Y017966D01*
X003226Y017922D01*
X003245Y017876D01*
X003261Y017828D01*
X003273Y017779D01*
X003281Y017730D01*
X003285Y017680D01*
X003285Y017630D01*
X003281Y017580D01*
X003273Y017531D01*
X003261Y017482D01*
X003245Y017434D01*
X003226Y017388D01*
X003203Y017344D01*
X003176Y017301D01*
X003146Y017261D01*
X003114Y017223D01*
X003078Y017188D01*
X003039Y017156D01*
X002998Y017127D01*
X002955Y017101D01*
X002910Y017079D01*
X002864Y017061D01*
X002816Y017046D01*
X002767Y017035D01*
X002718Y017028D01*
X002668Y017025D01*
X002617Y017026D01*
X002568Y017031D01*
X002518Y017040D01*
X002470Y017053D01*
X002423Y017069D01*
X002377Y017090D01*
X002333Y017114D01*
X002291Y017141D01*
X002251Y017171D01*
X002214Y017205D01*
X002180Y017242D01*
X002148Y017281D01*
X002120Y017322D01*
X002095Y017366D01*
X002074Y017411D01*
X002057Y017458D01*
X002043Y017506D01*
X002033Y017555D01*
X002027Y017605D01*
X002025Y017655D01*
X000655Y017655D02*
X000657Y017750D01*
X000664Y017845D01*
X000675Y017940D01*
X000691Y018034D01*
X000711Y018127D01*
X000736Y018218D01*
X000765Y018309D01*
X000798Y018398D01*
X000836Y018486D01*
X000877Y018571D01*
X000923Y018655D01*
X000972Y018736D01*
X001026Y018815D01*
X001083Y018891D01*
X001144Y018965D01*
X001208Y019035D01*
X001275Y019102D01*
X001345Y019166D01*
X001419Y019227D01*
X001495Y019284D01*
X001574Y019338D01*
X001655Y019387D01*
X001739Y019433D01*
X001824Y019474D01*
X001912Y019512D01*
X002001Y019545D01*
X002092Y019574D01*
X002183Y019599D01*
X002276Y019619D01*
X002370Y019635D01*
X002465Y019646D01*
X002560Y019653D01*
X002655Y019655D01*
X017655Y019655D01*
X017025Y017655D02*
X017027Y017705D01*
X017033Y017755D01*
X017043Y017804D01*
X017057Y017852D01*
X017074Y017899D01*
X017095Y017944D01*
X017120Y017988D01*
X017148Y018029D01*
X017180Y018068D01*
X017214Y018105D01*
X017251Y018139D01*
X017291Y018169D01*
X017333Y018196D01*
X017377Y018220D01*
X017423Y018241D01*
X017470Y018257D01*
X017518Y018270D01*
X017568Y018279D01*
X017617Y018284D01*
X017668Y018285D01*
X017718Y018282D01*
X017767Y018275D01*
X017816Y018264D01*
X017864Y018249D01*
X017910Y018231D01*
X017955Y018209D01*
X017998Y018183D01*
X018039Y018154D01*
X018078Y018122D01*
X018114Y018087D01*
X018146Y018049D01*
X018176Y018009D01*
X018203Y017966D01*
X018226Y017922D01*
X018245Y017876D01*
X018261Y017828D01*
X018273Y017779D01*
X018281Y017730D01*
X018285Y017680D01*
X018285Y017630D01*
X018281Y017580D01*
X018273Y017531D01*
X018261Y017482D01*
X018245Y017434D01*
X018226Y017388D01*
X018203Y017344D01*
X018176Y017301D01*
X018146Y017261D01*
X018114Y017223D01*
X018078Y017188D01*
X018039Y017156D01*
X017998Y017127D01*
X017955Y017101D01*
X017910Y017079D01*
X017864Y017061D01*
X017816Y017046D01*
X017767Y017035D01*
X017718Y017028D01*
X017668Y017025D01*
X017617Y017026D01*
X017568Y017031D01*
X017518Y017040D01*
X017470Y017053D01*
X017423Y017069D01*
X017377Y017090D01*
X017333Y017114D01*
X017291Y017141D01*
X017251Y017171D01*
X017214Y017205D01*
X017180Y017242D01*
X017148Y017281D01*
X017120Y017322D01*
X017095Y017366D01*
X017074Y017411D01*
X017057Y017458D01*
X017043Y017506D01*
X017033Y017555D01*
X017027Y017605D01*
X017025Y017655D01*
X017655Y019655D02*
X017750Y019653D01*
X017845Y019646D01*
X017940Y019635D01*
X018034Y019619D01*
X018127Y019599D01*
X018218Y019574D01*
X018309Y019545D01*
X018398Y019512D01*
X018486Y019474D01*
X018571Y019433D01*
X018655Y019387D01*
X018736Y019338D01*
X018815Y019284D01*
X018891Y019227D01*
X018965Y019166D01*
X019035Y019102D01*
X019102Y019035D01*
X019166Y018965D01*
X019227Y018891D01*
X019284Y018815D01*
X019338Y018736D01*
X019387Y018655D01*
X019433Y018571D01*
X019474Y018486D01*
X019512Y018398D01*
X019545Y018309D01*
X019574Y018218D01*
X019599Y018127D01*
X019619Y018034D01*
X019635Y017940D01*
X019646Y017845D01*
X019653Y017750D01*
X019655Y017655D01*
X019655Y002655D01*
X017025Y002655D02*
X017027Y002705D01*
X017033Y002755D01*
X017043Y002804D01*
X017057Y002852D01*
X017074Y002899D01*
X017095Y002944D01*
X017120Y002988D01*
X017148Y003029D01*
X017180Y003068D01*
X017214Y003105D01*
X017251Y003139D01*
X017291Y003169D01*
X017333Y003196D01*
X017377Y003220D01*
X017423Y003241D01*
X017470Y003257D01*
X017518Y003270D01*
X017568Y003279D01*
X017617Y003284D01*
X017668Y003285D01*
X017718Y003282D01*
X017767Y003275D01*
X017816Y003264D01*
X017864Y003249D01*
X017910Y003231D01*
X017955Y003209D01*
X017998Y003183D01*
X018039Y003154D01*
X018078Y003122D01*
X018114Y003087D01*
X018146Y003049D01*
X018176Y003009D01*
X018203Y002966D01*
X018226Y002922D01*
X018245Y002876D01*
X018261Y002828D01*
X018273Y002779D01*
X018281Y002730D01*
X018285Y002680D01*
X018285Y002630D01*
X018281Y002580D01*
X018273Y002531D01*
X018261Y002482D01*
X018245Y002434D01*
X018226Y002388D01*
X018203Y002344D01*
X018176Y002301D01*
X018146Y002261D01*
X018114Y002223D01*
X018078Y002188D01*
X018039Y002156D01*
X017998Y002127D01*
X017955Y002101D01*
X017910Y002079D01*
X017864Y002061D01*
X017816Y002046D01*
X017767Y002035D01*
X017718Y002028D01*
X017668Y002025D01*
X017617Y002026D01*
X017568Y002031D01*
X017518Y002040D01*
X017470Y002053D01*
X017423Y002069D01*
X017377Y002090D01*
X017333Y002114D01*
X017291Y002141D01*
X017251Y002171D01*
X017214Y002205D01*
X017180Y002242D01*
X017148Y002281D01*
X017120Y002322D01*
X017095Y002366D01*
X017074Y002411D01*
X017057Y002458D01*
X017043Y002506D01*
X017033Y002555D01*
X017027Y002605D01*
X017025Y002655D01*
X017655Y000655D02*
X017750Y000657D01*
X017845Y000664D01*
X017940Y000675D01*
X018034Y000691D01*
X018127Y000711D01*
X018218Y000736D01*
X018309Y000765D01*
X018398Y000798D01*
X018486Y000836D01*
X018571Y000877D01*
X018655Y000923D01*
X018736Y000972D01*
X018815Y001026D01*
X018891Y001083D01*
X018965Y001144D01*
X019035Y001208D01*
X019102Y001275D01*
X019166Y001345D01*
X019227Y001419D01*
X019284Y001495D01*
X019338Y001574D01*
X019387Y001655D01*
X019433Y001739D01*
X019474Y001824D01*
X019512Y001912D01*
X019545Y002001D01*
X019574Y002092D01*
X019599Y002183D01*
X019619Y002276D01*
X019635Y002370D01*
X019646Y002465D01*
X019653Y002560D01*
X019655Y002655D01*
X017655Y000655D02*
X002655Y000655D01*
X002025Y002655D02*
X002027Y002705D01*
X002033Y002755D01*
X002043Y002804D01*
X002057Y002852D01*
X002074Y002899D01*
X002095Y002944D01*
X002120Y002988D01*
X002148Y003029D01*
X002180Y003068D01*
X002214Y003105D01*
X002251Y003139D01*
X002291Y003169D01*
X002333Y003196D01*
X002377Y003220D01*
X002423Y003241D01*
X002470Y003257D01*
X002518Y003270D01*
X002568Y003279D01*
X002617Y003284D01*
X002668Y003285D01*
X002718Y003282D01*
X002767Y003275D01*
X002816Y003264D01*
X002864Y003249D01*
X002910Y003231D01*
X002955Y003209D01*
X002998Y003183D01*
X003039Y003154D01*
X003078Y003122D01*
X003114Y003087D01*
X003146Y003049D01*
X003176Y003009D01*
X003203Y002966D01*
X003226Y002922D01*
X003245Y002876D01*
X003261Y002828D01*
X003273Y002779D01*
X003281Y002730D01*
X003285Y002680D01*
X003285Y002630D01*
X003281Y002580D01*
X003273Y002531D01*
X003261Y002482D01*
X003245Y002434D01*
X003226Y002388D01*
X003203Y002344D01*
X003176Y002301D01*
X003146Y002261D01*
X003114Y002223D01*
X003078Y002188D01*
X003039Y002156D01*
X002998Y002127D01*
X002955Y002101D01*
X002910Y002079D01*
X002864Y002061D01*
X002816Y002046D01*
X002767Y002035D01*
X002718Y002028D01*
X002668Y002025D01*
X002617Y002026D01*
X002568Y002031D01*
X002518Y002040D01*
X002470Y002053D01*
X002423Y002069D01*
X002377Y002090D01*
X002333Y002114D01*
X002291Y002141D01*
X002251Y002171D01*
X002214Y002205D01*
X002180Y002242D01*
X002148Y002281D01*
X002120Y002322D01*
X002095Y002366D01*
X002074Y002411D01*
X002057Y002458D01*
X002043Y002506D01*
X002033Y002555D01*
X002027Y002605D01*
X002025Y002655D01*
X000655Y002655D02*
X000657Y002560D01*
X000664Y002465D01*
X000675Y002370D01*
X000691Y002276D01*
X000711Y002183D01*
X000736Y002092D01*
X000765Y002001D01*
X000798Y001912D01*
X000836Y001824D01*
X000877Y001739D01*
X000923Y001655D01*
X000972Y001574D01*
X001026Y001495D01*
X001083Y001419D01*
X001144Y001345D01*
X001208Y001275D01*
X001275Y001208D01*
X001345Y001144D01*
X001419Y001083D01*
X001495Y001026D01*
X001574Y000972D01*
X001655Y000923D01*
X001739Y000877D01*
X001824Y000836D01*
X001912Y000798D01*
X002001Y000765D01*
X002092Y000736D01*
X002183Y000711D01*
X002276Y000691D01*
X002370Y000675D01*
X002465Y000664D01*
X002560Y000657D01*
X002655Y000655D01*
X005260Y002502D02*
X005262Y002522D01*
X005268Y002542D01*
X005277Y002560D01*
X005290Y002577D01*
X005305Y002590D01*
X005323Y002600D01*
X005343Y002607D01*
X005363Y002610D01*
X005383Y002609D01*
X005403Y002604D01*
X005422Y002596D01*
X005439Y002584D01*
X005453Y002569D01*
X005464Y002551D01*
X005472Y002532D01*
X005476Y002512D01*
X005476Y002492D01*
X005472Y002472D01*
X005464Y002453D01*
X005453Y002435D01*
X005439Y002420D01*
X005422Y002408D01*
X005403Y002400D01*
X005383Y002395D01*
X005363Y002394D01*
X005343Y002397D01*
X005323Y002404D01*
X005305Y002414D01*
X005290Y002427D01*
X005277Y002444D01*
X005268Y002462D01*
X005262Y002482D01*
X005260Y002502D01*
X006835Y002502D02*
X006837Y002522D01*
X006843Y002542D01*
X006852Y002560D01*
X006865Y002577D01*
X006880Y002590D01*
X006898Y002600D01*
X006918Y002607D01*
X006938Y002610D01*
X006958Y002609D01*
X006978Y002604D01*
X006997Y002596D01*
X007014Y002584D01*
X007028Y002569D01*
X007039Y002551D01*
X007047Y002532D01*
X007051Y002512D01*
X007051Y002492D01*
X007047Y002472D01*
X007039Y002453D01*
X007028Y002435D01*
X007014Y002420D01*
X006997Y002408D01*
X006978Y002400D01*
X006958Y002395D01*
X006938Y002394D01*
X006918Y002397D01*
X006898Y002404D01*
X006880Y002414D01*
X006865Y002427D01*
X006852Y002444D01*
X006843Y002462D01*
X006837Y002482D01*
X006835Y002502D01*
X002172Y015055D02*
X002174Y015096D01*
X002180Y015137D01*
X002190Y015177D01*
X002203Y015216D01*
X002220Y015253D01*
X002241Y015289D01*
X002265Y015323D01*
X002292Y015354D01*
X002321Y015382D01*
X002354Y015408D01*
X002388Y015430D01*
X002425Y015449D01*
X002463Y015464D01*
X002503Y015476D01*
X002543Y015484D01*
X002584Y015488D01*
X002626Y015488D01*
X002667Y015484D01*
X002707Y015476D01*
X002747Y015464D01*
X002785Y015449D01*
X002821Y015430D01*
X002856Y015408D01*
X002889Y015382D01*
X002918Y015354D01*
X002945Y015323D01*
X002969Y015289D01*
X002990Y015253D01*
X003007Y015216D01*
X003020Y015177D01*
X003030Y015137D01*
X003036Y015096D01*
X003038Y015055D01*
X003036Y015014D01*
X003030Y014973D01*
X003020Y014933D01*
X003007Y014894D01*
X002990Y014857D01*
X002969Y014821D01*
X002945Y014787D01*
X002918Y014756D01*
X002889Y014728D01*
X002856Y014702D01*
X002822Y014680D01*
X002785Y014661D01*
X002747Y014646D01*
X002707Y014634D01*
X002667Y014626D01*
X002626Y014622D01*
X002584Y014622D01*
X002543Y014626D01*
X002503Y014634D01*
X002463Y014646D01*
X002425Y014661D01*
X002389Y014680D01*
X002354Y014702D01*
X002321Y014728D01*
X002292Y014756D01*
X002265Y014787D01*
X002241Y014821D01*
X002220Y014857D01*
X002203Y014894D01*
X002190Y014933D01*
X002180Y014973D01*
X002174Y015014D01*
X002172Y015055D01*
D11*
X012838Y014927D02*
X012838Y015383D01*
X012838Y014927D02*
X011472Y014927D01*
X011472Y015383D01*
X012838Y015383D01*
X012838Y014940D02*
X011472Y014940D01*
X011472Y014953D02*
X012838Y014953D01*
X012838Y014966D02*
X011472Y014966D01*
X011472Y014979D02*
X012838Y014979D01*
X012838Y014992D02*
X011472Y014992D01*
X011472Y015005D02*
X012838Y015005D01*
X012838Y015018D02*
X011472Y015018D01*
X011472Y015031D02*
X012838Y015031D01*
X012838Y015044D02*
X011472Y015044D01*
X011472Y015057D02*
X012838Y015057D01*
X012838Y015070D02*
X011472Y015070D01*
X011472Y015083D02*
X012838Y015083D01*
X012838Y015096D02*
X011472Y015096D01*
X011472Y015109D02*
X012838Y015109D01*
X012838Y015122D02*
X011472Y015122D01*
X011472Y015135D02*
X012838Y015135D01*
X012838Y015148D02*
X011472Y015148D01*
X011472Y015161D02*
X012838Y015161D01*
X012838Y015174D02*
X011472Y015174D01*
X011472Y015187D02*
X012838Y015187D01*
X012838Y015200D02*
X011472Y015200D01*
X011472Y015213D02*
X012838Y015213D01*
X012838Y015226D02*
X011472Y015226D01*
X011472Y015239D02*
X012838Y015239D01*
X012838Y015252D02*
X011472Y015252D01*
X011472Y015265D02*
X012838Y015265D01*
X012838Y015278D02*
X011472Y015278D01*
X011472Y015291D02*
X012838Y015291D01*
X012838Y015304D02*
X011472Y015304D01*
X011472Y015317D02*
X012838Y015317D01*
X012838Y015330D02*
X011472Y015330D01*
X011472Y015343D02*
X012838Y015343D01*
X012838Y015356D02*
X011472Y015356D01*
X011472Y015369D02*
X012838Y015369D01*
X012838Y015382D02*
X011472Y015382D01*
X012838Y014333D02*
X012838Y013877D01*
X011472Y013877D01*
X011472Y014333D01*
X012838Y014333D01*
X012838Y013890D02*
X011472Y013890D01*
X011472Y013903D02*
X012838Y013903D01*
X012838Y013916D02*
X011472Y013916D01*
X011472Y013929D02*
X012838Y013929D01*
X012838Y013942D02*
X011472Y013942D01*
X011472Y013955D02*
X012838Y013955D01*
X012838Y013968D02*
X011472Y013968D01*
X011472Y013981D02*
X012838Y013981D01*
X012838Y013994D02*
X011472Y013994D01*
X011472Y014007D02*
X012838Y014007D01*
X012838Y014020D02*
X011472Y014020D01*
X011472Y014033D02*
X012838Y014033D01*
X012838Y014046D02*
X011472Y014046D01*
X011472Y014059D02*
X012838Y014059D01*
X012838Y014072D02*
X011472Y014072D01*
X011472Y014085D02*
X012838Y014085D01*
X012838Y014098D02*
X011472Y014098D01*
X011472Y014111D02*
X012838Y014111D01*
X012838Y014124D02*
X011472Y014124D01*
X011472Y014137D02*
X012838Y014137D01*
X012838Y014150D02*
X011472Y014150D01*
X011472Y014163D02*
X012838Y014163D01*
X012838Y014176D02*
X011472Y014176D01*
X011472Y014189D02*
X012838Y014189D01*
X012838Y014202D02*
X011472Y014202D01*
X011472Y014215D02*
X012838Y014215D01*
X012838Y014228D02*
X011472Y014228D01*
X011472Y014241D02*
X012838Y014241D01*
X012838Y014254D02*
X011472Y014254D01*
X011472Y014267D02*
X012838Y014267D01*
X012838Y014280D02*
X011472Y014280D01*
X011472Y014293D02*
X012838Y014293D01*
X012838Y014306D02*
X011472Y014306D01*
X011472Y014319D02*
X012838Y014319D01*
X012838Y014332D02*
X011472Y014332D01*
X012838Y013383D02*
X012838Y012927D01*
X011472Y012927D01*
X011472Y013383D01*
X012838Y013383D01*
X012838Y012940D02*
X011472Y012940D01*
X011472Y012953D02*
X012838Y012953D01*
X012838Y012966D02*
X011472Y012966D01*
X011472Y012979D02*
X012838Y012979D01*
X012838Y012992D02*
X011472Y012992D01*
X011472Y013005D02*
X012838Y013005D01*
X012838Y013018D02*
X011472Y013018D01*
X011472Y013031D02*
X012838Y013031D01*
X012838Y013044D02*
X011472Y013044D01*
X011472Y013057D02*
X012838Y013057D01*
X012838Y013070D02*
X011472Y013070D01*
X011472Y013083D02*
X012838Y013083D01*
X012838Y013096D02*
X011472Y013096D01*
X011472Y013109D02*
X012838Y013109D01*
X012838Y013122D02*
X011472Y013122D01*
X011472Y013135D02*
X012838Y013135D01*
X012838Y013148D02*
X011472Y013148D01*
X011472Y013161D02*
X012838Y013161D01*
X012838Y013174D02*
X011472Y013174D01*
X011472Y013187D02*
X012838Y013187D01*
X012838Y013200D02*
X011472Y013200D01*
X011472Y013213D02*
X012838Y013213D01*
X012838Y013226D02*
X011472Y013226D01*
X011472Y013239D02*
X012838Y013239D01*
X012838Y013252D02*
X011472Y013252D01*
X011472Y013265D02*
X012838Y013265D01*
X012838Y013278D02*
X011472Y013278D01*
X011472Y013291D02*
X012838Y013291D01*
X012838Y013304D02*
X011472Y013304D01*
X011472Y013317D02*
X012838Y013317D01*
X012838Y013330D02*
X011472Y013330D01*
X011472Y013343D02*
X012838Y013343D01*
X012838Y013356D02*
X011472Y013356D01*
X011472Y013369D02*
X012838Y013369D01*
X012838Y013382D02*
X011472Y013382D01*
X012838Y012383D02*
X012838Y011927D01*
X011472Y011927D01*
X011472Y012383D01*
X012838Y012383D01*
X012838Y011940D02*
X011472Y011940D01*
X011472Y011953D02*
X012838Y011953D01*
X012838Y011966D02*
X011472Y011966D01*
X011472Y011979D02*
X012838Y011979D01*
X012838Y011992D02*
X011472Y011992D01*
X011472Y012005D02*
X012838Y012005D01*
X012838Y012018D02*
X011472Y012018D01*
X011472Y012031D02*
X012838Y012031D01*
X012838Y012044D02*
X011472Y012044D01*
X011472Y012057D02*
X012838Y012057D01*
X012838Y012070D02*
X011472Y012070D01*
X011472Y012083D02*
X012838Y012083D01*
X012838Y012096D02*
X011472Y012096D01*
X011472Y012109D02*
X012838Y012109D01*
X012838Y012122D02*
X011472Y012122D01*
X011472Y012135D02*
X012838Y012135D01*
X012838Y012148D02*
X011472Y012148D01*
X011472Y012161D02*
X012838Y012161D01*
X012838Y012174D02*
X011472Y012174D01*
X011472Y012187D02*
X012838Y012187D01*
X012838Y012200D02*
X011472Y012200D01*
X011472Y012213D02*
X012838Y012213D01*
X012838Y012226D02*
X011472Y012226D01*
X011472Y012239D02*
X012838Y012239D01*
X012838Y012252D02*
X011472Y012252D01*
X011472Y012265D02*
X012838Y012265D01*
X012838Y012278D02*
X011472Y012278D01*
X011472Y012291D02*
X012838Y012291D01*
X012838Y012304D02*
X011472Y012304D01*
X011472Y012317D02*
X012838Y012317D01*
X012838Y012330D02*
X011472Y012330D01*
X011472Y012343D02*
X012838Y012343D01*
X012838Y012356D02*
X011472Y012356D01*
X011472Y012369D02*
X012838Y012369D01*
X012838Y012382D02*
X011472Y012382D01*
X012838Y011433D02*
X012838Y010977D01*
X011472Y010977D01*
X011472Y011433D01*
X012838Y011433D01*
X012838Y010990D02*
X011472Y010990D01*
X011472Y011003D02*
X012838Y011003D01*
X012838Y011016D02*
X011472Y011016D01*
X011472Y011029D02*
X012838Y011029D01*
X012838Y011042D02*
X011472Y011042D01*
X011472Y011055D02*
X012838Y011055D01*
X012838Y011068D02*
X011472Y011068D01*
X011472Y011081D02*
X012838Y011081D01*
X012838Y011094D02*
X011472Y011094D01*
X011472Y011107D02*
X012838Y011107D01*
X012838Y011120D02*
X011472Y011120D01*
X011472Y011133D02*
X012838Y011133D01*
X012838Y011146D02*
X011472Y011146D01*
X011472Y011159D02*
X012838Y011159D01*
X012838Y011172D02*
X011472Y011172D01*
X011472Y011185D02*
X012838Y011185D01*
X012838Y011198D02*
X011472Y011198D01*
X011472Y011211D02*
X012838Y011211D01*
X012838Y011224D02*
X011472Y011224D01*
X011472Y011237D02*
X012838Y011237D01*
X012838Y011250D02*
X011472Y011250D01*
X011472Y011263D02*
X012838Y011263D01*
X012838Y011276D02*
X011472Y011276D01*
X011472Y011289D02*
X012838Y011289D01*
X012838Y011302D02*
X011472Y011302D01*
X011472Y011315D02*
X012838Y011315D01*
X012838Y011328D02*
X011472Y011328D01*
X011472Y011341D02*
X012838Y011341D01*
X012838Y011354D02*
X011472Y011354D01*
X011472Y011367D02*
X012838Y011367D01*
X012838Y011380D02*
X011472Y011380D01*
X011472Y011393D02*
X012838Y011393D01*
X012838Y011406D02*
X011472Y011406D01*
X011472Y011419D02*
X012838Y011419D01*
X012838Y011432D02*
X011472Y011432D01*
X012838Y010433D02*
X012838Y009977D01*
X011472Y009977D01*
X011472Y010433D01*
X012838Y010433D01*
X012838Y009990D02*
X011472Y009990D01*
X011472Y010003D02*
X012838Y010003D01*
X012838Y010016D02*
X011472Y010016D01*
X011472Y010029D02*
X012838Y010029D01*
X012838Y010042D02*
X011472Y010042D01*
X011472Y010055D02*
X012838Y010055D01*
X012838Y010068D02*
X011472Y010068D01*
X011472Y010081D02*
X012838Y010081D01*
X012838Y010094D02*
X011472Y010094D01*
X011472Y010107D02*
X012838Y010107D01*
X012838Y010120D02*
X011472Y010120D01*
X011472Y010133D02*
X012838Y010133D01*
X012838Y010146D02*
X011472Y010146D01*
X011472Y010159D02*
X012838Y010159D01*
X012838Y010172D02*
X011472Y010172D01*
X011472Y010185D02*
X012838Y010185D01*
X012838Y010198D02*
X011472Y010198D01*
X011472Y010211D02*
X012838Y010211D01*
X012838Y010224D02*
X011472Y010224D01*
X011472Y010237D02*
X012838Y010237D01*
X012838Y010250D02*
X011472Y010250D01*
X011472Y010263D02*
X012838Y010263D01*
X012838Y010276D02*
X011472Y010276D01*
X011472Y010289D02*
X012838Y010289D01*
X012838Y010302D02*
X011472Y010302D01*
X011472Y010315D02*
X012838Y010315D01*
X012838Y010328D02*
X011472Y010328D01*
X011472Y010341D02*
X012838Y010341D01*
X012838Y010354D02*
X011472Y010354D01*
X011472Y010367D02*
X012838Y010367D01*
X012838Y010380D02*
X011472Y010380D01*
X011472Y010393D02*
X012838Y010393D01*
X012838Y010406D02*
X011472Y010406D01*
X011472Y010419D02*
X012838Y010419D01*
X012838Y010432D02*
X011472Y010432D01*
X012838Y009433D02*
X012838Y008977D01*
X011472Y008977D01*
X011472Y009433D01*
X012838Y009433D01*
X012838Y008990D02*
X011472Y008990D01*
X011472Y009003D02*
X012838Y009003D01*
X012838Y009016D02*
X011472Y009016D01*
X011472Y009029D02*
X012838Y009029D01*
X012838Y009042D02*
X011472Y009042D01*
X011472Y009055D02*
X012838Y009055D01*
X012838Y009068D02*
X011472Y009068D01*
X011472Y009081D02*
X012838Y009081D01*
X012838Y009094D02*
X011472Y009094D01*
X011472Y009107D02*
X012838Y009107D01*
X012838Y009120D02*
X011472Y009120D01*
X011472Y009133D02*
X012838Y009133D01*
X012838Y009146D02*
X011472Y009146D01*
X011472Y009159D02*
X012838Y009159D01*
X012838Y009172D02*
X011472Y009172D01*
X011472Y009185D02*
X012838Y009185D01*
X012838Y009198D02*
X011472Y009198D01*
X011472Y009211D02*
X012838Y009211D01*
X012838Y009224D02*
X011472Y009224D01*
X011472Y009237D02*
X012838Y009237D01*
X012838Y009250D02*
X011472Y009250D01*
X011472Y009263D02*
X012838Y009263D01*
X012838Y009276D02*
X011472Y009276D01*
X011472Y009289D02*
X012838Y009289D01*
X012838Y009302D02*
X011472Y009302D01*
X011472Y009315D02*
X012838Y009315D01*
X012838Y009328D02*
X011472Y009328D01*
X011472Y009341D02*
X012838Y009341D01*
X012838Y009354D02*
X011472Y009354D01*
X011472Y009367D02*
X012838Y009367D01*
X012838Y009380D02*
X011472Y009380D01*
X011472Y009393D02*
X012838Y009393D01*
X012838Y009406D02*
X011472Y009406D01*
X011472Y009419D02*
X012838Y009419D01*
X012838Y009432D02*
X011472Y009432D01*
X012838Y008483D02*
X012838Y008027D01*
X011472Y008027D01*
X011472Y008483D01*
X012838Y008483D01*
X012838Y008040D02*
X011472Y008040D01*
X011472Y008053D02*
X012838Y008053D01*
X012838Y008066D02*
X011472Y008066D01*
X011472Y008079D02*
X012838Y008079D01*
X012838Y008092D02*
X011472Y008092D01*
X011472Y008105D02*
X012838Y008105D01*
X012838Y008118D02*
X011472Y008118D01*
X011472Y008131D02*
X012838Y008131D01*
X012838Y008144D02*
X011472Y008144D01*
X011472Y008157D02*
X012838Y008157D01*
X012838Y008170D02*
X011472Y008170D01*
X011472Y008183D02*
X012838Y008183D01*
X012838Y008196D02*
X011472Y008196D01*
X011472Y008209D02*
X012838Y008209D01*
X012838Y008222D02*
X011472Y008222D01*
X011472Y008235D02*
X012838Y008235D01*
X012838Y008248D02*
X011472Y008248D01*
X011472Y008261D02*
X012838Y008261D01*
X012838Y008274D02*
X011472Y008274D01*
X011472Y008287D02*
X012838Y008287D01*
X012838Y008300D02*
X011472Y008300D01*
X011472Y008313D02*
X012838Y008313D01*
X012838Y008326D02*
X011472Y008326D01*
X011472Y008339D02*
X012838Y008339D01*
X012838Y008352D02*
X011472Y008352D01*
X011472Y008365D02*
X012838Y008365D01*
X012838Y008378D02*
X011472Y008378D01*
X011472Y008391D02*
X012838Y008391D01*
X012838Y008404D02*
X011472Y008404D01*
X011472Y008417D02*
X012838Y008417D01*
X012838Y008430D02*
X011472Y008430D01*
X011472Y008443D02*
X012838Y008443D01*
X012838Y008456D02*
X011472Y008456D01*
X011472Y008469D02*
X012838Y008469D01*
X012838Y008482D02*
X011472Y008482D01*
X012838Y007483D02*
X012838Y007027D01*
X011472Y007027D01*
X011472Y007483D01*
X012838Y007483D01*
X012838Y007040D02*
X011472Y007040D01*
X011472Y007053D02*
X012838Y007053D01*
X012838Y007066D02*
X011472Y007066D01*
X011472Y007079D02*
X012838Y007079D01*
X012838Y007092D02*
X011472Y007092D01*
X011472Y007105D02*
X012838Y007105D01*
X012838Y007118D02*
X011472Y007118D01*
X011472Y007131D02*
X012838Y007131D01*
X012838Y007144D02*
X011472Y007144D01*
X011472Y007157D02*
X012838Y007157D01*
X012838Y007170D02*
X011472Y007170D01*
X011472Y007183D02*
X012838Y007183D01*
X012838Y007196D02*
X011472Y007196D01*
X011472Y007209D02*
X012838Y007209D01*
X012838Y007222D02*
X011472Y007222D01*
X011472Y007235D02*
X012838Y007235D01*
X012838Y007248D02*
X011472Y007248D01*
X011472Y007261D02*
X012838Y007261D01*
X012838Y007274D02*
X011472Y007274D01*
X011472Y007287D02*
X012838Y007287D01*
X012838Y007300D02*
X011472Y007300D01*
X011472Y007313D02*
X012838Y007313D01*
X012838Y007326D02*
X011472Y007326D01*
X011472Y007339D02*
X012838Y007339D01*
X012838Y007352D02*
X011472Y007352D01*
X011472Y007365D02*
X012838Y007365D01*
X012838Y007378D02*
X011472Y007378D01*
X011472Y007391D02*
X012838Y007391D01*
X012838Y007404D02*
X011472Y007404D01*
X011472Y007417D02*
X012838Y007417D01*
X012838Y007430D02*
X011472Y007430D01*
X011472Y007443D02*
X012838Y007443D01*
X012838Y007456D02*
X011472Y007456D01*
X011472Y007469D02*
X012838Y007469D01*
X012838Y007482D02*
X011472Y007482D01*
X012838Y006483D02*
X012838Y006027D01*
X011472Y006027D01*
X011472Y006483D01*
X012838Y006483D01*
X012838Y006040D02*
X011472Y006040D01*
X011472Y006053D02*
X012838Y006053D01*
X012838Y006066D02*
X011472Y006066D01*
X011472Y006079D02*
X012838Y006079D01*
X012838Y006092D02*
X011472Y006092D01*
X011472Y006105D02*
X012838Y006105D01*
X012838Y006118D02*
X011472Y006118D01*
X011472Y006131D02*
X012838Y006131D01*
X012838Y006144D02*
X011472Y006144D01*
X011472Y006157D02*
X012838Y006157D01*
X012838Y006170D02*
X011472Y006170D01*
X011472Y006183D02*
X012838Y006183D01*
X012838Y006196D02*
X011472Y006196D01*
X011472Y006209D02*
X012838Y006209D01*
X012838Y006222D02*
X011472Y006222D01*
X011472Y006235D02*
X012838Y006235D01*
X012838Y006248D02*
X011472Y006248D01*
X011472Y006261D02*
X012838Y006261D01*
X012838Y006274D02*
X011472Y006274D01*
X011472Y006287D02*
X012838Y006287D01*
X012838Y006300D02*
X011472Y006300D01*
X011472Y006313D02*
X012838Y006313D01*
X012838Y006326D02*
X011472Y006326D01*
X011472Y006339D02*
X012838Y006339D01*
X012838Y006352D02*
X011472Y006352D01*
X011472Y006365D02*
X012838Y006365D01*
X012838Y006378D02*
X011472Y006378D01*
X011472Y006391D02*
X012838Y006391D01*
X012838Y006404D02*
X011472Y006404D01*
X011472Y006417D02*
X012838Y006417D01*
X012838Y006430D02*
X011472Y006430D01*
X011472Y006443D02*
X012838Y006443D01*
X012838Y006456D02*
X011472Y006456D01*
X011472Y006469D02*
X012838Y006469D01*
X012838Y006482D02*
X011472Y006482D01*
X011472Y005583D02*
X011472Y005127D01*
X011472Y005583D02*
X012838Y005583D01*
X012838Y005127D01*
X011472Y005127D01*
X011472Y005140D02*
X012838Y005140D01*
X012838Y005153D02*
X011472Y005153D01*
X011472Y005166D02*
X012838Y005166D01*
X012838Y005179D02*
X011472Y005179D01*
X011472Y005192D02*
X012838Y005192D01*
X012838Y005205D02*
X011472Y005205D01*
X011472Y005218D02*
X012838Y005218D01*
X012838Y005231D02*
X011472Y005231D01*
X011472Y005244D02*
X012838Y005244D01*
X012838Y005257D02*
X011472Y005257D01*
X011472Y005270D02*
X012838Y005270D01*
X012838Y005283D02*
X011472Y005283D01*
X011472Y005296D02*
X012838Y005296D01*
X012838Y005309D02*
X011472Y005309D01*
X011472Y005322D02*
X012838Y005322D01*
X012838Y005335D02*
X011472Y005335D01*
X011472Y005348D02*
X012838Y005348D01*
X012838Y005361D02*
X011472Y005361D01*
X011472Y005374D02*
X012838Y005374D01*
X012838Y005387D02*
X011472Y005387D01*
X011472Y005400D02*
X012838Y005400D01*
X012838Y005413D02*
X011472Y005413D01*
X011472Y005426D02*
X012838Y005426D01*
X012838Y005439D02*
X011472Y005439D01*
X011472Y005452D02*
X012838Y005452D01*
X012838Y005465D02*
X011472Y005465D01*
X011472Y005478D02*
X012838Y005478D01*
X012838Y005491D02*
X011472Y005491D01*
X011472Y005504D02*
X012838Y005504D01*
X012838Y005517D02*
X011472Y005517D01*
X011472Y005530D02*
X012838Y005530D01*
X012838Y005543D02*
X011472Y005543D01*
X011472Y005556D02*
X012838Y005556D01*
X012838Y005569D02*
X011472Y005569D01*
X011472Y005582D02*
X012838Y005582D01*
D12*
X009771Y015391D02*
X009771Y016119D01*
X010539Y016119D01*
X010539Y015391D01*
X009771Y015391D01*
X009771Y015412D02*
X010539Y015412D01*
X010539Y015433D02*
X009771Y015433D01*
X009771Y015454D02*
X010539Y015454D01*
X010539Y015475D02*
X009771Y015475D01*
X009771Y015496D02*
X010539Y015496D01*
X010539Y015517D02*
X009771Y015517D01*
X009771Y015538D02*
X010539Y015538D01*
X010539Y015559D02*
X009771Y015559D01*
X009771Y015580D02*
X010539Y015580D01*
X010539Y015601D02*
X009771Y015601D01*
X009771Y015622D02*
X010539Y015622D01*
X010539Y015643D02*
X009771Y015643D01*
X009771Y015664D02*
X010539Y015664D01*
X010539Y015685D02*
X009771Y015685D01*
X009771Y015706D02*
X010539Y015706D01*
X010539Y015727D02*
X009771Y015727D01*
X009771Y015748D02*
X010539Y015748D01*
X010539Y015769D02*
X009771Y015769D01*
X009771Y015790D02*
X010539Y015790D01*
X010539Y015811D02*
X009771Y015811D01*
X009771Y015832D02*
X010539Y015832D01*
X010539Y015853D02*
X009771Y015853D01*
X009771Y015874D02*
X010539Y015874D01*
X010539Y015895D02*
X009771Y015895D01*
X009771Y015916D02*
X010539Y015916D01*
X010539Y015937D02*
X009771Y015937D01*
X009771Y015958D02*
X010539Y015958D01*
X010539Y015979D02*
X009771Y015979D01*
X009771Y016000D02*
X010539Y016000D01*
X010539Y016021D02*
X009771Y016021D01*
X009771Y016042D02*
X010539Y016042D01*
X010539Y016063D02*
X009771Y016063D01*
X009771Y016084D02*
X010539Y016084D01*
X010539Y016105D02*
X009771Y016105D01*
D13*
X001257Y015868D02*
X001257Y015642D01*
X001257Y015868D02*
X001953Y015868D01*
X001953Y015642D01*
X001257Y015642D01*
D14*
X001002Y005038D02*
X001002Y004272D01*
X001002Y005038D02*
X001808Y005038D01*
X001808Y004272D01*
X001002Y004272D01*
X001002Y004295D02*
X001808Y004295D01*
X001808Y004318D02*
X001002Y004318D01*
X001002Y004341D02*
X001808Y004341D01*
X001808Y004364D02*
X001002Y004364D01*
X001002Y004387D02*
X001808Y004387D01*
X001808Y004410D02*
X001002Y004410D01*
X001002Y004433D02*
X001808Y004433D01*
X001808Y004456D02*
X001002Y004456D01*
X001002Y004479D02*
X001808Y004479D01*
X001808Y004502D02*
X001002Y004502D01*
X001002Y004525D02*
X001808Y004525D01*
X001808Y004548D02*
X001002Y004548D01*
X001002Y004571D02*
X001808Y004571D01*
X001808Y004594D02*
X001002Y004594D01*
X001002Y004617D02*
X001808Y004617D01*
X001808Y004640D02*
X001002Y004640D01*
X001002Y004663D02*
X001808Y004663D01*
X001808Y004686D02*
X001002Y004686D01*
X001002Y004709D02*
X001808Y004709D01*
X001808Y004732D02*
X001002Y004732D01*
X001002Y004755D02*
X001808Y004755D01*
X001808Y004778D02*
X001002Y004778D01*
X001002Y004801D02*
X001808Y004801D01*
X001808Y004824D02*
X001002Y004824D01*
X001002Y004847D02*
X001808Y004847D01*
X001808Y004870D02*
X001002Y004870D01*
X001002Y004893D02*
X001808Y004893D01*
X001808Y004916D02*
X001002Y004916D01*
X001002Y004939D02*
X001808Y004939D01*
X001808Y004962D02*
X001002Y004962D01*
X001002Y004985D02*
X001808Y004985D01*
X001808Y005008D02*
X001002Y005008D01*
X001002Y005031D02*
X001808Y005031D01*
D15*
X002605Y005555D03*
D16*
X002605Y015055D03*
D17*
X013395Y003061D03*
X013395Y002155D03*
X013395Y001250D03*
D18*
X010915Y002155D03*
D19*
X009155Y001525D03*
X009155Y002785D03*
D20*
X014655Y002990D03*
X014655Y002320D03*
X014655Y009320D03*
X014655Y009990D03*
X013655Y009990D03*
X013655Y009320D03*
X012155Y016820D03*
X012155Y017490D03*
D21*
X017655Y017655D03*
X017655Y002655D03*
X002655Y002655D03*
X002655Y017655D03*
D22*
X005643Y002807D03*
X005899Y002807D03*
X006155Y002807D03*
X006411Y002807D03*
X006667Y002807D03*
D23*
X006943Y002502D03*
X005368Y002502D03*
D24*
X005043Y001655D03*
X007267Y001655D03*
D25*
X006155Y001655D03*
D26*
X018655Y005655D03*
X018655Y006655D03*
X018655Y007655D03*
X018655Y008655D03*
X018655Y009655D03*
X018655Y010655D03*
X018655Y011655D03*
X018655Y012655D03*
X018655Y013655D03*
X018655Y014655D03*
D27*
X015155Y016820D03*
X015155Y017490D03*
D28*
X014088Y017529D03*
X014088Y016781D03*
X013222Y017155D03*
M02*
